<svg xmlns="http://www.w3.org/2000/svg" width="549.161" height="640.6" viewBox="0 0 549.161 640.6">
  <g id="israel_map" transform="translate(-228.9 -62.9)">
    <g id="west_bank">
      <path id="Path_110" data-name="Path 110" d="M535.7,384.3l8.4-13.4a6.886,6.886,0,0,1,1.1-1.3l20-16.7c.1-.1.3-.2.4-.3l9.6-6.5a5.3,5.3,0,0,1,4.9-.6l6.6,2.3a5.569,5.569,0,0,0,6.7-2.7l23-46a5.344,5.344,0,0,1,4.8-3h0a5.359,5.359,0,0,0,4.3-2.3l6.7-9.3,20.3-29.2a2.092,2.092,0,0,1,.4-.6l10-18.9-9-7.6-5.4-2.4-3.9-6.4s8.6-15.3,5.7-20c-2.9-4.8-13-9.2-17.3-14.8-4.3-5.7-7.7-9.8-7.7-9.8l-6.2,2-.3-1.2c-9.8,4.6-20.1,2.1-20.1,2.1l-19.8,14.2-15.3,18-9,.2-7.6,9-9.9,20.4-13.5,23,.4,15H513.1l.5,10.2,12.1,2.7,4.2,10.5,11.5,8.3.6,5.3-2,4.7-2.7,4.2-7.5-3.7-8.2-4.2-11.1-1.1L483.3,320,473,325.4,459.2,343l-18.1,8.3,19.1,22.9,40.5,18.6Z" fill="#cbcbcb"/>
    </g>
    <g id="south">
      <path id="Path_111" data-name="Path 111" d="M333.4,300.2,292.4,479a17.122,17.122,0,0,1-5.5,9.3h0a18.1,18.1,0,0,0-5.7,16.4l1.5,8.8a18.339,18.339,0,0,1-.2,7l-28.3,126a19.3,19.3,0,0,1-1.1,3.4l-18.5,41.4-5.7,12.2,14-5,60.8-46.6a23.769,23.769,0,0,0,3.6-3.5l93.9-111.8a24.453,24.453,0,0,1,7.1-5.7l19.4-9.9a24.12,24.12,0,0,0,7.1-5.6l14.1-16.8a23.276,23.276,0,0,1,15.9-8.1h0A23.005,23.005,0,0,0,481,482l18.4-23a23.651,23.651,0,0,0,4.3-8.7l5.3-20.8a22.635,22.635,0,0,1,2.6-6.2l23.8-39.1-34.9,8.5L460,374.1l-19.1-22.9,18.1-8.3,14.1-17.7,10.3-5.4-8.9-20.4,6.9-9.4.8-12.3-8.3-7.2-6.7-26.9C467.5,243.7,396.4,292.5,333.4,300.2Z" fill="#ec7629"/>
    </g>
    <g id="jerusalem">
      <path id="Path_112" data-name="Path 112" d="M513.3,277.5l-9.7-8.1-8.7,4.4-8.6-.5-3.8,4.5-.8,12.3-7,9.4,8.9,20.4,27.1-5.6,11.2,1.1,8.2,4.2,7.5,3.8,2.6-4.3,2-4.6-.6-5.3-11.5-8.3-4.2-10.5-12.1-2.7Z" fill="#65bc9c"/>
    </g>
    <g id="center">
      <path id="Path_113" data-name="Path 113" d="M467.5,243.7l6.7,26.9,8.3,7.2,3.8-4.5,8.6.5,8.7-4.4,9.7,8.1h10.9l-.4-15,13.5-23,9.9-20.4,7.6-9,9-.2,15.3-18L573,178.2l-18.3-11.6C554.6,166.5,502.6,222.5,467.5,243.7Z" fill="#cfd635"/>
    </g>
    <g id="haifa_district">
      <path id="Path_114" data-name="Path 114" d="M554.6,166.5s24.2-21.2,27.8-26.9c3.6-5.6,19.1-22.5,19.1-22.5s11.1-9.8,12.4-11.9,7.9-15.7,12.3.8c0,0,1.2,2.7,9.5-.9L648,120l-4.5,4v7.9l-7.3,2.3-3.6,5.6-4.4-.8-3.1,4.9s-8,4.8-11.1,1.9-10.6,1.2-9.7,10.7,1.6,17.8,16.5,11.4c0,0,7.9,3-1.9,7.7-9.8,4.6-20.1,2.1-20.1,2.1L579,191.9l-6.1-13.7Z" fill="#22b0e7"/>
    </g>
    <g id="northern">
      <path id="Path_115" data-name="Path 115" d="M635.6,105.2,648,120l-4.5,4v7.9l-7.3,2.3-3.6,5.6-4.4-.8-3.1,4.9s-8,4.8-11.1,1.9-10.6,1.2-9.7,10.7,1.6,17.8,16.5,11.4c0,0,7.9,3-1.9,7.7l.3,1.2,6.2-2s3.3,4.1,7.7,9.8c4.3,5.7,14.4,10,17.3,14.8s-5.7,20-5.7,20l3.9,6.4,5.4,2.4,9,7.6,15.7-23.4a10.3,10.3,0,0,1,2.5-2.6l.3-.2a10.178,10.178,0,0,0,2.9-3.3l6.1-10.6a10.4,10.4,0,0,1,8.4-5.2l4.9-.3h1.7a10.88,10.88,0,0,0,8.4-2.9c5.1-5,13.9-14.7,14.7-22.5,1.1-11.1,8.3-19.4,8.3-19.4l12.6-21.6s11.5-10.5,16.2-19.4c4.6-8.9,17.3-11.8,10.3-13.2s-3.3-4.1-8.9-12.5c-5.5-8.4-10.2.5-10.2.5-21.6,32.7-24.2,21.2-30.2,21.4s-18.4-6.7-18.4-6.7,1.5-11.8-2.9-12.7c-4.4-.8-18.7-7.8-18.7-7.8L671.6,62.9Z" fill="#65bc9c"/>
    </g>
  </g>
</svg>
