<?xml version="1.0" encoding="UTF-8"?><svg id="hands" xmlns="http://www.w3.org/2000/svg" viewBox="0 0 192.34 192.06"><defs><style>.cls-1{fill:#ec7629;}.cls-2{fill:#f19544;}.cls-3{fill:#22b0e7;}.cls-4{fill:#cfd635;}.cls-5{fill:none;}.cls-6{fill:#65bc9c;}.cls-7{fill:#4494d0;}</style></defs><circle class="cls-7" cx="127.75" cy="121.04" r="20.55" transform="translate(-40.94 171.16) rotate(-60)"/><circle class="cls-1" cx="64.58" cy="121.04" r="20.55"/><circle class="cls-6" cx="96.17" cy="66.33" r="20.55"/><path class="cls-5" d="M113.44,35.74c-9.52-9.52-25.02-9.52-34.55,0l-34.53,34.53c-.58,.58-1.21,1.09-1.85,1.54-.07,.79-.2,1.58-.41,2.38l-12.64,47.17c-1.68,6.26-.8,12.84,2.48,18.51,3.28,5.68,8.53,9.73,14.79,11.4l47.17,12.64c.79,.21,1.54,.5,2.27,.83,.72-.33,1.47-.62,2.27-.83l47.17-12.64c6.26-1.68,11.51-5.73,14.79-11.41,3.28-5.68,4.16-12.25,2.48-18.51l-12.64-47.17c-.21-.79-.34-1.59-.41-2.38-.65-.46-1.27-.97-1.85-1.55l-34.53-34.53Z"/><path class="cls-4" d="M24.13,70.28c5.01,5.01,12.79,5.51,18.38,1.54,.64-6.82-3.69-13.31-10.53-15.14-4.28-1.15-8.63-.22-11.98,2.15-.38,4.09,.99,8.31,4.13,11.45Z"/><path class="cls-5" d="M113.44,35.74c-9.52-9.52-25.02-9.52-34.55,0l-34.53,34.53c-.58,.58-1.21,1.09-1.85,1.54-.07,.79-.2,1.58-.41,2.38l-12.64,47.17c-1.68,6.26-.8,12.84,2.48,18.51,3.28,5.68,8.53,9.73,14.79,11.4l47.17,12.64c.79,.21,1.54,.5,2.27,.83,.72-.33,1.47-.62,2.27-.83l47.17-12.64c6.26-1.68,11.51-5.73,14.79-11.41,3.28-5.68,4.16-12.25,2.48-18.51l-12.64-47.17c-.21-.79-.34-1.59-.41-2.38-.65-.46-1.27-.97-1.85-1.55l-34.53-34.53Zm-29.01,90.61c-2.94,10.96-14.2,17.47-25.17,14.53-10.96-2.94-17.47-14.2-14.53-25.17,2.94-10.96,14.2-17.47,25.17-14.53,10.96,2.94,17.47,14.2,14.53,25.17Zm-2.79-45.5c-8.02-8.02-8.02-21.03,0-29.06,8.02-8.02,21.03-8.02,29.06,0,8.02,8.02,8.02,21.03,0,29.06-8.02,8.02-21.03,8.02-29.06,0Zm51.43,60.03c-10.96,2.94-22.23-3.57-25.17-14.53-2.94-10.96,3.57-22.23,14.53-25.17,10.96-2.94,22.23,3.57,25.17,14.53,2.94,10.96-3.57,22.23-14.53,25.17Z"/><path class="cls-5" d="M160.36,56.68c-6.84,1.83-11.17,8.32-10.53,15.14,2.47,1.75,5.36,2.64,8.26,2.64,3.66,0,7.32-1.4,10.12-4.19,3.13-3.13,4.51-7.36,4.13-11.45-3.35-2.38-7.7-3.3-11.98-2.15Z"/><path class="cls-5" d="M24.13,70.28c5.01,5.01,12.79,5.51,18.38,1.54,.64-6.82-3.69-13.31-10.53-15.14-4.28-1.15-8.63-.22-11.98,2.15-.38,4.09,.99,8.31,4.13,11.45Z"/><path class="cls-5" d="M104.02,181.45c1.83-6.84-1.62-13.84-7.85-16.69-6.23,2.85-9.68,9.85-7.85,16.69,1.15,4.28,4.12,7.57,7.85,9.29,3.73-1.72,6.71-5.01,7.85-9.29Z"/><path class="cls-1" d="M88.32,181.45c-1.83-6.84,1.62-13.84,7.85-16.69-.72-.33-1.47-.62-2.27-.83l-47.17-12.64c-6.26-1.68-11.51-5.73-14.79-11.4-3.28-5.68-4.16-12.25-2.48-18.51l12.64-47.17c.21-.79,.34-1.59,.41-2.38-5.59,3.97-13.37,3.46-18.38-1.54-3.13-3.13-4.51-7.36-4.13-11.45-2.63,1.86-4.64,4.61-5.54,7.96L1.82,113.97c-3.66,13.64-1.76,27.93,5.34,40.22,7.1,12.3,18.52,21.08,32.17,24.74l47.17,12.64c1.24,.33,2.49,.49,3.71,.49,2.09,0,4.11-.47,5.96-1.32-3.73-1.72-6.7-5.01-7.85-9.29Z"/><path class="cls-6" d="M31.98,56.68c6.84,1.83,11.17,8.32,10.53,15.14,.65-.46,1.27-.96,1.85-1.54l34.53-34.53c9.53-9.52,25.02-9.52,34.55,0l34.53,34.53c.58,.58,1.21,1.09,1.85,1.55-.64-6.82,3.69-13.31,10.53-15.14,4.28-1.15,8.62-.23,11.98,2.15-.3-3.21-1.67-6.33-4.13-8.78L133.67,15.51c-20.68-20.68-54.33-20.68-75.01,0L24.13,50.04c-2.45,2.45-3.83,5.58-4.13,8.79,3.35-2.38,7.7-3.3,11.98-2.15Z"/><path class="cls-7" d="M190.52,113.97l-12.64-47.17c-.9-3.35-2.92-6.11-5.54-7.97,.38,4.09-.99,8.32-4.13,11.45-2.79,2.79-6.45,4.19-10.12,4.19-2.9,0-5.79-.89-8.26-2.64,.07,.79,.2,1.58,.41,2.38l12.64,47.17c1.68,6.26,.8,12.84-2.48,18.51-3.28,5.68-8.53,9.73-14.79,11.41l-47.17,12.64c-.79,.21-1.54,.5-2.27,.83,6.23,2.85,9.68,9.85,7.85,16.69-1.15,4.28-4.12,7.57-7.85,9.29,1.84,.85,3.87,1.32,5.96,1.32,1.23,0,2.47-.16,3.71-.49l47.17-12.64c13.64-3.66,25.07-12.44,32.17-24.74,7.1-12.3,8.99-26.58,5.34-40.22Z"/><path class="cls-2" d="M104.02,181.45c1.83-6.84-1.62-13.84-7.85-16.69-6.23,2.85-9.68,9.85-7.85,16.69,1.15,4.28,4.12,7.57,7.85,9.29,3.73-1.72,6.71-5.01,7.85-9.29Z"/><path class="cls-3" d="M160.36,56.68c-6.84,1.83-11.17,8.32-10.53,15.14,2.47,1.75,5.36,2.64,8.26,2.64,3.66,0,7.32-1.4,10.12-4.19,3.13-3.13,4.51-7.36,4.13-11.45-3.35-2.38-7.7-3.3-11.98-2.15Z"/></svg>