<?xml version="1.0" standalone="no"?>
<!DOCTYPE svg PUBLIC "-//W3C//DTD SVG 1.1//EN" "http://www.w3.org/Graphics/SVG/1.1/DTD/svg11.dtd" >
<svg xmlns="http://www.w3.org/2000/svg" xmlns:xlink="http://www.w3.org/1999/xlink" version="1.1">
<metadata>
Created by FontForge 20170731 at Sun Jun 26 11:54:46 2022
 By Aleksey,,,
Copyright (c) 2009-2021 Avraham Cornfeld. All rights reserved.
</metadata>
<defs>
<font id="AlmoniMLv5AAA-Medium" horiz-adv-x="0" >
  <font-face 
    font-family="Almoni ML v5 AAA Medium"
    font-weight="500"
    font-stretch="normal"
    units-per-em="2048"
    panose-1="0 0 6 0 0 0 0 0 0 0"
    ascent="1638"
    descent="-410"
    x-height="973"
    cap-height="1238"
    bbox="-1233 -509 2533 1898"
    underline-thickness="79"
    underline-position="-370"
    unicode-range="U+0020-FFFD"
  />
<missing-glyph horiz-adv-x="958" 
d="M849 0h-741q-25 0 -36.5 12t-11.5 38v1137q0 28 11 39.5t37 11.5h741q27 0 39 -12t12 -39v-1137q0 -50 -51 -50zM251 1123l228 -400l227 400h-455zM186 1043v-848l231 424zM539 619l234 -424v848zM479 515l-228 -400h455z" />
    <glyph glyph-name="f_f.liga" unicode="ff" horiz-adv-x="1190" 
d="M1075 1203q-65 0 -89 -33t-24 -119v-78h203v-135h-203v-838h-194v838h-402v-838h-196v838h-119v135h119v79q0 149 55.5 217t188.5 68q94 0 203 -21l-17 -128q-102 15 -122 15q-65 0 -88.5 -33t-23.5 -119v-78h402v79q0 149 55.5 217t188.5 68q94 0 203 -21l-19 -128
q-96 15 -121 15z" />
    <glyph glyph-name="f_f_i.liga" unicode="ffi" horiz-adv-x="1662" 
d="M1086 1346q163 0 447 -41v-198h-205v89q-132 15 -223 15q-78 0 -110.5 -39t-32.5 -137v-62h203v-135h-203v-838h-194v838h-402v-838h-196v838h-119v135h119v79q0 149 55.5 217t188.5 68q94 0 203 -21l-17 -128q-102 15 -122 15q-65 0 -88.5 -33t-23.5 -119v-78h402v63
q0 164 72 237t246 73zM1526 0h-205v973h205v-973z" />
    <glyph glyph-name="f_f_l.liga" unicode="ffl" horiz-adv-x="1711" 
d="M1602 145h59v-145h-108q-131 0 -181.5 42.5t-50.5 167.5v987q-140 14 -216 14q-78 0 -110.5 -39t-32.5 -137v-62h203v-135h-203v-838h-194v838h-402v-838h-196v838h-119v135h119v79q0 149 55.5 217t188.5 68q94 0 203 -21l-17 -128q-102 15 -122 15q-65 0 -88.5 -33
t-23.5 -119v-78h402v63q0 164 72 237t246 73q184 0 431 -37v-1072q0 -54 18.5 -73t66.5 -19z" />
    <glyph glyph-name="f_i.liga" unicode="fi" horiz-adv-x="1064" 
d="M488 1346q162 0 449 -41v-198h-205v89q-135 15 -224 15q-78 0 -110 -39t-32 -137v-62h202v-135h-202v-838h-196v838h-119v135h119v63q0 164 72 237t246 73zM928 0h-205v973h205v-973z" />
    <glyph glyph-name="f_l.liga" unicode="fl" horiz-adv-x="1114" 
d="M1006 145h57v-145h-108q-130 0 -181 42.5t-51 167.5v987q-140 14 -215 14q-78 0 -110 -39t-32 -137v-62h202v-135h-202v-838h-196v838h-119v135h119v63q0 164 72 237t246 73q185 0 432 -37v-1072q0 -54 19 -73t67 -19z" />
    <glyph glyph-name="uni05D005D005D0.liga" unicode="&#x5d0;&#x5d0;&#x5d0;" horiz-adv-x="2216" 
d="M348 734l-233 327h205l757 -1061h-205l-432 605q-127 -23 -127 -179v-426h-200v437q0 110 61.5 190.5t173.5 106.5zM1395 0l-758 1061h205l757 -1061h-204zM1853 375l269 -375h-205l-759 1061h206l394 -550q72 10 106 53.5t34 123.5v373h200v-382q0 -127 -68.5 -204
t-176.5 -100z" />
    <glyph glyph-name=".notdef" horiz-adv-x="958" 
d="M849 0h-741q-25 0 -36.5 12t-11.5 38v1137q0 28 11 39.5t37 11.5h741q27 0 39 -12t12 -39v-1137q0 -50 -51 -50zM251 1123l228 -400l227 400h-455zM186 1043v-848l231 424zM539 619l234 -424v848zM479 515l-228 -400h455z" />
    <glyph glyph-name=".null" 
 />
    <glyph glyph-name="nonmarkingreturn" horiz-adv-x="588" 
 />
    <glyph glyph-name="space" unicode=" " horiz-adv-x="516" 
 />
    <glyph glyph-name="exclam" unicode="!" horiz-adv-x="525" 
d="M159 638v600h205v-600l-23 -275h-157zM161 0v228h203v-228h-203z" />
    <glyph glyph-name="quotedbl" unicode="&#x22;" horiz-adv-x="626" 
d="M76 775l60 463h159l-1 -136l-96 -327h-122zM331 775l60 463h159v-136l-97 -327h-122z" />
    <glyph glyph-name="numbersign" unicode="#" horiz-adv-x="1292" 
d="M1243 920l-35 -145h-193l-65 -273h192l-35 -147h-193l-86 -355h-188l87 355h-294l-86 -355h-188l87 355h-196l35 147h198l67 273h-198l35 145h199l77 318h188l-80 -318h292l80 318h185l-77 -318h192zM470 502h292l66 273h-292z" />
    <glyph glyph-name="dollar" unicode="$" horiz-adv-x="1105" 
d="M1036 311q0 -138 -102.5 -222t-298.5 -98v-150h-145v148q-212 11 -317 117t-85 333h195q-13 -140 38.5 -211t168.5 -85v426q-120 43 -197.5 86t-119 90.5t-57 94.5t-15.5 111q0 119 98 200.5t291 95.5v150h145v-148q406 -28 385 -400h-189q8 217 -196 246v-386
q120 -42 198 -84t123 -91t62.5 -101t17.5 -122zM311 943q0 -57 38.5 -98.5t140.5 -84.5v333q-92 -13 -135.5 -52.5t-43.5 -97.5zM635 515v-370q96 12 144.5 55t46.5 111q0 65 -41 111.5t-150 92.5z" />
    <glyph glyph-name="percent" unicode="%" horiz-adv-x="1406" 
d="M329 1243q260 0 260 -244v-235q0 -122 -65.5 -185t-194.5 -63q-130 0 -196 63t-66 185v235q0 244 262 244zM327 0h-127l870 1238h127zM202 1006v-251q0 -65 33.5 -100.5t93.5 -35.5t93.5 35.5t33.5 100.5v251q0 65 -33 100t-94 35t-94 -35t-33 -100zM1077 716
q260 0 260 -244v-235q0 -248 -260 -248q-129 0 -194.5 63t-65.5 185v235q0 244 260 244zM950 479v-251q0 -65 33.5 -100.5t93.5 -35.5t93.5 35.5t33.5 100.5v251q0 65 -33 100t-94 35t-94 -35t-33 -100z" />
    <glyph glyph-name="ampersand" unicode="&#x26;" horiz-adv-x="1135" 
d="M844 343l256 -343h-202l-152 205l-1 -3q-61 -97 -147.5 -151t-171 -59.5t-161 25t-124.5 91.5q-65 81 -70.5 170t42 171.5t140.5 157.5l131 106l-80 104q-60 79 -71 158.5t21.5 139t107 97t176.5 37.5q68 0 124.5 -21.5t92.5 -56.5t53.5 -83t12.5 -99t-35.5 -105.5
t-85.5 -101.5l-341 -294q-163 -140 -69 -269q24 -33 65 -49t88 -11.5t98 43t89 107.5l242 361h202zM453 867l46 -62l93 76q58 47 73 105t-19 99.5t-108 41.5q-117 0 -141.5 -76.5t56.5 -183.5z" />
    <glyph glyph-name="quotesingle" unicode="'" horiz-adv-x="380" 
d="M76 775l60 463h168l-2 -136l-95 -327h-131z" />
    <glyph glyph-name="parenleft" unicode="(" horiz-adv-x="592" 
d="M325 545q0 -248 71.5 -475t169.5 -364h-140q-125 154 -197.5 369.5t-72.5 469.5q0 256 72.5 471t197.5 369h140q-98 -137 -169.5 -364.5t-71.5 -475.5z" />
    <glyph glyph-name="parenright" unicode=")" horiz-adv-x="592" 
d="M269 545q0 248 -71.5 475.5t-170.5 364.5h139q125 -154 198 -369t73 -471q0 -254 -73 -469.5t-198 -369.5h-139q99 137 170.5 364.5t71.5 474.5z" />
    <glyph glyph-name="asterisk" unicode="*" horiz-adv-x="707" 
d="M610 1141l48 -149l-211 -49l142 -163l-126 -94l-111 179l-106 -179l-126 94l138 164l-208 48l47 149l195 -87l-18 218h159l-23 -218z" />
    <glyph glyph-name="plus" unicode="+" horiz-adv-x="827" 
d="M479 603h271v-134h-271v-269h-132v269h-269v134h269v269h132v-269z" />
    <glyph glyph-name="comma" unicode="," horiz-adv-x="359" 
d="M58 -226l41 486h166v-159l-95 -327h-112z" />
    <glyph glyph-name="hyphen" unicode="-" horiz-adv-x="710" 
d="M78 463v145h555v-145h-555z" />
    <glyph glyph-name="period" unicode="." horiz-adv-x="390" 
d="M90 0v235h209v-235h-209z" />
    <glyph glyph-name="slash" unicode="/" horiz-adv-x="666" 
d="M16 0l463 1238h172l-464 -1238h-171z" />
    <glyph glyph-name="zero" unicode="0" horiz-adv-x="1117" 
d="M561 1249q222 0 334.5 -107t112.5 -330v-382q0 -225 -112.5 -333.5t-334.5 -108.5q-224 0 -337 108.5t-113 333.5v382q0 223 113 330t337 107zM317 826v-412q0 -271 244 -271q116 0 179 66.5t63 204.5v412q0 137 -63 203t-179 66q-244 0 -244 -269z" />
    <glyph glyph-name="one" unicode="1" horiz-adv-x="700" 
d="M647 0h-557v154h191v753h-175v154q71 0 109.5 7.5t60.5 31.5q41 41 48 138h162v-1084h161v-154z" />
    <glyph glyph-name="two" unicode="2" horiz-adv-x="972" 
d="M715 523l-314 -369h497v-154h-827l458 585q148 184 148 324q0 84 -51 133t-145 49q-111 0 -161.5 -82t-41.5 -218h-195q-8 117 17.5 205.5t81 143t132.5 82t174 27.5q184 0 286.5 -91.5t102.5 -255.5q0 -179 -162 -379z" />
    <glyph glyph-name="three" unicode="3" horiz-adv-x="1004" 
d="M706 660q106 -26 163.5 -107t57.5 -208q0 -167 -111.5 -261.5t-306.5 -94.5q-203 0 -316 105.5t-101 308.5h193q-7 -125 56 -192.5t175 -67.5q103 0 159.5 57.5t56.5 154.5q0 216 -251 216h-71v145h59q111 0 168.5 51t57.5 146q0 79 -53 130.5t-145 51.5
q-101 0 -156.5 -65t-48.5 -181h-191q-13 189 95.5 294.5t298.5 105.5t291.5 -87t101.5 -232q0 -99 -45 -169.5t-137 -100.5z" />
    <glyph glyph-name="four" unicode="4" horiz-adv-x="986" 
d="M812 387h139v-155h-139v-232h-189v232h-582v79l399 927h198l-357 -851h342v306h189v-306z" />
    <glyph glyph-name="five" unicode="5" horiz-adv-x="1020" 
d="M573 875q182 0 268.5 -108t86.5 -328q0 -450 -408 -450q-191 0 -290 95t-104 273h189q4 -101 55.5 -157.5t149.5 -56.5q106 0 158 71.5t52 220.5q0 150 -50.5 218.5t-156.5 68.5q-72 0 -123.5 -32.5t-77.5 -89.5h-189v638h757v-154h-575v-302q99 93 258 93z" />
    <glyph glyph-name="six" unicode="6" horiz-adv-x="999" 
d="M555 801q166 0 270.5 -105t104.5 -286q0 -201 -111 -311t-317 -110q-205 0 -316.5 110t-111.5 311q0 96 33.5 180t102.5 176l374 472h231l-359 -449q51 12 99 12zM502 141q104 0 165.5 72t61.5 197q0 122 -61.5 193t-165.5 71q-101 0 -162.5 -71.5t-61.5 -192.5
q0 -126 60 -197.5t164 -71.5z" />
    <glyph glyph-name="seven" unicode="7" horiz-adv-x="866" 
d="M405 0h-209l377 1074h-520v164h775z" />
    <glyph glyph-name="eight" unicode="8" horiz-adv-x="1025" 
d="M76 352q0 126 66.5 214.5t184.5 126.5q-87 32 -135.5 97.5t-48.5 152.5q0 138 101 222t269 84t269 -84t101 -222q0 -87 -48.5 -152.5t-135.5 -97.5q118 -38 184.5 -126.5t66.5 -214.5q0 -169 -117 -266.5t-320 -97.5t-320 97.5t-117 266.5zM329 927q0 -78 50 -123
t134 -45t134 45t50 123q0 86 -50 136.5t-134 50.5t-134 -50.5t-50 -136.5zM281 366q0 -109 62.5 -173t169.5 -64t169.5 64t62.5 173q0 114 -62.5 181t-169.5 67t-169.5 -67t-62.5 -181z" />
    <glyph glyph-name="nine" unicode="9" horiz-adv-x="995" 
d="M490 1249q205 0 316.5 -110t111.5 -311q0 -96 -33.5 -180t-102.5 -176l-373 -472h-232l359 449q-37 -12 -97 -12q-167 0 -272 105t-105 286q0 201 111 311t317 110zM490 564q101 0 163 71.5t62 192.5q0 125 -60.5 197t-164.5 72t-165 -72t-61 -197q0 -122 61 -193
t165 -71z" />
    <glyph glyph-name="colon" unicode=":" horiz-adv-x="435" 
d="M113 737v236h209v-236h-209zM113 0v235h209v-235h-209z" />
    <glyph glyph-name="semicolon" unicode=";" horiz-adv-x="435" 
d="M113 737v236h209v-236h-209zM96 -226l40 486h166v-159l-95 -327h-111z" />
    <glyph glyph-name="less" unicode="&#x3c;" horiz-adv-x="921" 
d="M766 157l-630 308v142l630 309v-154l-471 -226l471 -225v-154z" />
    <glyph glyph-name="equal" unicode="=" horiz-adv-x="1015" 
d="M104 661v140h810v-140h-810zM104 272v138h810v-138h-810z" />
    <glyph glyph-name="greater" unicode="&#x3e;" horiz-adv-x="921" 
d="M785 607v-142l-629 -308v154l472 225l-472 226v154z" />
    <glyph glyph-name="question" unicode="?" horiz-adv-x="921" 
d="M842 950q0 -61 -16 -111t-41.5 -84t-56 -63t-61 -56t-56 -55.5t-41.5 -68.5t-16 -89v-60h-183v76q0 55 15 100t39.5 76.5t54 59.5t58.5 54t53.5 53t39.5 64.5t15 81.5q0 88 -45.5 130t-138.5 42q-98 0 -144 -45t-46 -144v-55h-196v76q0 159 95 235t291 76q380 0 380 -293
zM361 0v228h203v-228h-203z" />
    <glyph glyph-name="at" unicode="@" horiz-adv-x="1713" 
d="M867 1247q168 0 310 -53t241.5 -148t155 -231.5t55.5 -299.5q0 -132 -34 -238.5t-91.5 -172t-128.5 -100t-149 -34.5q-122 0 -189.5 66.5t-62.5 186.5q-81 -135 -226 -135q-139 0 -210.5 116t-24.5 342q18 85 54.5 150t83.5 101.5t96.5 54.5t101.5 18q82 0 134.5 -38
t72.5 -100l21 112h140l-103 -494q-27 -140 -1 -197t107 -57q108 0 185 110.5t77 308.5q0 268 -166.5 436.5t-445.5 168.5q-185 0 -329.5 -86.5t-224 -241.5t-79.5 -353q0 -204 98.5 -349.5t267 -203t371.5 -17.5l13 -110q-155 -28 -291 -15.5t-248.5 70.5t-193 146.5
t-125 212t-44.5 266.5q0 231 96 414t275 288.5t411 105.5zM1006 490q26 123 -9.5 194t-122.5 71q-75 0 -135.5 -64t-82.5 -171q-33 -145 5 -229t131 -84q73 0 130.5 74.5t83.5 208.5z" />
    <glyph glyph-name="A" unicode="A" horiz-adv-x="1119" 
d="M1116 0h-223l-95 295h-476l-96 -295h-222l456 1238h200zM561 1028l-190 -582h377z" />
    <glyph glyph-name="B" unicode="B" horiz-adv-x="1176" 
d="M904 647q86 -26 138.5 -101t52.5 -203q0 -173 -100.5 -258t-292.5 -85h-559v1238h541q184 0 282.5 -81.5t98.5 -236.5q0 -104 -42.5 -175.5t-118.5 -97.5zM860 902q0 89 -51.5 129.5t-154.5 40.5h-309v-354h318q100 0 148.5 45t48.5 139zM345 166h318q114 0 169.5 47
t55.5 151q0 195 -225 195h-318v-393z" />
    <glyph glyph-name="C" unicode="C" horiz-adv-x="1192" 
d="M601 -11q-258 0 -380 122.5t-122 392.5v233q0 268 122 390t380 122q255 0 378 -113.5t123 -346.5h-205q0 155 -73 230.5t-223 75.5q-151 0 -224 -80.5t-73 -257.5v-272q0 -179 73 -259.5t224 -80.5q150 0 223 75.5t73 232.5h205q0 -234 -123 -349t-378 -115z" />
    <glyph glyph-name="D" unicode="D" horiz-adv-x="1215" 
d="M143 1238h437q107 0 183 -10.5t139 -37.5t103 -71.5t67.5 -114.5t39 -163.5t11.5 -221.5t-11.5 -221.5t-39 -163.5t-67.5 -114.5t-103 -71.5t-139 -37.5t-183 -10.5h-437v1238zM348 164h223q71 0 119.5 6.5t89.5 25.5t65.5 50.5t42 83.5t24 121t6.5 168t-6.5 168t-24 121
t-42 83.5t-65.5 50.5t-89.5 25.5t-119.5 6.5h-223v-910z" />
    <glyph glyph-name="E" unicode="E" horiz-adv-x="1096" 
d="M348 566v-402h660v-164h-865v1238h851v-164h-646v-347h577v-161h-577z" />
    <glyph glyph-name="F" unicode="F" horiz-adv-x="1031" 
d="M985 1238v-164h-637v-358h568v-161h-568v-555h-205v1238h842z" />
    <glyph glyph-name="G" unicode="G" horiz-adv-x="1220" 
d="M642 541v145h478v-185q0 -269 -124 -390.5t-386 -121.5q-263 0 -387 122.5t-124 392.5v233q0 268 124 390t387 122q471 0 502 -374h-203q-12 109 -89 164.5t-210 55.5q-155 0 -230.5 -81t-75.5 -257v-272q0 -179 75.5 -260.5t230.5 -81.5q158 0 234 78.5t76 254.5v65
h-278z" />
    <glyph glyph-name="H" unicode="H" horiz-adv-x="1273" 
d="M925 725v513h205v-1238h-205v561h-577v-561h-205v1238h205v-513h577z" />
    <glyph glyph-name="I" unicode="I" horiz-adv-x="491" 
d="M348 0h-205v1238h205v-1238z" />
    <glyph glyph-name="J" unicode="J" horiz-adv-x="631" 
d="M184 0h-161v164h122q79 0 112 37.5t33 129.5v907h205v-929q0 -172 -68.5 -240.5t-242.5 -68.5z" />
    <glyph glyph-name="K" unicode="K" horiz-adv-x="1098" 
d="M518 638l577 -638h-264l-483 552v-552h-205v1238h205v-513l451 513h264z" />
    <glyph glyph-name="L" unicode="L" horiz-adv-x="1032" 
d="M996 0h-853v1238h205v-1074h648v-164z" />
    <glyph glyph-name="M" unicode="M" horiz-adv-x="1570" 
d="M785 444l365 794h277v-1238h-196v990l-363 -772h-166l-362 772v-990h-197v1238h278z" />
    <glyph glyph-name="N" unicode="N" horiz-adv-x="1287" 
d="M955 221v1017h189v-1238h-256l-554 1015v-1015h-191v1238h258z" />
    <glyph glyph-name="O" unicode="O" horiz-adv-x="1213" 
d="M608 -11q-263 0 -386 122.5t-123 392.5v233q0 268 123 390t386 122q260 0 383 -122t123 -390v-233q0 -270 -123 -392.5t-383 -122.5zM608 143q154 0 227.5 81.5t73.5 260.5v272q0 177 -73.5 257.5t-227.5 80.5q-155 0 -229.5 -80.5t-74.5 -257.5v-272q0 -179 74.5 -260.5
t229.5 -81.5z" />
    <glyph glyph-name="P" unicode="P" horiz-adv-x="1117" 
d="M617 1238q219 0 319 -104.5t100 -327.5q0 -222 -100 -326.5t-319 -104.5h-267l-2 -375h-205v1238h474zM350 536h223q138 0 198 64.5t60 205.5q0 142 -60 207.5t-198 65.5h-219z" />
    <glyph glyph-name="Q" unicode="Q" horiz-adv-x="1211" 
d="M1114 737v-233q0 -117 -32 -206.5t-89 -144t-126.5 -83.5t-151.5 -36q81 -15 162 -39l205 -64l-53 -145l-330 106q-241 75 -325 115q-147 69 -209 175q-66 115 -66 322v233q0 266 123.5 389t385.5 123q259 0 382.5 -123t123.5 -389zM909 485v272q0 177 -73.5 257.5
t-227.5 80.5q-155 0 -229.5 -80.5t-74.5 -257.5v-272q0 -179 74.5 -260.5t229.5 -81.5q154 0 227.5 81.5t73.5 260.5z" />
    <glyph glyph-name="R" unicode="R" horiz-adv-x="1124" 
d="M1042 0h-228l-234 449h-232v-449h-205v1238h487q204 0 302.5 -97.5t98.5 -295.5q0 -308 -239 -375zM580 1066h-232v-442h232q127 0 186.5 56.5t59.5 170.5q0 112 -59 163.5t-187 51.5z" />
    <glyph glyph-name="S" unicode="S" horiz-adv-x="1119" 
d="M559 -12q-118 0 -205.5 23t-151 74.5t-90.5 140t-15 213.5h195q-15 -158 51.5 -228.5t220.5 -70.5q134 0 202.5 45t68.5 126q-1 53 -26 90.5t-89 75t-181 78.5q-133 45 -218.5 89t-132 93t-63.5 98.5t-17 115.5q0 130 118.5 214.5t348.5 84.5q130 0 222.5 -30t143 -85.5
t71.5 -126t17 -159.5h-191q4 117 -57 183t-201 66q-133 0 -196.5 -42.5t-63.5 -112.5q0 -68 57.5 -116t222.5 -104q178 -58 275.5 -119t133.5 -128t36 -165q0 -153 -124.5 -238t-361.5 -85z" />
    <glyph glyph-name="T" unicode="T" horiz-adv-x="1046" 
d="M1001 1238v-164h-375v-1074h-205v1074h-373v164h953z" />
    <glyph glyph-name="U" unicode="U" horiz-adv-x="1245" 
d="M624 -11q-250 0 -370 109.5t-120 345.5v794h206v-794q0 -161 66.5 -231t217.5 -70q149 0 216 70.5t67 230.5v794h205v-794q0 -236 -119.5 -345.5t-368.5 -109.5z" />
    <glyph glyph-name="V" unicode="V" horiz-adv-x="1144" 
d="M679 0h-216l-440 1238h221l327 -987l329 987h221z" />
    <glyph glyph-name="W" unicode="W" horiz-adv-x="1777" 
d="M1265 255l261 983h220l-363 -1238h-228l-267 925l-267 -925h-227l-362 1238h219l264 -983l281 983h186z" />
    <glyph glyph-name="X" unicode="X" horiz-adv-x="1117" 
d="M676 653l421 -653h-230l-308 508l-310 -508h-228l421 653l-371 585h228l260 -439l258 439h230z" />
    <glyph glyph-name="Y" unicode="Y" horiz-adv-x="1092" 
d="M546 681l299 557h220l-416 -730v-508h-205v508l-416 730h218z" />
    <glyph glyph-name="Z" unicode="Z" horiz-adv-x="1029" 
d="M983 0h-932l639 1074h-617v164h917l-640 -1074h633v-164z" />
    <glyph glyph-name="bracketleft" unicode="[" horiz-adv-x="555" 
d="M324 1275v-1459h201v-111h-368v1680h368v-110h-201z" />
    <glyph glyph-name="backslash" unicode="\" horiz-adv-x="666" 
d="M16 1238h171l464 -1238h-172z" />
    <glyph glyph-name="bracketright" unicode="]" horiz-adv-x="555" 
d="M30 -184h202v1459h-202v110h368v-1680h-368v111z" />
    <glyph glyph-name="asciicircum" unicode="^" horiz-adv-x="1009" 
d="M501 1272h7l454 -508l-106 -97l-352 419l-350 -419l-106 95z" />
    <glyph glyph-name="underscore" unicode="_" horiz-adv-x="654" 
d="M0 -152v150h654v-150h-654z" />
    <glyph glyph-name="grave" unicode="`" horiz-adv-x="878" 
d="M205 1275h196l149 -214h-143z" />
    <glyph glyph-name="a" unicode="a" horiz-adv-x="955" 
d="M502 982q181 0 259.5 -79t78.5 -272v-631h-187v136q-96 -145 -294 -145q-142 0 -225 77.5t-83 210.5q0 166 146 261t456 104q-4 109 -48 153.5t-143 42.5q-137 -3 -324 -60l-32 129q217 73 396 73zM423 143q45 0 84.5 13.5t73 41t53 76t19.5 113.5v129
q-119 -6 -202.5 -25t-127.5 -49t-63 -64t-19 -77q0 -73 46.5 -116t135.5 -42z" />
    <glyph glyph-name="b" unicode="b" horiz-adv-x="1077" 
d="M608 980q197 0 297.5 -127t100.5 -367t-100.5 -366.5t-297.5 -126.5q-195 0 -284 134v-127h-195v1326h195v-477q89 131 284 131zM562 129q248 0 248 357q0 358 -248 358q-245 0 -245 -358q0 -357 245 -357z" />
    <glyph glyph-name="c" unicode="c" horiz-adv-x="988" 
d="M497 -11q-426 0 -426 496q0 498 426 498q189 0 298 -92.5t125 -262.5h-197q-14 104 -71 159t-155 55q-117 0 -173.5 -86.5t-56.5 -270.5q0 -181 56.5 -267.5t173.5 -86.5q99 0 156.5 56t69.5 160h197q-16 -171 -124.5 -264.5t-298.5 -93.5z" />
    <glyph glyph-name="d" unicode="d" horiz-adv-x="1077" 
d="M753 849v477h195v-1326h-195v127q-89 -134 -284 -134q-197 0 -297.5 126.5t-100.5 366.5t100.5 367t297.5 127q195 0 284 -131zM515 129q245 0 245 357q0 358 -245 358q-248 0 -248 -358q0 -357 248 -357z" />
    <glyph glyph-name="e" unicode="e" horiz-adv-x="1006" 
d="M501 983q219 0 327.5 -137t98.5 -416h-658q8 -155 65.5 -228t164.5 -73q96 0 151 48.5t72 128.5h192q-25 -147 -128 -232.5t-285 -85.5q-213 0 -321.5 125t-108.5 373q0 246 109.5 371.5t320.5 125.5zM499 842q-105 0 -162.5 -69.5t-67.5 -217.5h461q-15 287 -231 287z
" />
    <glyph glyph-name="f" unicode="f" horiz-adv-x="592" 
d="M478 1203q-65 0 -88.5 -33t-23.5 -119v-78h202v-135h-202v-838h-196v838h-119v135h119v79q0 149 55.5 217t188.5 68q94 0 203 -21l-17 -128q-102 15 -122 15z" />
    <glyph glyph-name="g" unicode="g" horiz-adv-x="1073" 
d="M750 847v126h194v-934q0 -213 -98 -307.5t-305 -94.5q-180 0 -366 62l44 133q159 -51 296 -51q124 0 179.5 57.5t55.5 202.5v109q-85 -125 -274 -125q-203 0 -306 124.5t-103 354.5q0 229 101 352.5t297 123.5q191 0 285 -133zM509 161q123 0 185.5 88.5t62.5 254.5
q0 164 -62.5 252t-185.5 88q-121 0 -183 -88t-62 -252q0 -166 62 -254.5t183 -88.5z" />
    <glyph glyph-name="h" unicode="h" horiz-adv-x="1077" 
d="M592 980q183 0 277.5 -102.5t94.5 -295.5v-582h-196v582q0 122 -55.5 187.5t-160.5 65.5q-228 0 -228 -267v-568h-195v1326h195v-449q92 103 268 103z" />
    <glyph glyph-name="i" unicode="i" horiz-adv-x="452" 
d="M324 1118h-195v173h195v-173zM324 0h-195v973h195v-973z" />
    <glyph glyph-name="j" unicode="j" horiz-adv-x="456" 
d="M327 1118h-194v173h194v-173zM71 -354h-96v151h41q67 0 92 31.5t25 121.5v1023h194v-1031q0 -167 -56.5 -231.5t-199.5 -64.5z" />
    <glyph glyph-name="k" unicode="k" horiz-adv-x="919" 
d="M478 534l422 -534h-228l-348 455v-455h-195v1326h195v-718l311 365h232z" />
    <glyph glyph-name="l" unicode="l" horiz-adv-x="514" 
d="M462 0h-108q-129 0 -179.5 42.5t-50.5 167.5v1116h194v-1089q0 -54 19.5 -73t67.5 -19h57v-145z" />
    <glyph glyph-name="m" unicode="m" horiz-adv-x="1584" 
d="M1128 982q342 0 342 -365v-617h-195v617q0 105 -46.5 162.5t-142.5 57.5t-142.5 -57.5t-46.5 -162.5v-617h-195v617q0 105 -47 162.5t-142 57.5t-142 -58.5t-47 -166.5v-612h-195v973h195v-92q80 101 244 101q197 0 276 -131q80 131 284 131z" />
    <glyph glyph-name="n" unicode="n" horiz-adv-x="1078" 
d="M603 982q182 0 271.5 -102t89.5 -296v-584h-195v584q0 123 -55 188.5t-162 65.5q-114 0 -170.5 -69t-56.5 -200h-1l1 -569h-196v973h195v-105q94 114 279 114z" />
    <glyph glyph-name="o" unicode="o" horiz-adv-x="1027" 
d="M513 -14q-442 0 -442 499q0 500 442 500q444 0 444 -500q0 -499 -444 -499zM513 127q127 0 188 88.5t61 270.5t-61 270t-188 88q-126 0 -186 -88t-60 -270t60 -270.5t186 -88.5z" />
    <glyph glyph-name="p" unicode="p" horiz-adv-x="1077" 
d="M608 980q197 0 297.5 -127t100.5 -367t-100.5 -366.5t-297.5 -126.5q-192 0 -284 131v-478h-195v1327h195v-126q94 133 284 133zM562 129q248 0 248 357q0 358 -248 358q-245 0 -245 -358q0 -357 245 -357z" />
    <glyph glyph-name="q" unicode="q" horiz-adv-x="1077" 
d="M753 847v126h195v-1327h-195v478q-92 -131 -284 -131q-197 0 -297.5 126.5t-100.5 366.5t100.5 367t297.5 127q190 0 284 -133zM515 129q245 0 245 357q0 358 -245 358q-248 0 -248 -358q0 -357 248 -357z" />
    <glyph glyph-name="r" unicode="r" horiz-adv-x="695" 
d="M324 0h-195v973h184v-216l4 -2q32 104 106 161t210 57h41v-182h-41q-152 0 -230.5 -73.5t-78.5 -245.5v-472z" />
    <glyph glyph-name="s" unicode="s" horiz-adv-x="903" 
d="M455 -11q-216 0 -312.5 78.5t-84.5 261.5h177q-10 -103 44 -152.5t174 -49.5q208 0 208 122q0 59 -54 96.5t-214 82.5q-169 48 -245.5 118.5t-76.5 178.5q0 118 96 188t296 70q194 0 286.5 -84t85.5 -222h-174q3 78 -46.5 124t-159.5 46q-103 0 -151.5 -32.5t-48.5 -87.5
q0 -53 60.5 -89.5t218.5 -80.5q170 -48 241.5 -116.5t71.5 -185.5q0 -127 -95.5 -196.5t-296.5 -69.5z" />
    <glyph glyph-name="t" unicode="t" horiz-adv-x="652" 
d="M504 145h115v-145h-152q-164 0 -233.5 65t-69.5 220v553h-127v135h127v265h195v-265h248v-135h-248v-543q0 -82 32.5 -116t112.5 -34z" />
    <glyph glyph-name="u" unicode="u" horiz-adv-x="1077" 
d="M753 394v579h195v-973h-195v101q-92 -112 -275 -112q-363 0 -363 389v595h194v-593q0 -121 55.5 -183.5t164.5 -62.5q224 0 224 260z" />
    <glyph glyph-name="v" unicode="v" horiz-adv-x="976" 
d="M580 0h-184l-371 973h210l253 -750l253 750h210z" />
    <glyph glyph-name="w" unicode="w" horiz-adv-x="1505" 
d="M1066 223l195 750h210l-302 -973h-198l-218 727l-219 -727h-198l-302 973h212l193 -750l222 750h183z" />
    <glyph glyph-name="x" unicode="x" horiz-adv-x="939" 
d="M584 516l339 -516h-216l-237 389l-238 -389h-216l343 516l-304 457h216l199 -324l199 324h215z" />
    <glyph glyph-name="y" unicode="y" horiz-adv-x="939" 
d="M463 279l264 694h193l-524 -1327h-182l157 400l-352 927h204z" />
    <glyph glyph-name="z" unicode="z" horiz-adv-x="855" 
d="M801 0h-751l489 828h-472v145h738l-492 -828h488v-145z" />
    <glyph glyph-name="braceleft" unicode="{" horiz-adv-x="643" 
d="M614 1277h-62q-73 0 -102 -32.5t-29 -110.5v-340q0 -223 -177 -244v-9q177 -21 177 -247v-336q0 -79 29 -112t102 -33h62v-108h-91q-141 0 -198.5 61.5t-57.5 189.5v331q0 118 -46 154.5t-170 36.5v134q123 0 169.5 38t46.5 155v330q0 128 57.5 189t198.5 61h91v-108z
" />
    <glyph glyph-name="bar" unicode="|" horiz-adv-x="472" 
d="M143 -354v1680h186v-1680h-186z" />
    <glyph glyph-name="braceright" unicode="}" horiz-adv-x="643" 
d="M92 1277h-62v108h90q141 0 199 -61t58 -189v-330q0 -117 46 -155t169 -38v-134q-124 0 -169.5 -36.5t-45.5 -154.5v-331q0 -128 -58 -189.5t-199 -61.5h-90v108h62q73 0 102 33t29 112v336q0 225 177 247v9q-177 22 -177 244v340q0 78 -29 110.5t-102 32.5z" />
    <glyph glyph-name="asciitilde" unicode="~" horiz-adv-x="714" 
d="M637 628v-152q-68 -71 -154 -71q-40 0 -75 18.5t-56 40t-53 40t-67 18.5q-82 0 -154 -78v150q72 73 154 73q40 0 75 -18.5t56 -40t53 -40t67 -18.5q85 0 154 78z" />
    <glyph glyph-name="uni00A0" unicode="&#xa0;" horiz-adv-x="516" 
 />
    <glyph glyph-name="exclamdown" unicode="&#xa1;" horiz-adv-x="493" 
d="M347 973v-228h-204v228h204zM348 334v-599h-205v599l25 276h157z" />
    <glyph glyph-name="cent" unicode="&#xa2;" horiz-adv-x="988" 
d="M497 264q99 0 156.5 56t69.5 159h197q-14 -147 -97.5 -237.5t-230.5 -112.5v-129h-145v124q-376 29 -376 493q0 468 376 497v124h145v-129q146 -21 230 -111t98 -238h-197q-14 104 -71 159t-155 55q-117 0 -173.5 -86.5t-56.5 -270.5q0 -181 56.5 -267t173.5 -86z" />
    <glyph glyph-name="sterling" unicode="&#xa3;" horiz-adv-x="1004" 
d="M877 212l69 -143q-106 -57 -194 -71t-207 6q-115 21 -214 18t-193 -33l-39 158q30 18 52.5 40.5t45.5 65t32.5 114t2.5 167.5h-159v136h143l-18 163q-23 217 70 311t291 94q176 0 258.5 -86.5t82.5 -272.5h-182q0 214 -170 214q-93 0 -134.5 -59t-26.5 -201l18 -163h271
v-136h-257q14 -263 -102 -377q99 26 258 4q98 -14 161 -3t141 54z" />
    <glyph glyph-name="currency" unicode="&#xa4;" horiz-adv-x="1022" 
d="M854 637q0 -101 -53 -184l150 -151l-104 -104l-148 150q-82 -54 -188 -54q-105 0 -187 54l-151 -150l-104 104l152 151q-53 83 -53 184t53 184l-152 150l104 104l151 -150q83 55 187 55q105 0 188 -55l148 150l104 -104l-150 -150q53 -83 53 -184zM511 417q91 0 155 64
t64 156q0 91 -64 155t-155 64t-155 -64t-64 -155q0 -92 64 -156t155 -64z" />
    <glyph glyph-name="yen" unicode="&#xa5;" horiz-adv-x="1092" 
d="M845 1238h220l-370 -651h193v-120h-239v-112h239v-120h-239v-235h-205v235h-209v120h209v112h-209v120h163l-370 651h218l300 -557z" />
    <glyph glyph-name="brokenbar" unicode="&#xa6;" horiz-adv-x="472" 
d="M329 688h-186v638h186v-638zM329 -354h-186v639h186v-639z" />
    <glyph glyph-name="section" unicode="&#xa7;" horiz-adv-x="843" 
d="M555 136q108 -36 159.5 -108t51.5 -187q0 -145 -89 -214t-267 -69q-167 0 -252.5 89t-77.5 272h164q-7 -116 40.5 -176.5t136.5 -60.5q88 0 133.5 41.5t45.5 122.5q0 88 -54.5 144.5t-156.5 73.5q-170 48 -249.5 142t-79.5 236q0 138 56 213.5t172 92.5q-106 36 -157 108
t-51 187q0 145 87.5 214t265.5 69q346 0 333 -360h-166q8 116 -40 176.5t-137 60.5q-88 0 -133.5 -42t-45.5 -123q0 -88 55 -144t157 -73q327 -93 327 -379q0 -138 -55.5 -213.5t-172.5 -92.5zM414 214q194 0 194 228t-178 228q-193 0 -193 -228t177 -228z" />
    <glyph glyph-name="dieresis" unicode="&#xa8;" horiz-adv-x="847" 
d="M251 1065q-33 0 -54.5 21.5t-21.5 55.5t21.5 56t54.5 22q35 0 56.5 -22t21.5 -56t-21.5 -55.5t-56.5 -21.5zM559 1065q-33 0 -55.5 21.5t-22.5 55.5t22.5 56t55.5 22q35 0 56.5 -22t21.5 -56t-21.5 -55.5t-56.5 -21.5z" />
    <glyph glyph-name="copyright" unicode="&#xa9;" horiz-adv-x="1423" 
d="M711 -9q-173 0 -316.5 82t-226.5 226t-83 318t83 318t226.5 226t316.5 82q130 0 246.5 -48.5t200 -131.5t132.5 -199.5t49 -246.5t-49 -246.5t-132.5 -199.5t-200 -131.5t-246.5 -48.5zM711 110q140 0 256.5 67.5t183 183.5t66.5 256q0 213 -146.5 360.5t-359.5 147.5
q-139 0 -255 -67.5t-182.5 -184.5t-66.5 -256t66.5 -255.5t182.5 -184t255 -67.5zM890 513l97 -55q-31 -72 -105.5 -115.5t-163.5 -43.5q-138 1 -223.5 89.5t-85.5 228.5q0 138 85.5 227t223.5 90q88 2 163 -42.5t106 -118.5l-97 -57q-23 45 -70 73t-102 28
q-86 0 -139.5 -56t-53.5 -147q0 -90 53.5 -146t139.5 -56q56 0 103.5 28t68.5 73z" />
    <glyph glyph-name="ordfeminine" unicode="&#xaa;" horiz-adv-x="682" 
d="M364 1243q134 0 192 -57.5t58 -200.5v-467h-140v99q-70 -104 -216 -104q-105 0 -166.5 57t-61.5 155q0 256 444 269q-3 82 -35 114.5t-105 30.5q-102 0 -238 -42l-25 93q159 53 293 53zM306 624q70 0 119 44t49 137v95q-88 -4 -149 -18.5t-93.5 -37t-46 -47.5t-13.5 -56
q0 -54 34 -86t100 -31zM608 371h-558v73h558v-73z" />
    <glyph glyph-name="guillemotleft" unicode="&#xab;" horiz-adv-x="901" 
d="M446 110l-336 378l336 379l97 -80l-265 -299l265 -299zM785 110l-336 378l336 379l98 -80l-266 -299l266 -299z" />
    <glyph glyph-name="logicalnot" unicode="&#xac;" horiz-adv-x="710" 
d="M78 463v145h555v-385h-159v240h-396z" />
    <glyph glyph-name="uni00AD" unicode="&#xad;" horiz-adv-x="710" 
d="M78 463v145h555v-145h-555z" />
    <glyph glyph-name="registered" unicode="&#xae;" horiz-adv-x="1423" 
d="M711 1243q130 0 246.5 -48.5t200 -131.5t132.5 -199.5t49 -246.5t-49 -246.5t-132.5 -199.5t-200 -131.5t-246.5 -48.5q-173 0 -316.5 82t-226.5 226t-83 318t83 318t226.5 226t316.5 82zM711 110q140 0 256.5 67.5t183 183.5t66.5 256q0 213 -146.5 360.5t-359.5 147.5
q-139 0 -255 -67.5t-182.5 -184.5t-66.5 -256t66.5 -255.5t182.5 -184t255 -67.5zM943 752q0 -149 -126 -175l140 -255h-103l-129 242h-97v-242h-105v612h214q103 0 154.5 -47.5t51.5 -134.5zM727 847h-99v-198h99q115 0 115 99t-115 99z" />
    <glyph glyph-name="macron" unicode="&#xaf;" horiz-adv-x="801" 
d="M585 1084h-394v103h394v-103z" />
    <glyph glyph-name="degree" unicode="&#xb0;" horiz-adv-x="532" 
d="M267 847q-90 0 -146 57t-56 147q0 89 56 144t146 55q89 0 144.5 -55.5t55.5 -143.5q0 -90 -56 -147t-144 -57zM267 953q43 0 69.5 27t26.5 71q0 41 -26.5 67t-69.5 26t-69 -25.5t-26 -67.5q0 -44 26 -71t69 -27z" />
    <glyph glyph-name="plusminus" unicode="&#xb1;" horiz-adv-x="797" 
d="M467 1074v-248h248v-124h-248v-247h-124v247h-247v124h247v248h124zM704 216h-612v129h612v-129z" />
    <glyph glyph-name="uni00B2" unicode="&#xb2;" horiz-adv-x="557" 
d="M414 828l-158 -198h257v-103h-462l246 338q80 110 80 182q0 99 -105 99q-119 0 -111 -164h-117q-11 135 52.5 199t179.5 64q106 0 164.5 -52t58.5 -148q0 -103 -85 -217z" />
    <glyph glyph-name="uni00B3" unicode="&#xb3;" horiz-adv-x="581" 
d="M407 897q61 -14 95 -60.5t34 -118.5q0 -98 -63 -150t-179 -52q-117 0 -182 60t-57 179h118q-4 -71 29 -107t95 -36q59 0 89.5 29.5t30.5 83.5q0 119 -141 119h-39v88h32q127 0 127 111q0 103 -109 103q-57 0 -85.5 -36t-24.5 -100h-119q-8 113 54.5 173t172.5 60
q113 0 170.5 -49.5t57.5 -139.5q0 -124 -106 -157z" />
    <glyph glyph-name="acute" unicode="&#xb4;" horiz-adv-x="868" 
d="M269 1061l148 214h197l-202 -214h-143z" />
    <glyph glyph-name="uni00B5" unicode="&#xb5;" horiz-adv-x="1135" 
d="M812 412v561h194v-973h-194v122q-80 -126 -246 -126q-163 0 -242 121v-471h-195v1327h195v-561q0 -126 66 -198.5t176 -72.5t178 72.5t68 198.5z" />
    <glyph glyph-name="paragraph" unicode="&#xb6;" horiz-adv-x="1068" 
d="M566 -2h-159v626q-167 3 -253.5 74t-86.5 234q0 165 86.5 235.5t253.5 70.5h615v-154h-101v-1086h-159v1086h-196v-1086z" />
    <glyph glyph-name="periodcentered" unicode="&#xb7;" horiz-adv-x="390" 
d="M90 421v235h209v-235h-209z" />
    <glyph glyph-name="cedilla" unicode="&#xb8;" horiz-adv-x="774" 
d="M407 7l-27 -92q87 1 130.5 -30.5t43.5 -91.5q0 -58 -45.5 -92.5t-135.5 -34.5q-92 0 -186 30l22 72q78 -21 152 -21q92 0 92 51q0 32 -34.5 44.5t-131.5 8.5l35 168h85v-12z" />
    <glyph glyph-name="uni00B9" unicode="&#xb9;" horiz-adv-x="405" 
d="M279 1238v-607h94v-102h-318v102h102v414h-95v92q64 0 88 20q24 22 30 81h99z" />
    <glyph glyph-name="ordmasculine" unicode="&#xba;" horiz-adv-x="741" 
d="M370 508q-328 0 -328 369q0 370 328 370q329 0 329 -370q0 -369 -329 -369zM370 612q94 0 139 65.5t45 201.5q0 134 -45 198.5t-139 64.5q-93 0 -138 -64.5t-45 -198.5q0 -135 45 -201t138 -66zM73 371v73h581v-73h-581z" />
    <glyph glyph-name="guillemotright" unicode="&#xbb;" horiz-adv-x="901" 
d="M453 488l-336 -378l-98 79l266 299l-266 299l98 80zM792 488l-336 -378l-97 79l265 299l-265 299l97 80z" />
    <glyph glyph-name="onequarter" unicode="&#xbc;" horiz-adv-x="1156" 
d="M373 529h-316v102h102v414h-95v92q64 0 88 20q24 22 30 81h99v-607h92v-102zM62 0l870 1238h127l-870 -1238h-127zM1066 233h69v-97h-69v-136h-116v136h-345v50l228 523h126l-204 -476h195v174h116v-174z" />
    <glyph glyph-name="onehalf" unicode="&#xbd;" horiz-adv-x="1237" 
d="M377 531h-319v102h103v416h-94v90q66 0 87 19q24 20 30 82h99v-607h94v-102zM62 0l870 1238h127l-870 -1238h-127zM1095 301l-158 -198h257v-103h-462l244 338q82 109 82 182q0 99 -105 99q-119 0 -111 -164h-117q-11 135 52.5 199t179.5 64q106 0 164.5 -52t58.5 -148
q0 -103 -85 -217z" />
    <glyph glyph-name="threequarters" unicode="&#xbe;" horiz-adv-x="1414" 
d="M536 718q0 -98 -63 -150t-179 -52q-117 0 -182 60t-57 179h118q-4 -71 29 -107t95 -36q59 0 89.5 29.5t30.5 83.5q0 119 -141 119h-39v88h32q127 0 127 111q0 103 -109 103q-57 0 -85.5 -36t-24.5 -100h-119q-8 113 54.5 173t172.5 60q113 0 170.5 -49.5t57.5 -139.5
q0 -124 -106 -157q61 -14 95 -60.5t34 -118.5zM256 0l872 1238h128l-872 -1238h-128zM1325 233h69v-97h-69v-136h-117v136h-345v50l228 523h126l-202 -476h193v174h117v-174z" />
    <glyph glyph-name="questiondown" unicode="&#xbf;" horiz-adv-x="810" 
d="M516 973v-228h-203v228h203zM37 23q0 61 16 111t41 84t55.5 63t61.5 56t56 55.5t41 68.5t16 89v60h182v-76q0 -63 -20.5 -114.5t-50.5 -83.5t-66 -65.5t-66 -62t-50.5 -71t-20.5 -93.5q0 -87 45.5 -129t138.5 -42q99 0 145 44.5t46 144.5v55h194v-76q0 -159 -95 -235.5
t-290 -76.5q-379 0 -379 294z" />
    <glyph glyph-name="Agrave" unicode="&#xc0;" horiz-adv-x="1119" 
d="M515 1540l146 -214h-143l-200 214h197zM1116 0h-223l-95 295h-476l-96 -295h-222l456 1238h200zM561 1028l-190 -582h377z" />
    <glyph glyph-name="Aacute" unicode="&#xc1;" horiz-adv-x="1119" 
d="M608 1540h197l-202 -214h-143zM1116 0h-223l-95 295h-476l-96 -295h-222l456 1238h200zM561 1028l-190 -582h377z" />
    <glyph glyph-name="Acircumflex" unicode="&#xc2;" horiz-adv-x="1119" 
d="M688 1307l-126 134l-129 -134l-83 78l212 194l211 -194zM1116 0h-223l-95 295h-476l-96 -295h-222l456 1238h200zM561 1028l-190 -582h377z" />
    <glyph glyph-name="Atilde" unicode="&#xc3;" horiz-adv-x="1119" 
d="M481 1383q-46 0 -76 -65l-69 46q20 52 56.5 85t85.5 33q35 0 66 -19t56 -38t47 -19q25 0 41.5 16.5t33.5 47.5l69 -46q-50 -117 -137 -117q-37 0 -68 19t-56.5 38t-48.5 19zM1116 0h-223l-95 295h-476l-96 -295h-222l456 1238h200zM561 1028l-190 -582h377z" />
    <glyph glyph-name="Adieresis" unicode="&#xc4;" horiz-adv-x="1119" 
d="M407 1330q-33 0 -54.5 22t-21.5 56t21.5 56t54.5 22q35 0 56.5 -22t21.5 -56t-21.5 -56t-56.5 -22zM715 1330q-33 0 -55.5 22t-22.5 56t22.5 56t55.5 22q34 0 55.5 -21.5t21.5 -56.5t-21.5 -56.5t-55.5 -21.5zM1116 0h-223l-95 295h-476l-96 -295h-222l456 1238h200z
M561 1028l-190 -582h377z" />
    <glyph glyph-name="Aring" unicode="&#xc5;" horiz-adv-x="1119" 
d="M561 1296q-70 0 -115 41.5t-45 109.5q0 67 45 107.5t115 40.5t114.5 -40.5t44.5 -107.5q0 -68 -44.5 -109.5t-114.5 -41.5zM561 1521q-33 0 -55.5 -20.5t-22.5 -53.5q0 -35 22 -55.5t56 -20.5t55.5 20.5t21.5 55.5q0 33 -22 53.5t-55 20.5zM1116 0h-223l-95 295h-476
l-96 -295h-222l456 1238h200zM561 1028l-190 -582h377z" />
    <glyph glyph-name="AE" unicode="&#xc6;" horiz-adv-x="1715" 
d="M980 566v-402h659v-164h-864v288h-418l-154 -288h-230l692 1238h960v-164h-645v-347h575v-161h-575zM775 1072l-340 -639h340v639z" />
    <glyph glyph-name="Ccedilla" unicode="&#xc7;" horiz-adv-x="1192" 
d="M601 145q150 0 223 75.5t73 232.5h205q0 -229 -117 -344t-359 -120l-21 -74q87 1 130 -30.5t43 -91.5q0 -58 -45 -92.5t-135 -34.5q-92 0 -186 30l21 72q78 -21 152 -21q92 0 92 51q0 32 -34.5 44.5t-131.5 8.5l30 140q-227 14 -334.5 137t-107.5 376v233q0 268 122 390
t380 122q255 0 378 -113.5t123 -346.5h-205q0 155 -73 230.5t-223 75.5q-151 0 -224 -80.5t-73 -257.5v-272q0 -179 73 -259.5t224 -80.5z" />
    <glyph glyph-name="Egrave" unicode="&#xc8;" horiz-adv-x="1096" 
d="M525 1539l147 -214h-143l-200 214h196zM348 566v-402h660v-164h-865v1238h851v-164h-646v-347h577v-161h-577z" />
    <glyph glyph-name="Eacute" unicode="&#xc9;" horiz-adv-x="1096" 
d="M621 1539h196l-202 -214h-143zM348 566v-402h660v-164h-865v1238h851v-164h-646v-347h577v-161h-577z" />
    <glyph glyph-name="Ecircumflex" unicode="&#xca;" horiz-adv-x="1096" 
d="M699 1305l-126 135l-129 -135l-83 78l212 195l210 -195zM348 566v-402h660v-164h-865v1238h851v-164h-646v-347h577v-161h-577z" />
    <glyph glyph-name="Edieresis" unicode="&#xcb;" horiz-adv-x="1096" 
d="M417 1328q-33 0 -54.5 22t-21.5 56t21.5 56t54.5 22q35 0 56.5 -22t21.5 -56t-21.5 -56t-56.5 -22zM725 1328q-33 0 -55.5 22t-22.5 56t22.5 56t55.5 22q35 0 56.5 -22t21.5 -56t-21.5 -56t-56.5 -22zM348 566v-402h660v-164h-865v1238h851v-164h-646v-347h577v-161h-577
z" />
    <glyph glyph-name="Igrave" unicode="&#xcc;" horiz-adv-x="491" 
d="M4 1540h196l147 -214h-144zM348 0h-205v1238h205v-1238z" />
    <glyph glyph-name="Iacute" unicode="&#xcd;" horiz-adv-x="491" 
d="M145 1326l149 214h196l-202 -214h-143zM348 0h-205v1238h205v-1238z" />
    <glyph glyph-name="Icircumflex" unicode="&#xce;" horiz-adv-x="491" 
d="M35 1385l213 194l210 -194l-85 -78l-125 134l-130 -134zM348 0h-205v1238h205v-1238z" />
    <glyph glyph-name="Idieresis" unicode="&#xcf;" horiz-adv-x="491" 
d="M92 1330q-33 0 -54.5 22t-21.5 56t21.5 56t54.5 22q34 0 56 -22t22 -56t-22 -56t-56 -22zM400 1330q-33 0 -55.5 22t-22.5 56t22.5 56t55.5 22q34 0 56 -22t22 -56t-22 -56t-56 -22zM348 0h-205v1238h205v-1238z" />
    <glyph glyph-name="Eth" unicode="&#xd0;" horiz-adv-x="1237" 
d="M166 1238h437q106 0 182 -10.5t139.5 -37.5t103.5 -71.5t67.5 -114.5t39 -163.5t11.5 -221.5t-11.5 -221.5t-39 -163.5t-67.5 -114.5t-103.5 -71.5t-139.5 -37.5t-182 -10.5h-437v575h-125v136h125v527zM371 164h221q72 0 120.5 6.5t90 25.5t66 50.5t42 83.5t24 121
t6.5 168t-6.5 168t-24 121t-42 83.5t-66 50.5t-90 25.5t-120.5 6.5h-221v-363h239v-136h-239v-411z" />
    <glyph glyph-name="Ntilde" unicode="&#xd1;" horiz-adv-x="1287" 
d="M584 1383q-46 0 -76 -65l-69 46q20 52 56 85t85 33q35 0 66 -19t56.5 -38t47.5 -19q17 0 32 10.5t22.5 21.5t19.5 32l69 -46q-50 -117 -136 -117q-37 0 -68 19t-56.5 38t-48.5 19zM955 221v1017h189v-1238h-256l-554 1015v-1015h-191v1238h258z" />
    <glyph glyph-name="Ograve" unicode="&#xd2;" horiz-adv-x="1213" 
d="M364 1540h197l146 -214h-143zM608 -11q-263 0 -386 122.5t-123 392.5v233q0 268 123 390t386 122q260 0 383 -122t123 -390v-233q0 -270 -123 -392.5t-383 -122.5zM608 143q154 0 227.5 81.5t73.5 260.5v272q0 177 -73.5 257.5t-227.5 80.5q-155 0 -229.5 -80.5
t-74.5 -257.5v-272q0 -179 74.5 -260.5t229.5 -81.5z" />
    <glyph glyph-name="Oacute" unicode="&#xd3;" horiz-adv-x="1213" 
d="M508 1326l148 214h196l-201 -214h-143zM608 -11q-263 0 -386 122.5t-123 392.5v233q0 268 123 390t386 122q260 0 383 -122t123 -390v-233q0 -270 -123 -392.5t-383 -122.5zM608 143q154 0 227.5 81.5t73.5 260.5v272q0 177 -73.5 257.5t-227.5 80.5q-155 0 -229.5 -80.5
t-74.5 -257.5v-272q0 -179 74.5 -260.5t229.5 -81.5z" />
    <glyph glyph-name="Ocircumflex" unicode="&#xd4;" horiz-adv-x="1213" 
d="M396 1385l212 194l211 -194l-85 -78l-126 134l-129 -134zM608 -11q-263 0 -386 122.5t-123 392.5v233q0 268 123 390t386 122q260 0 383 -122t123 -390v-233q0 -270 -123 -392.5t-383 -122.5zM608 143q154 0 227.5 81.5t73.5 260.5v272q0 177 -73.5 257.5t-227.5 80.5
q-155 0 -229.5 -80.5t-74.5 -257.5v-272q0 -179 74.5 -260.5t229.5 -81.5z" />
    <glyph glyph-name="Otilde" unicode="&#xd5;" horiz-adv-x="1213" 
d="M451 1318l-69 46q20 52 56 85t85 33q35 0 66 -19t56.5 -38t47.5 -19q25 0 41.5 16.5t33.5 47.5l69 -46q-50 -117 -137 -117q-37 0 -68 19t-56.5 38t-48.5 19q-46 0 -76 -65zM608 -11q-263 0 -386 122.5t-123 392.5v233q0 268 123 390t386 122q260 0 383 -122t123 -390
v-233q0 -270 -123 -392.5t-383 -122.5zM608 143q154 0 227.5 81.5t73.5 260.5v272q0 177 -73.5 257.5t-227.5 80.5q-155 0 -229.5 -80.5t-74.5 -257.5v-272q0 -179 74.5 -260.5t229.5 -81.5z" />
    <glyph glyph-name="Odieresis" unicode="&#xd6;" horiz-adv-x="1213" 
d="M453 1330q-33 0 -54.5 22t-21.5 56t21.5 56t54.5 22q35 0 56.5 -22t21.5 -56t-21.5 -56t-56.5 -22zM760 1330q-33 0 -55 22t-22 56t22 56t55 22q34 0 56 -22t22 -56t-22 -56t-56 -22zM608 -11q-263 0 -386 122.5t-123 392.5v233q0 268 123 390t386 122q260 0 383 -122
t123 -390v-233q0 -270 -123 -392.5t-383 -122.5zM608 143q154 0 227.5 81.5t73.5 260.5v272q0 177 -73.5 257.5t-227.5 80.5q-155 0 -229.5 -80.5t-74.5 -257.5v-272q0 -179 74.5 -260.5t229.5 -81.5z" />
    <glyph glyph-name="multiply" unicode="&#xd7;" horiz-adv-x="769" 
d="M575 815l94 -93l-191 -191l191 -191l-94 -94l-189 191l-191 -191l-94 94l191 191l-191 191l94 93l191 -191z" />
    <glyph glyph-name="Oslash" unicode="&#xd8;" horiz-adv-x="1213" 
d="M1109 1204l-85 -115q90 -122 90 -352v-233q0 -270 -123 -392.5t-383 -122.5q-215 0 -336 82l-79 -106l-89 65l87 119q-92 120 -92 355v233q0 268 123 390t386 122q215 0 336 -82l75 101zM304 757v-272q0 -85 20 -158l509 690q-74 78 -225 78q-155 0 -229.5 -80.5
t-74.5 -257.5zM909 485v272q0 89 -18 152l-509 -688q75 -78 226 -78q154 0 227.5 81.5t73.5 260.5z" />
    <glyph glyph-name="Ugrave" unicode="&#xd9;" horiz-adv-x="1245" 
d="M382 1540h196l147 -214h-143zM624 -11q-250 0 -370 109.5t-120 345.5v794h206v-794q0 -161 66.5 -231t217.5 -70q149 0 216 70.5t67 230.5v794h205v-794q0 -236 -119.5 -345.5t-368.5 -109.5z" />
    <glyph glyph-name="Uacute" unicode="&#xda;" horiz-adv-x="1245" 
d="M523 1326l149 214h196l-201 -214h-144zM624 -11q-250 0 -370 109.5t-120 345.5v794h206v-794q0 -161 66.5 -231t217.5 -70q149 0 216 70.5t67 230.5v794h205v-794q0 -236 -119.5 -345.5t-368.5 -109.5z" />
    <glyph glyph-name="Ucircumflex" unicode="&#xdb;" horiz-adv-x="1245" 
d="M412 1385l212 194l211 -194l-85 -78l-126 134l-129 -134zM624 -11q-250 0 -370 109.5t-120 345.5v794h206v-794q0 -161 66.5 -231t217.5 -70q149 0 216 70.5t67 230.5v794h205v-794q0 -236 -119.5 -345.5t-368.5 -109.5z" />
    <glyph glyph-name="Udieresis" unicode="&#xdc;" horiz-adv-x="1245" 
d="M469 1330q-33 0 -54.5 22t-21.5 56t21.5 56t54.5 22q34 0 55.5 -21.5t21.5 -56.5t-21.5 -56.5t-55.5 -21.5zM776 1330q-33 0 -55 22t-22 56t22 56t55 22q34 0 56 -22t22 -56t-22 -56t-56 -22zM624 -11q-250 0 -370 109.5t-120 345.5v794h206v-794q0 -161 66.5 -231
t217.5 -70q149 0 216 70.5t67 230.5v794h205v-794q0 -236 -119.5 -345.5t-368.5 -109.5z" />
    <glyph glyph-name="Yacute" unicode="&#xdd;" horiz-adv-x="1092" 
d="M594 1540h197l-202 -214h-143zM546 681l299 557h220l-416 -730v-508h-205v508l-416 730h218z" />
    <glyph glyph-name="Thorn" unicode="&#xde;" horiz-adv-x="1096" 
d="M348 1036h255q215 0 312.5 -100t97.5 -317t-97.5 -317t-312.5 -100h-255v-202h-205v1238h205v-202zM348 361h202q138 0 198 61.5t60 196.5t-60 196.5t-198 61.5h-202v-516z" />
    <glyph glyph-name="germandbls" unicode="&#xdf;" horiz-adv-x="1045" 
d="M474 0v145h113q104 0 154 47t50 148q0 56 -26.5 104.5t-64.5 83t-75.5 66.5t-64 71t-26.5 81q0 35 14 66t34 54.5t39.5 47.5t33.5 56.5t14 71.5q0 72 -41.5 109t-121.5 37q-99 0 -145 -60.5t-46 -181.5v-946h-195v953q0 198 91.5 288.5t297.5 90.5q161 0 254 -73t93 -191
q0 -50 -14 -90.5t-33.5 -67t-39 -49t-33.5 -47t-14 -50.5t27.5 -57t67 -65.5t79 -77t67 -108t27.5 -143.5q0 -161 -90 -237t-253 -76h-173z" />
    <glyph glyph-name="agrave" unicode="&#xe0;" horiz-adv-x="955" 
d="M424 1275l147 -214h-143l-200 214h196zM502 982q181 0 259.5 -79t78.5 -272v-631h-187v136q-96 -145 -294 -145q-142 0 -225 77.5t-83 210.5q0 166 146 261t456 104q-4 109 -48 153.5t-143 42.5q-137 -3 -324 -60l-32 129q217 73 396 73zM423 143q45 0 84.5 13.5t73 41
t53 76t19.5 113.5v129q-119 -6 -202.5 -25t-127.5 -49t-63 -64t-19 -77q0 -73 46.5 -116t135.5 -42z" />
    <glyph glyph-name="aacute" unicode="&#xe1;" horiz-adv-x="955" 
d="M520 1275h196l-201 -214h-144zM502 982q181 0 259.5 -79t78.5 -272v-631h-187v136q-96 -145 -294 -145q-142 0 -225 77.5t-83 210.5q0 166 146 261t456 104q-4 109 -48 153.5t-143 42.5q-137 -3 -324 -60l-32 129q217 73 396 73zM423 143q45 0 84.5 13.5t73 41t53 76
t19.5 113.5v129q-119 -6 -202.5 -25t-127.5 -49t-63 -64t-19 -77q0 -73 46.5 -116t135.5 -42z" />
    <glyph glyph-name="acircumflex" unicode="&#xe2;" horiz-adv-x="955" 
d="M598 1042l-126 134l-129 -134l-83 78l212 194l211 -194zM502 982q181 0 259.5 -79t78.5 -272v-631h-187v136q-96 -145 -294 -145q-142 0 -225 77.5t-83 210.5q0 166 146 261t456 104q-4 109 -48 153.5t-143 42.5q-137 -3 -324 -60l-32 129q217 73 396 73zM423 143
q45 0 84.5 13.5t73 41t53 76t19.5 113.5v129q-119 -6 -202.5 -25t-127.5 -49t-63 -64t-19 -77q0 -73 46.5 -116t135.5 -42z" />
    <glyph glyph-name="atilde" unicode="&#xe3;" horiz-adv-x="955" 
d="M391 1118q-46 0 -76 -66l-69 46q21 53 56.5 86t84.5 33q35 0 66 -19t56.5 -38t47.5 -19q25 0 41 16t33 47l69 -46q-50 -116 -136 -116q-37 0 -68 19t-56.5 38t-48.5 19zM502 982q181 0 259.5 -79t78.5 -272v-631h-187v136q-96 -145 -294 -145q-142 0 -225 77.5t-83 210.5
q0 166 146 261t456 104q-4 109 -48 153.5t-143 42.5q-137 -3 -324 -60l-32 129q217 73 396 73zM423 143q45 0 84.5 13.5t73 41t53 76t19.5 113.5v129q-119 -6 -202.5 -25t-127.5 -49t-63 -64t-19 -77q0 -73 46.5 -116t135.5 -42z" />
    <glyph glyph-name="adieresis" unicode="&#xe4;" horiz-adv-x="955" 
d="M317 1065q-33 0 -54.5 21.5t-21.5 55.5t21.5 56t54.5 22q34 0 55.5 -21.5t21.5 -56.5q0 -34 -21 -55.5t-56 -21.5zM624 1065q-33 0 -55.5 21.5t-22.5 55.5t22.5 56t55.5 22q34 0 56 -22t22 -56t-21.5 -55.5t-56.5 -21.5zM502 982q181 0 259.5 -79t78.5 -272v-631h-187
v136q-96 -145 -294 -145q-142 0 -225 77.5t-83 210.5q0 166 146 261t456 104q-4 109 -48 153.5t-143 42.5q-137 -3 -324 -60l-32 129q217 73 396 73zM423 143q45 0 84.5 13.5t73 41t53 76t19.5 113.5v129q-119 -6 -202.5 -25t-127.5 -49t-63 -64t-19 -77q0 -73 46.5 -116
t135.5 -42z" />
    <glyph glyph-name="aring" unicode="&#xe5;" horiz-adv-x="955" 
d="M472 1031q-70 0 -114.5 41t-44.5 109q0 67 44.5 108t114.5 41t114.5 -41t44.5 -108q0 -68 -44.5 -109t-114.5 -41zM472 1256q-33 0 -55.5 -21t-22.5 -54q0 -35 22 -55.5t56 -20.5t56 20.5t22 55.5q0 33 -22.5 54t-55.5 21zM502 982q181 0 259.5 -79t78.5 -272v-631h-187
v136q-96 -145 -294 -145q-142 0 -225 77.5t-83 210.5q0 166 146 261t456 104q-4 109 -48 153.5t-143 42.5q-137 -3 -324 -60l-32 129q217 73 396 73zM423 143q45 0 84.5 13.5t73 41t53 76t19.5 113.5v129q-119 -6 -202.5 -25t-127.5 -49t-63 -64t-19 -77q0 -73 46.5 -116
t135.5 -42z" />
    <glyph glyph-name="ae" unicode="&#xe6;" horiz-adv-x="1558" 
d="M1061 983q442 0 426 -553h-656q8 -154 64.5 -226.5t165.5 -72.5q94 0 147.5 48t70.5 127h194q-23 -146 -122 -232t-267 -86q-256 0 -343 201q-41 -93 -135.5 -144.5t-225.5 -51.5q-160 0 -248 76.5t-88 209.5q0 166 146 261t456 104q-4 109 -48 153.5t-143 42.5
q-137 -3 -322 -60l-34 129q215 71 356 71q124 0 197.5 -35t107.5 -114q92 152 301 152zM1061 842q-108 0 -164.5 -70.5t-65.5 -221.5h462q-8 154 -67 223t-165 69zM417 143q44 0 83.5 13.5t73 41t53 76.5t19.5 113v129q-118 -6 -201.5 -25t-127.5 -49t-63 -64t-19 -77
q0 -72 46 -115.5t136 -42.5z" />
    <glyph glyph-name="ccedilla" unicode="&#xe7;" horiz-adv-x="988" 
d="M497 131q99 0 156.5 56t69.5 160h197q-14 -158 -110 -250.5t-262 -105.5l-25 -87q87 1 130.5 -30.5t43.5 -91.5q0 -58 -45.5 -92.5t-135.5 -34.5q-91 0 -185 30l21 73q82 -22 152 -22q92 0 92 52q0 32 -34.5 44.5t-131.5 8.5l32 150q-391 18 -391 494q0 498 426 498
q189 0 298 -92.5t125 -262.5h-197q-14 104 -71 159t-155 55q-117 0 -173.5 -86.5t-56.5 -270.5q0 -181 56.5 -267.5t173.5 -86.5z" />
    <glyph glyph-name="egrave" unicode="&#xe8;" horiz-adv-x="1006" 
d="M453 1275l147 -214h-144l-200 214h197zM501 983q219 0 327.5 -137t98.5 -416h-658q8 -155 65.5 -228t164.5 -73q96 0 151 48.5t72 128.5h192q-25 -147 -128 -232.5t-285 -85.5q-213 0 -321.5 125t-108.5 373q0 246 109.5 371.5t320.5 125.5zM499 842q-105 0 -162.5 -69.5
t-67.5 -217.5h461q-15 287 -231 287z" />
    <glyph glyph-name="eacute" unicode="&#xe9;" horiz-adv-x="1006" 
d="M548 1275h197l-202 -214h-143zM501 983q219 0 327.5 -137t98.5 -416h-658q8 -155 65.5 -228t164.5 -73q96 0 151 48.5t72 128.5h192q-25 -147 -128 -232.5t-285 -85.5q-213 0 -321.5 125t-108.5 373q0 246 109.5 371.5t320.5 125.5zM499 842q-105 0 -162.5 -69.5
t-67.5 -217.5h461q-15 287 -231 287z" />
    <glyph glyph-name="ecircumflex" unicode="&#xea;" horiz-adv-x="1006" 
d="M626 1042l-125 134l-130 -134l-83 78l213 194l210 -194zM501 983q219 0 327.5 -137t98.5 -416h-658q8 -155 65.5 -228t164.5 -73q96 0 151 48.5t72 128.5h192q-25 -147 -128 -232.5t-285 -85.5q-213 0 -321.5 125t-108.5 373q0 246 109.5 371.5t320.5 125.5zM499 842
q-105 0 -162.5 -69.5t-67.5 -217.5h461q-15 287 -231 287z" />
    <glyph glyph-name="edieresis" unicode="&#xeb;" horiz-adv-x="1006" 
d="M345 1065q-33 0 -54.5 21.5t-21.5 55.5t21.5 56t54.5 22q35 0 56.5 -22t21.5 -56t-21.5 -55.5t-56.5 -21.5zM653 1065q-33 0 -55.5 21.5t-22.5 55.5t22.5 56t55.5 22q34 0 55.5 -21.5t21.5 -56.5q0 -34 -21 -55.5t-56 -21.5zM501 983q219 0 327.5 -137t98.5 -416h-658
q8 -155 65.5 -228t164.5 -73q96 0 151 48.5t72 128.5h192q-25 -147 -128 -232.5t-285 -85.5q-213 0 -321.5 125t-108.5 373q0 246 109.5 371.5t320.5 125.5zM499 842q-105 0 -162.5 -69.5t-67.5 -217.5h461q-15 287 -231 287z" />
    <glyph glyph-name="igrave" unicode="&#xec;" horiz-adv-x="463" 
d="M-11 1275h197l146 -214h-143zM129 973h205v-973h-205v973z" />
    <glyph glyph-name="iacute" unicode="&#xed;" horiz-adv-x="463" 
d="M131 1061l148 214h197l-202 -214h-143zM129 973h205v-973h-205v973z" />
    <glyph glyph-name="icircumflex" unicode="&#xee;" horiz-adv-x="463" 
d="M19 1120l213 194l210 -194l-85 -78l-125 134l-129 -134zM129 973h205v-973h-205v973z" />
    <glyph glyph-name="idieresis" unicode="&#xef;" horiz-adv-x="463" 
d="M76 1065q-33 0 -54.5 21.5t-21.5 55.5t21.5 56t54.5 22q34 0 56 -22t22 -56t-21.5 -55.5t-56.5 -21.5zM384 1065q-33 0 -55.5 21.5t-22.5 55.5t22.5 56t55.5 22q34 0 56 -22t22 -56t-21.5 -55.5t-56.5 -21.5zM129 973h205v-973h-205v973z" />
    <glyph glyph-name="eth" unicode="&#xf0;" horiz-adv-x="997" 
d="M640 1249l-113 -121q109 -71 189 -160t125 -184t65.5 -188.5t20.5 -190.5q0 -196 -116.5 -307.5t-309.5 -111.5t-310 108.5t-117 291.5t113 291t296 108q105 0 180 -44q-76 165 -244 274l-168 -177l-88 78l150 159q-97 47 -196 78l58 135q137 -42 248 -98l129 136z
M501 131q107 0 170 70t63 190q0 121 -63 191.5t-170 70.5q-106 0 -169 -71t-63 -191t63 -190t169 -70z" />
    <glyph glyph-name="ntilde" unicode="&#xf1;" horiz-adv-x="1078" 
d="M465 1127q-46 0 -76 -66l-69 46q20 52 56.5 85.5t85.5 33.5q35 0 66 -19t56 -38t47 -19q25 0 41.5 16.5t33.5 46.5l69 -46q-50 -116 -137 -116q-37 0 -68 19t-56.5 38t-48.5 19zM603 982q182 0 271.5 -102t89.5 -296v-584h-195v584q0 123 -55 188.5t-162 65.5
q-114 0 -170.5 -69t-56.5 -200h-1l1 -569h-196v973h195v-105q94 114 279 114z" />
    <glyph glyph-name="ograve" unicode="&#xf2;" horiz-adv-x="1027" 
d="M271 1286h196l147 -214h-144zM513 -14q-442 0 -442 499q0 500 442 500q444 0 444 -500q0 -499 -444 -499zM513 127q127 0 188 88.5t61 270.5t-61 270t-188 88q-126 0 -186 -88t-60 -270t60 -270.5t186 -88.5z" />
    <glyph glyph-name="oacute" unicode="&#xf3;" horiz-adv-x="1027" 
d="M412 1072l149 214h196l-202 -214h-143zM513 -14q-442 0 -442 499q0 500 442 500q444 0 444 -500q0 -499 -444 -499zM513 127q127 0 188 88.5t61 270.5t-61 270t-188 88q-126 0 -186 -88t-60 -270t60 -270.5t186 -88.5z" />
    <glyph glyph-name="ocircumflex" unicode="&#xf4;" horiz-adv-x="1027" 
d="M302 1130l213 195l210 -195l-85 -78l-125 135l-129 -135zM513 -14q-442 0 -442 499q0 500 442 500q444 0 444 -500q0 -499 -444 -499zM513 127q127 0 188 88.5t61 270.5t-61 270t-188 88q-126 0 -186 -88t-60 -270t60 -270.5t186 -88.5z" />
    <glyph glyph-name="otilde" unicode="&#xf5;" horiz-adv-x="1027" 
d="M357 1063l-69 46q20 52 56.5 85t85.5 33q35 0 66 -19t56.5 -38t47.5 -19q17 0 32 10.5t22.5 21.5t19.5 32l69 -46q-50 -117 -136 -117q-37 0 -68 19t-57 38t-49 19q-46 0 -76 -65zM513 -14q-442 0 -442 499q0 500 442 500q444 0 444 -500q0 -499 -444 -499zM513 127
q127 0 188 88.5t61 270.5t-61 270t-188 88q-126 0 -186 -88t-60 -270t60 -270.5t186 -88.5z" />
    <glyph glyph-name="odieresis" unicode="&#xf6;" horiz-adv-x="1027" 
d="M359 1075q-33 0 -54.5 22t-21.5 56t21.5 56t54.5 22q35 0 56.5 -21.5t21.5 -56.5t-21.5 -56.5t-56.5 -21.5zM667 1075q-33 0 -55.5 22t-22.5 56t22.5 56t55.5 22q35 0 56.5 -21.5t21.5 -56.5t-21.5 -56.5t-56.5 -21.5zM513 -14q-442 0 -442 499q0 500 442 500
q444 0 444 -500q0 -499 -444 -499zM513 127q127 0 188 88.5t61 270.5t-61 270t-188 88q-126 0 -186 -88t-60 -270t60 -270.5t186 -88.5z" />
    <glyph glyph-name="divide" unicode="&#xf7;" horiz-adv-x="986" 
d="M401 791v208h186v-208h-186zM78 463v145h835v-145h-835zM401 67v209h186v-209h-186z" />
    <glyph glyph-name="oslash" unicode="&#xf8;" horiz-adv-x="1027" 
d="M927 946l-73 -95q103 -124 103 -366q0 -499 -444 -499q-165 0 -272 72l-68 -88l-72 49l76 98q-106 127 -106 368q0 500 442 500q171 0 274 -72l65 84zM267 486q0 -125 30 -212l387 504q-62 66 -171 66q-126 0 -186 -88t-60 -270zM513 127q127 0 188 88.5t61 270.5
q0 122 -30 209l-387 -502q61 -66 168 -66z" />
    <glyph glyph-name="ugrave" unicode="&#xf9;" horiz-adv-x="1077" 
d="M486 1275l147 -214h-143l-200 214h196zM753 394v579h195v-973h-195v101q-92 -112 -275 -112q-363 0 -363 389v595h194v-593q0 -121 55.5 -183.5t164.5 -62.5q224 0 224 260z" />
    <glyph glyph-name="uacute" unicode="&#xfa;" horiz-adv-x="1077" 
d="M580 1275h196l-201 -214h-143zM753 394v579h195v-973h-195v101q-92 -112 -275 -112q-363 0 -363 389v595h194v-593q0 -121 55.5 -183.5t164.5 -62.5q224 0 224 260z" />
    <glyph glyph-name="ucircumflex" unicode="&#xfb;" horiz-adv-x="1077" 
d="M658 1042l-126 134l-129 -134l-83 78l212 194l211 -194zM753 394v579h195v-973h-195v101q-92 -112 -275 -112q-363 0 -363 389v595h194v-593q0 -121 55.5 -183.5t164.5 -62.5q224 0 224 260z" />
    <glyph glyph-name="udieresis" unicode="&#xfc;" horiz-adv-x="1077" 
d="M378 1065q-33 0 -54.5 21.5t-21.5 55.5t21.5 56t54.5 22q34 0 56 -22t22 -56t-21.5 -55.5t-56.5 -21.5zM686 1065q-33 0 -55.5 21.5t-22.5 55.5t22.5 56t55.5 22q34 0 56 -22t22 -56t-21.5 -55.5t-56.5 -21.5zM753 394v579h195v-973h-195v101q-92 -112 -275 -112
q-363 0 -363 389v595h194v-593q0 -121 55.5 -183.5t164.5 -62.5q224 0 224 260z" />
    <glyph glyph-name="yacute" unicode="&#xfd;" horiz-adv-x="939" 
d="M516 1275h197l-202 -214h-143zM463 279l264 694h193l-524 -1327h-182l157 400l-352 927h204z" />
    <glyph glyph-name="thorn" unicode="&#xfe;" horiz-adv-x="1077" 
d="M608 980q197 0 297.5 -127t100.5 -367t-100.5 -366.5t-297.5 -126.5q-193 0 -284 133v-481h-195v1681h195v-475q93 129 284 129zM562 129q248 0 248 357q0 358 -248 358q-245 0 -245 -358q0 -357 245 -357z" />
    <glyph glyph-name="ydieresis" unicode="&#xff;" horiz-adv-x="939" 
d="M315 1065q-33 0 -54.5 21.5t-21.5 55.5t21.5 56t54.5 22q35 0 56.5 -22t21.5 -56t-21.5 -55.5t-56.5 -21.5zM623 1065q-33 0 -55.5 21.5t-22.5 55.5t22.5 56t55.5 22q34 0 55.5 -21.5t21.5 -56.5q0 -34 -21 -55.5t-56 -21.5zM463 279l264 694h193l-524 -1327h-182
l157 400l-352 927h204z" />
    <glyph glyph-name="Amacron" unicode="&#x100;" horiz-adv-x="1119" 
d="M364 1452h395v-103h-395v103zM1116 0h-223l-95 295h-476l-96 -295h-222l456 1238h200zM561 1028l-190 -582h377z" />
    <glyph glyph-name="amacron" unicode="&#x101;" horiz-adv-x="955" 
d="M274 1187h395v-103h-395v103zM502 982q181 0 259.5 -79t78.5 -272v-631h-187v136q-96 -145 -294 -145q-142 0 -225 77.5t-83 210.5q0 166 146 261t456 104q-4 109 -48 153.5t-143 42.5q-137 -3 -324 -60l-32 129q217 73 396 73zM423 143q45 0 84.5 13.5t73 41t53 76
t19.5 113.5v129q-119 -6 -202.5 -25t-127.5 -49t-63 -64t-19 -77q0 -73 46.5 -116t135.5 -42z" />
    <glyph glyph-name="Abreve" unicode="&#x102;" horiz-adv-x="1119" 
d="M561 1311q-217 0 -223 221h111q1 -61 30.5 -91t81.5 -30q50 0 80 30.5t31 90.5h110q-3 -221 -221 -221zM1116 0h-223l-95 295h-476l-96 -295h-222l456 1238h200zM561 1028l-190 -582h377z" />
    <glyph glyph-name="abreve" unicode="&#x103;" horiz-adv-x="955" 
d="M470 1045q-216 0 -222 221h111q3 -120 111 -120q51 0 81 30t31 90h110q-3 -221 -222 -221zM502 982q181 0 259.5 -79t78.5 -272v-631h-187v136q-96 -145 -294 -145q-142 0 -225 77.5t-83 210.5q0 166 146 261t456 104q-4 109 -48 153.5t-143 42.5q-137 -3 -324 -60
l-32 129q217 73 396 73zM423 143q45 0 84.5 13.5t73 41t53 76t19.5 113.5v129q-119 -6 -202.5 -25t-127.5 -49t-63 -64t-19 -77q0 -73 46.5 -116t135.5 -42z" />
    <glyph glyph-name="Aogonek" unicode="&#x104;" horiz-adv-x="1119" 
d="M1120 -233l33 -75q-70 -40 -138 -40q-71 0 -115 40t-44 106q0 110 131 202h-94l-95 295h-476l-96 -295h-222l456 1238h200l456 -1238q-74 -43 -115 -92.5t-41 -93.5q0 -34 20.5 -54t55.5 -20q38 0 84 27zM561 1028l-190 -582h377z" />
    <glyph glyph-name="aogonek" unicode="&#x105;" horiz-adv-x="955" 
d="M842 -233l33 -75q-70 -40 -138 -40q-71 0 -115 40t-44 106q0 110 131 202h-56v136q-96 -145 -294 -145q-142 0 -225 77.5t-83 210.5q0 166 146 261t456 104q-4 109 -48 153.5t-143 42.5q-137 -3 -324 -60l-32 129q217 73 396 73q181 0 259.5 -79t78.5 -272v-631h-2
q-74 -42 -114.5 -92t-40.5 -94q0 -34 20.5 -54t55.5 -20q37 0 83 27zM423 143q45 0 84.5 13.5t73 41t53 76t19.5 113.5v129q-119 -6 -202.5 -25t-127.5 -49t-63 -64t-19 -77q0 -73 46.5 -116t135.5 -42z" />
    <glyph glyph-name="Cacute" unicode="&#x106;" horiz-adv-x="1192" 
d="M501 1326l148 214h196l-201 -214h-143zM601 -11q-258 0 -380 122.5t-122 392.5v233q0 268 122 390t380 122q255 0 378 -113.5t123 -346.5h-205q0 155 -73 230.5t-223 75.5q-151 0 -224 -80.5t-73 -257.5v-272q0 -179 73 -259.5t224 -80.5q150 0 223 75.5t73 232.5h205
q0 -234 -123 -349t-378 -115z" />
    <glyph glyph-name="cacute" unicode="&#x107;" horiz-adv-x="988" 
d="M396 1072l149 214h196l-202 -214h-143zM497 -11q-426 0 -426 496q0 498 426 498q189 0 298 -92.5t125 -262.5h-197q-14 104 -71 159t-155 55q-117 0 -173.5 -86.5t-56.5 -270.5q0 -181 56.5 -267.5t173.5 -86.5q99 0 156.5 56t69.5 160h197q-16 -171 -124.5 -264.5
t-298.5 -93.5z" />
    <glyph glyph-name="Ccircumflex" unicode="&#x108;" horiz-adv-x="1192" 
d="M391 1385l212 194l211 -194l-85 -78l-126 134l-129 -134zM601 -11q-258 0 -380 122.5t-122 392.5v233q0 268 122 390t380 122q255 0 378 -113.5t123 -346.5h-205q0 155 -73 230.5t-223 75.5q-151 0 -224 -80.5t-73 -257.5v-272q0 -179 73 -259.5t224 -80.5
q150 0 223 75.5t73 232.5h205q0 -234 -123 -349t-378 -115z" />
    <glyph glyph-name="ccircumflex" unicode="&#x109;" horiz-adv-x="988" 
d="M285 1130l212 195l210 -195l-84 -78l-126 135l-129 -135zM497 -11q-426 0 -426 496q0 498 426 498q189 0 298 -92.5t125 -262.5h-197q-14 104 -71 159t-155 55q-117 0 -173.5 -86.5t-56.5 -270.5q0 -181 56.5 -267.5t173.5 -86.5q99 0 156.5 56t69.5 160h197
q-16 -171 -124.5 -264.5t-298.5 -93.5z" />
    <glyph glyph-name="Cdotaccent" unicode="&#x10a;" horiz-adv-x="1192" 
d="M601 1330q-33 0 -55.5 23t-22.5 55q0 33 22.5 55.5t55.5 22.5t55.5 -22.5t22.5 -55.5q0 -32 -22.5 -55t-55.5 -23zM601 -11q-258 0 -380 122.5t-122 392.5v233q0 268 122 390t380 122q255 0 378 -113.5t123 -346.5h-205q0 155 -73 230.5t-223 75.5q-151 0 -224 -80.5
t-73 -257.5v-272q0 -179 73 -259.5t224 -80.5q150 0 223 75.5t73 232.5h205q0 -234 -123 -349t-378 -115z" />
    <glyph glyph-name="cdotaccent" unicode="&#x10b;" horiz-adv-x="988" 
d="M497 1075q-33 0 -55.5 23t-22.5 55q0 33 22.5 55.5t55.5 22.5t55.5 -22.5t22.5 -55.5q0 -32 -22.5 -55t-55.5 -23zM497 -11q-426 0 -426 496q0 498 426 498q189 0 298 -92.5t125 -262.5h-197q-14 104 -71 159t-155 55q-117 0 -173.5 -86.5t-56.5 -270.5
q0 -181 56.5 -267.5t173.5 -86.5q99 0 156.5 56t69.5 160h197q-16 -171 -124.5 -264.5t-298.5 -93.5z" />
    <glyph glyph-name="Ccaron" unicode="&#x10c;" horiz-adv-x="1192" 
d="M814 1502l-211 -195l-212 195l83 77l129 -134l126 134zM601 -11q-258 0 -380 122.5t-122 392.5v233q0 268 122 390t380 122q255 0 378 -113.5t123 -346.5h-205q0 155 -73 230.5t-223 75.5q-151 0 -224 -80.5t-73 -257.5v-272q0 -179 73 -259.5t224 -80.5q150 0 223 75.5
t73 232.5h205q0 -234 -123 -349t-378 -115z" />
    <glyph glyph-name="ccaron" unicode="&#x10d;" horiz-adv-x="988" 
d="M707 1247l-210 -195l-212 195l83 78l129 -135l126 135zM497 -11q-426 0 -426 496q0 498 426 498q189 0 298 -92.5t125 -262.5h-197q-14 104 -71 159t-155 55q-117 0 -173.5 -86.5t-56.5 -270.5q0 -181 56.5 -267.5t173.5 -86.5q99 0 156.5 56t69.5 160h197
q-16 -171 -124.5 -264.5t-298.5 -93.5z" />
    <glyph glyph-name="Dcaron" unicode="&#x10e;" horiz-adv-x="1215" 
d="M686 1579l85 -77l-210 -195l-213 195l84 77l129 -134zM143 1238h437q107 0 183 -10.5t139 -37.5t103 -71.5t67.5 -114.5t39 -163.5t11.5 -221.5t-11.5 -221.5t-39 -163.5t-67.5 -114.5t-103 -71.5t-139 -37.5t-183 -10.5h-437v1238zM348 164h223q71 0 119.5 6.5
t89.5 25.5t65.5 50.5t42 83.5t24 121t6.5 168t-6.5 168t-24 121t-42 83.5t-65.5 50.5t-89.5 25.5t-119.5 6.5h-223v-910z" />
    <glyph glyph-name="dcaron" unicode="&#x10f;" horiz-adv-x="1372" 
d="M753 849v477h195v-1326h-195v127q-89 -134 -284 -134q-197 0 -297.5 126.5t-100.5 366.5t100.5 367t297.5 127q195 0 284 -131zM1086 863l60 463h166v-136l-97 -327h-129zM515 129q245 0 245 357q0 358 -245 358q-248 0 -248 -358q0 -357 248 -357z" />
    <glyph glyph-name="Dcroat" unicode="&#x110;" horiz-adv-x="1237" 
d="M166 1238h437q106 0 182 -10.5t139.5 -37.5t103.5 -71.5t67.5 -114.5t39 -163.5t11.5 -221.5t-11.5 -221.5t-39 -163.5t-67.5 -114.5t-103.5 -71.5t-139.5 -37.5t-182 -10.5h-437v575h-125v136h125v527zM371 164h221q72 0 120.5 6.5t90 25.5t66 50.5t42 83.5t24 121
t6.5 168t-6.5 168t-24 121t-42 83.5t-66 50.5t-90 25.5t-120.5 6.5h-221v-363h239v-136h-239v-411z" />
    <glyph glyph-name="dcroat" unicode="&#x111;" horiz-adv-x="1077" 
d="M948 1208h115v-134h-115v-1074h-195v127q-89 -134 -284 -134q-197 0 -297.5 126.5t-100.5 366.5t100.5 367t297.5 127q195 0 284 -131v225h-260v134h260v118h195v-118zM515 129q245 0 245 357q0 358 -245 358q-248 0 -248 -358q0 -357 248 -357z" />
    <glyph glyph-name="Emacron" unicode="&#x112;" horiz-adv-x="1096" 
d="M375 1450h394v-102h-394v102zM348 566v-402h660v-164h-865v1238h851v-164h-646v-347h577v-161h-577z" />
    <glyph glyph-name="emacron" unicode="&#x113;" horiz-adv-x="1006" 
d="M302 1187h395v-103h-395v103zM501 983q219 0 327.5 -137t98.5 -416h-658q8 -155 65.5 -228t164.5 -73q96 0 151 48.5t72 128.5h192q-25 -147 -128 -232.5t-285 -85.5q-213 0 -321.5 125t-108.5 373q0 246 109.5 371.5t320.5 125.5zM499 842q-105 0 -162.5 -69.5
t-67.5 -217.5h461q-15 287 -231 287z" />
    <glyph glyph-name="Ebreve" unicode="&#x114;" horiz-adv-x="1096" 
d="M571 1309q-217 0 -223 221h112q3 -120 111 -120q51 0 81 30t31 90h109q-3 -221 -221 -221zM348 566v-402h660v-164h-865v1238h851v-164h-646v-347h577v-161h-577z" />
    <glyph glyph-name="ebreve" unicode="&#x115;" horiz-adv-x="1006" 
d="M499 1045q-217 0 -223 221h111q3 -120 112 -120q51 0 80.5 30t30.5 90h110q-3 -221 -221 -221zM501 983q219 0 327.5 -137t98.5 -416h-658q8 -155 65.5 -228t164.5 -73q96 0 151 48.5t72 128.5h192q-25 -147 -128 -232.5t-285 -85.5q-213 0 -321.5 125t-108.5 373
q0 246 109.5 371.5t320.5 125.5zM499 842q-105 0 -162.5 -69.5t-67.5 -217.5h461q-15 287 -231 287z" />
    <glyph glyph-name="Edotaccent" unicode="&#x116;" horiz-adv-x="1096" 
d="M571 1328q-33 0 -55.5 23t-22.5 55q0 33 22.5 55.5t55.5 22.5t55.5 -22.5t22.5 -55.5q0 -32 -22.5 -55t-55.5 -23zM348 566v-402h660v-164h-865v1238h851v-164h-646v-347h577v-161h-577z" />
    <glyph glyph-name="edotaccent" unicode="&#x117;" horiz-adv-x="1006" 
d="M499 1065q-33 0 -55.5 22.5t-22.5 54.5q0 33 22.5 55.5t55.5 22.5t55.5 -22.5t22.5 -55.5q0 -32 -22.5 -54.5t-55.5 -22.5zM501 983q219 0 327.5 -137t98.5 -416h-658q8 -155 65.5 -228t164.5 -73q96 0 151 48.5t72 128.5h192q-25 -147 -128 -232.5t-285 -85.5
q-213 0 -321.5 125t-108.5 373q0 246 109.5 371.5t320.5 125.5zM499 842q-105 0 -162.5 -69.5t-67.5 -217.5h461q-15 287 -231 287z" />
    <glyph glyph-name="Eogonek" unicode="&#x118;" horiz-adv-x="1096" 
d="M1010 -233l33 -75q-70 -40 -137 -40q-71 0 -115.5 40t-44.5 106q0 110 131 202h-734v1238h851v-164h-646v-347h577v-161h-577v-402h660v-164h-2q-74 -42 -114.5 -92t-40.5 -94q0 -34 20.5 -54t55.5 -20q37 0 83 27z" />
    <glyph glyph-name="eogonek" unicode="&#x119;" horiz-adv-x="1006" 
d="M501 983q219 0 327.5 -137t98.5 -416h-658q8 -155 65.5 -228t164.5 -73q96 0 151 48.5t72 128.5h192q-22 -132 -107.5 -215t-235.5 -100q-70 -42 -108.5 -90t-38.5 -90q0 -34 21 -54.5t56 -20.5q37 0 83 27l33 -74q-72 -41 -138 -41q-71 0 -115 40.5t-44 106.5
q0 106 122 194q-371 35 -371 497q0 246 109.5 371.5t320.5 125.5zM499 842q-105 0 -162.5 -69.5t-67.5 -217.5h461q-15 287 -231 287z" />
    <glyph glyph-name="Ecaron" unicode="&#x11a;" horiz-adv-x="1096" 
d="M699 1578l84 -78l-210 -195l-212 195l83 78l129 -135zM348 566v-402h660v-164h-865v1238h851v-164h-646v-347h577v-161h-577z" />
    <glyph glyph-name="ecaron" unicode="&#x11b;" horiz-adv-x="1006" 
d="M626 1314l85 -78l-210 -194l-213 194l83 78l130 -134zM501 983q219 0 327.5 -137t98.5 -416h-658q8 -155 65.5 -228t164.5 -73q96 0 151 48.5t72 128.5h192q-25 -147 -128 -232.5t-285 -85.5q-213 0 -321.5 125t-108.5 373q0 246 109.5 371.5t320.5 125.5zM499 842
q-105 0 -162.5 -69.5t-67.5 -217.5h461q-15 287 -231 287z" />
    <glyph glyph-name="Gcircumflex" unicode="&#x11c;" horiz-adv-x="1220" 
d="M737 1307l-125 134l-129 -134l-83 78l212 194l210 -194zM642 541v145h478v-185q0 -269 -124 -390.5t-386 -121.5q-263 0 -387 122.5t-124 392.5v233q0 268 124 390t387 122q471 0 502 -374h-203q-12 109 -89 164.5t-210 55.5q-155 0 -230.5 -81t-75.5 -257v-272
q0 -179 75.5 -260.5t230.5 -81.5q158 0 234 78.5t76 254.5v65h-278z" />
    <glyph glyph-name="gcircumflex" unicode="&#x11d;" horiz-adv-x="1073" 
d="M702 1042l-125 134l-130 -134l-83 78l213 194l210 -194zM750 847v126h194v-934q0 -213 -98 -307.5t-305 -94.5q-180 0 -366 62l44 133q159 -51 296 -51q124 0 179.5 57.5t55.5 202.5v109q-85 -125 -274 -125q-203 0 -306 124.5t-103 354.5q0 229 101 352.5t297 123.5
q191 0 285 -133zM509 161q123 0 185.5 88.5t62.5 254.5q0 164 -62.5 252t-185.5 88q-121 0 -183 -88t-62 -252q0 -166 62 -254.5t183 -88.5z" />
    <glyph glyph-name="Gbreve" unicode="&#x11e;" horiz-adv-x="1220" 
d="M610 1311q-217 0 -223 221h112q3 -121 111 -121q51 0 81 30.5t31 90.5h109q-3 -221 -221 -221zM642 541v145h478v-185q0 -269 -124 -390.5t-386 -121.5q-263 0 -387 122.5t-124 392.5v233q0 268 124 390t387 122q471 0 502 -374h-203q-12 109 -89 164.5t-210 55.5
q-155 0 -230.5 -81t-75.5 -257v-272q0 -179 75.5 -260.5t230.5 -81.5q158 0 234 78.5t76 254.5v65h-278z" />
    <glyph glyph-name="gbreve" unicode="&#x11f;" horiz-adv-x="1073" 
d="M577 1045q-217 0 -223 221h111q3 -120 112 -120q51 0 80.5 30t30.5 90h110q-3 -221 -221 -221zM750 847v126h194v-934q0 -213 -98 -307.5t-305 -94.5q-180 0 -366 62l44 133q159 -51 296 -51q124 0 179.5 57.5t55.5 202.5v109q-85 -125 -274 -125q-203 0 -306 124.5
t-103 354.5q0 229 101 352.5t297 123.5q191 0 285 -133zM509 161q123 0 185.5 88.5t62.5 254.5q0 164 -62.5 252t-185.5 88q-121 0 -183 -88t-62 -252q0 -166 62 -254.5t183 -88.5z" />
    <glyph glyph-name="Gdotaccent" unicode="&#x120;" horiz-adv-x="1220" 
d="M610 1330q-33 0 -55.5 23t-22.5 55q0 33 22.5 55.5t55.5 22.5t55.5 -22.5t22.5 -55.5q0 -32 -22.5 -55t-55.5 -23zM642 541v145h478v-185q0 -269 -124 -390.5t-386 -121.5q-263 0 -387 122.5t-124 392.5v233q0 268 124 390t387 122q471 0 502 -374h-203
q-12 109 -89 164.5t-210 55.5q-155 0 -230.5 -81t-75.5 -257v-272q0 -179 75.5 -260.5t230.5 -81.5q158 0 234 78.5t76 254.5v65h-278z" />
    <glyph glyph-name="gdotaccent" unicode="&#x121;" horiz-adv-x="1073" 
d="M575 1065q-33 0 -55.5 22.5t-22.5 54.5q0 33 22.5 55.5t55.5 22.5t55.5 -22.5t22.5 -55.5q0 -32 -22.5 -54.5t-55.5 -22.5zM750 847v126h194v-934q0 -213 -98 -307.5t-305 -94.5q-180 0 -366 62l44 133q159 -51 296 -51q124 0 179.5 57.5t55.5 202.5v109
q-85 -125 -274 -125q-203 0 -306 124.5t-103 354.5q0 229 101 352.5t297 123.5q191 0 285 -133zM509 161q123 0 185.5 88.5t62.5 254.5q0 164 -62.5 252t-185.5 88q-121 0 -183 -88t-62 -252q0 -166 62 -254.5t183 -88.5z" />
    <glyph glyph-name="uni0122" unicode="&#x122;" horiz-adv-x="1220" 
d="M642 541v145h478v-185q0 -269 -124 -390.5t-386 -121.5q-263 0 -387 122.5t-124 392.5v233q0 268 124 390t387 122q471 0 502 -374h-203q-12 109 -89 164.5t-210 55.5q-155 0 -230.5 -81t-75.5 -257v-272q0 -179 75.5 -260.5t230.5 -81.5q158 0 234 78.5t76 254.5v65
h-278zM631 -377h-123l33 281h158z" />
    <glyph glyph-name="uni0123" unicode="&#x123;" horiz-adv-x="1073" 
d="M592 1319h123l-69 -265h-142zM750 847v126h194v-934q0 -213 -98 -307.5t-305 -94.5q-180 0 -366 62l44 133q159 -51 296 -51q124 0 179.5 57.5t55.5 202.5v109q-85 -125 -274 -125q-203 0 -306 124.5t-103 354.5q0 229 101 352.5t297 123.5q191 0 285 -133zM509 161
q123 0 185.5 88.5t62.5 254.5q0 164 -62.5 252t-185.5 88q-121 0 -183 -88t-62 -252q0 -166 62 -254.5t183 -88.5z" />
    <glyph glyph-name="Hcircumflex" unicode="&#x124;" horiz-adv-x="1273" 
d="M762 1307l-125 134l-129 -134l-84 78l213 194l210 -194zM925 725v513h205v-1238h-205v561h-577v-561h-205v1238h205v-513h577z" />
    <glyph glyph-name="hcircumflex" unicode="&#x125;" horiz-adv-x="1077" 
d="M435 1473l-85 -78l-125 135l-129 -135l-84 78l213 195zM592 980q183 0 277.5 -102.5t94.5 -295.5v-582h-196v582q0 122 -55.5 187.5t-160.5 65.5q-228 0 -228 -267v-568h-195v1326h195v-449q92 103 268 103z" />
    <glyph glyph-name="Hbar" unicode="&#x126;" horiz-adv-x="1273" 
d="M1130 1042h122v-126h-122v-916h-205v561h-577v-561h-205v916h-124v126h124v196h205v-196h577v196h205v-196zM348 725h577v191h-577v-191z" />
    <glyph glyph-name="hbar" unicode="&#x127;" horiz-adv-x="1077" 
d="M592 980q183 0 277.5 -102.5t94.5 -295.5v-582h-196v582q0 122 -55.5 187.5t-160.5 65.5q-228 0 -228 -267v-568h-195v1074h-136v134h136v118h195v-118h238v-134h-238v-197q92 103 268 103z" />
    <glyph glyph-name="Itilde" unicode="&#x128;" horiz-adv-x="491" 
d="M90 1318l-69 46q20 52 56.5 85t85.5 33q35 0 66 -19t56 -38t47 -19q25 0 41.5 16.5t33.5 47.5l69 -46q-50 -117 -136 -117q-37 0 -68 19t-57 38t-49 19q-46 0 -76 -65zM348 0h-205v1238h205v-1238z" />
    <glyph glyph-name="itilde" unicode="&#x129;" horiz-adv-x="463" 
d="M74 1052l-69 46q20 52 56.5 85.5t85.5 33.5q35 0 66 -19t56.5 -38t47.5 -19q25 0 41 16t33 47l69 -46q-50 -116 -136 -116q-37 0 -68 19t-57 38t-49 19q-46 0 -76 -66zM129 973h205v-973h-205v973z" />
    <glyph glyph-name="Imacron" unicode="&#x12a;" horiz-adv-x="491" 
d="M444 1349h-394v103h394v-103zM348 0h-205v1238h205v-1238z" />
    <glyph glyph-name="imacron" unicode="&#x12b;" horiz-adv-x="463" 
d="M428 1084h-394v103h394v-103zM129 973h205v-973h-205v973z" />
    <glyph glyph-name="Ibreve" unicode="&#x12c;" horiz-adv-x="491" 
d="M357 1532h110q-3 -221 -221 -221q-217 0 -223 221h111q1 -61 30.5 -91t81.5 -30q50 0 80 30.5t31 90.5zM348 0h-205v1238h205v-1238z" />
    <glyph glyph-name="ibreve" unicode="&#x12d;" horiz-adv-x="463" 
d="M343 1266h110q-3 -221 -221 -221q-217 0 -223 221h111q3 -120 112 -120q51 0 80.5 30t30.5 90zM334 0h-205v973h205v-973z" />
    <glyph glyph-name="Iogonek" unicode="&#x12e;" horiz-adv-x="491" 
d="M350 -233l34 -75q-70 -40 -138 -40q-71 0 -115 40t-44 106q0 110 131 202h-75v1238h205v-1238h-1q-74 -43 -115 -92.5t-41 -93.5q0 -34 20.5 -54t55.5 -20q37 0 83 27z" />
    <glyph glyph-name="iogonek" unicode="&#x12f;" horiz-adv-x="463" 
d="M232 1065q-33 0 -55.5 22.5t-22.5 54.5q0 33 22.5 55.5t55.5 22.5t55 -22.5t22 -55.5q0 -32 -22 -54.5t-55 -22.5zM336 -233l34 -75q-70 -40 -138 -40q-71 0 -115 40t-44 106q0 111 130 202h-74v973h205v-973h-2q-74 -42 -114.5 -92t-40.5 -94q0 -34 20.5 -54t55.5 -20
q37 0 83 27z" />
    <glyph glyph-name="Idotaccent" unicode="&#x130;" horiz-adv-x="491" 
d="M246 1330q-33 0 -55.5 23t-22.5 55q0 33 22.5 55.5t55.5 22.5t55.5 -22.5t22.5 -55.5q0 -32 -22.5 -55t-55.5 -23zM348 0h-205v1238h205v-1238z" />
    <glyph glyph-name="dotlessi" unicode="&#x131;" horiz-adv-x="463" 
d="M129 973h205v-973h-205v973z" />
    <glyph glyph-name="IJ" unicode="&#x132;" horiz-adv-x="1123" 
d="M348 0h-205v1238h205v-1238zM676 0h-161v164h122q79 0 112 37.5t33 129.5v907h205v-929q0 -172 -68.5 -240.5t-242.5 -68.5z" />
    <glyph glyph-name="ij" unicode="&#x133;" horiz-adv-x="919" 
d="M791 1153h-195v173h195v-173zM324 1118h-195v173h195v-173zM478 -361q-176 0 -381 50l21 136q186 -43 315 -43q93 0 128 37.5t35 146.5v1007h195v-1012q0 -182 -67 -252t-246 -70zM324 0h-195v973h195v-973z" />
    <glyph glyph-name="Jcircumflex" unicode="&#x134;" horiz-adv-x="631" 
d="M184 1385l212 194l211 -194l-85 -78l-126 134l-129 -134zM184 0h-161v164h122q79 0 112 37.5t33 129.5v907h205v-929q0 -172 -68.5 -240.5t-242.5 -68.5z" />
    <glyph glyph-name="jcircumflex" unicode="&#x135;" horiz-adv-x="456" 
d="M19 1120l213 194l210 -194l-85 -78l-125 134l-129 -134zM71 -354h-96v151h41q67 0 92 31.5t25 121.5v1023h194v-1031q0 -167 -56.5 -231.5t-199.5 -64.5z" />
    <glyph glyph-name="uni0136" unicode="&#x136;" horiz-adv-x="1098" 
d="M1063 1238l-545 -600l577 -638h-264l-483 552v-552h-205v1238h205v-513l451 513h264zM615 -371h-123l33 281h158z" />
    <glyph glyph-name="uni0137" unicode="&#x137;" horiz-adv-x="919" 
d="M867 973l-389 -439l422 -534h-228l-348 455v-455h-195v1326h195v-718l311 365h232zM513 -371h-124l34 281h157z" />
    <glyph glyph-name="Lacute" unicode="&#x139;" horiz-adv-x="1032" 
d="M156 1326l148 214h197l-202 -214h-143zM996 0h-853v1238h205v-1074h648v-164z" />
    <glyph glyph-name="lacute" unicode="&#x13a;" horiz-adv-x="514" 
d="M124 1415l148 214h197l-202 -214h-143zM462 0h-108q-129 0 -179.5 42.5t-50.5 167.5v1116h194v-1089q0 -54 19.5 -73t67.5 -19h57v-145z" />
    <glyph glyph-name="uni013B" unicode="&#x13b;" horiz-adv-x="1032" 
d="M996 0h-853v1238h205v-1074h648v-164zM497 -371l34 281h157l-67 -281h-124z" />
    <glyph glyph-name="uni013C" unicode="&#x13c;" horiz-adv-x="514" 
d="M462 0h-108q-129 0 -179.5 42.5t-50.5 167.5v1116h194v-1089q0 -54 19.5 -73t67.5 -19h57v-145zM198 -371l34 281h157l-67 -281h-124z" />
    <glyph glyph-name="Lcaron" unicode="&#x13d;" horiz-adv-x="1031" 
d="M996 0h-853v1238h205v-1074h648v-164zM713 775l56 463h161v-136l-92 -327h-125z" />
    <glyph glyph-name="lcaron" unicode="&#x13e;" horiz-adv-x="702" 
d="M462 0h-108q-129 0 -179.5 42.5t-50.5 167.5v1116h194v-1089q0 -54 19.5 -73t67.5 -19h57v-145zM453 863l53 463h148v-136l-86 -327h-115z" />
    <glyph glyph-name="Ldot" unicode="&#x13f;" horiz-adv-x="1032" 
d="M996 0h-853v1238h205v-1074h648v-164zM665 573v218h193v-218h-193z" />
    <glyph glyph-name="ldot" unicode="&#x140;" horiz-adv-x="626" 
d="M462 0h-108q-129 0 -179.5 42.5t-50.5 167.5v1116h194v-1089q0 -54 19.5 -73t67.5 -19h57v-145zM416 447v211h173v-211h-173z" />
    <glyph glyph-name="Lslash" unicode="&#x141;" horiz-adv-x="1032" 
d="M348 509v-345h648v-164h-853v345l-102 -81v192l102 82v700h205v-536l170 136v-192z" />
    <glyph glyph-name="lslash" unicode="&#x142;" horiz-adv-x="514" 
d="M490 769v-192l-172 -138v-202q0 -54 19.5 -73t67.5 -19h57v-145h-108q-129 0 -179.5 42.5t-50.5 167.5v73l-112 -88v192l112 89v850h194v-695z" />
    <glyph glyph-name="Nacute" unicode="&#x143;" horiz-adv-x="1287" 
d="M713 1540h196l-202 -214h-143zM955 221v1017h189v-1238h-256l-554 1015v-1015h-191v1238h258z" />
    <glyph glyph-name="nacute" unicode="&#x144;" horiz-adv-x="1078" 
d="M594 1284h197l-202 -214h-143zM603 982q182 0 271.5 -102t89.5 -296v-584h-195v584q0 123 -55 188.5t-162 65.5q-114 0 -170.5 -69t-56.5 -200h-1l1 -569h-196v973h195v-105q94 114 279 114z" />
    <glyph glyph-name="uni0145" unicode="&#x145;" horiz-adv-x="1287" 
d="M955 221v1017h189v-1238h-256l-554 1015v-1015h-191v1238h258zM665 -371h-124l34 281h157z" />
    <glyph glyph-name="uni0146" unicode="&#x146;" horiz-adv-x="1078" 
d="M603 982q182 0 271.5 -102t89.5 -296v-584h-195v584q0 123 -55 188.5t-162 65.5q-114 0 -170.5 -69t-56.5 -200h-1l1 -569h-196v973h195v-105q94 114 279 114zM557 -371h-124l34 281h157z" />
    <glyph glyph-name="Ncaron" unicode="&#x147;" horiz-adv-x="1287" 
d="M791 1579l84 -77l-210 -195l-212 195l83 77l129 -134zM955 221v1017h189v-1238h-256l-554 1015v-1015h-191v1238h258z" />
    <glyph glyph-name="ncaron" unicode="&#x148;" horiz-adv-x="1078" 
d="M672 1323l85 -78l-211 -194l-212 194l83 78l129 -135zM603 982q182 0 271.5 -102t89.5 -296v-584h-195v584q0 123 -55 188.5t-162 65.5q-114 0 -170.5 -69t-56.5 -200h-1l1 -569h-196v973h195v-105q94 114 279 114z" />
    <glyph glyph-name="napostrophe" unicode="&#x149;" horiz-adv-x="1078" 
d="M331 1473v-108l-78 -261h-104l49 369h133zM603 982q182 0 271.5 -102t89.5 -296v-584h-195v584q0 123 -55 188.5t-162 65.5q-114 0 -170.5 -69t-56.5 -200h-1l1 -569h-196v973h195v-105q94 114 279 114z" />
    <glyph glyph-name="Eng" unicode="&#x14a;" horiz-adv-x="1287" 
d="M955 1238h189v-1238h-2v-69q0 -160 -56.5 -222.5t-199.5 -62.5h-88v151h39q66 0 91 28.5t25 105.5v69h-65l-554 1015v-1015h-191v1238h258l554 -1017v1017z" />
    <glyph glyph-name="eng" unicode="&#x14b;" horiz-adv-x="1085" 
d="M964 584v-573h9v-80q0 -160 -57 -222.5t-201 -62.5h-94v151h39q66 0 91 28.5t25 105.5v69h-7v584q0 123 -55 188.5t-162 65.5q-114 0 -170.5 -69t-56.5 -200h-1l1 -569h-196v973h195v-105q94 114 279 114q182 0 271.5 -102t89.5 -296z" />
    <glyph glyph-name="Omacron" unicode="&#x14c;" horiz-adv-x="1213" 
d="M805 1349h-395v103h395v-103zM608 -11q-263 0 -386 122.5t-123 392.5v233q0 268 123 390t386 122q260 0 383 -122t123 -390v-233q0 -270 -123 -392.5t-383 -122.5zM608 143q154 0 227.5 81.5t73.5 260.5v272q0 177 -73.5 257.5t-227.5 80.5q-155 0 -229.5 -80.5
t-74.5 -257.5v-272q0 -179 74.5 -260.5t229.5 -81.5z" />
    <glyph glyph-name="omacron" unicode="&#x14d;" horiz-adv-x="1027" 
d="M711 1095h-394v102h394v-102zM513 -14q-442 0 -442 499q0 500 442 500q444 0 444 -500q0 -499 -444 -499zM513 127q127 0 188 88.5t61 270.5t-61 270t-188 88q-126 0 -186 -88t-60 -270t60 -270.5t186 -88.5z" />
    <glyph glyph-name="Obreve" unicode="&#x14e;" horiz-adv-x="1213" 
d="M608 1311q-216 0 -222 221h111q3 -121 111 -121q51 0 81 30.5t31 90.5h109q-3 -221 -221 -221zM608 1249q260 0 383 -122t123 -390v-233q0 -270 -123 -392.5t-383 -122.5q-263 0 -386 122.5t-123 392.5v233q0 268 123 390t386 122zM909 485v272q0 177 -73.5 257.5
t-227.5 80.5q-155 0 -229.5 -80.5t-74.5 -257.5v-272q0 -179 74.5 -260.5t229.5 -81.5q154 0 227.5 81.5t73.5 260.5z" />
    <glyph glyph-name="obreve" unicode="&#x14f;" horiz-adv-x="1027" 
d="M513 1056q-217 0 -223 221h111q3 -120 112 -120q51 0 80.5 30t30.5 90h110q-3 -221 -221 -221zM513 985q444 0 444 -500q0 -499 -444 -499q-442 0 -442 499q0 500 442 500zM513 127q127 0 188 88.5t61 270.5t-61 270t-188 88q-126 0 -186 -88t-60 -270t60 -270.5
t186 -88.5z" />
    <glyph glyph-name="Ohungarumlaut" unicode="&#x150;" horiz-adv-x="1213" 
d="M562 1572h112l-115 -246h-90zM729 1572h111l-115 -246h-90zM608 -11q-263 0 -386 122.5t-123 392.5v233q0 268 123 390t386 122q260 0 383 -122t123 -390v-233q0 -270 -123 -392.5t-383 -122.5zM608 143q154 0 227.5 81.5t73.5 260.5v272q0 177 -73.5 257.5t-227.5 80.5
q-155 0 -229.5 -80.5t-74.5 -257.5v-272q0 -179 74.5 -260.5t229.5 -81.5z" />
    <glyph glyph-name="ohungarumlaut" unicode="&#x151;" horiz-adv-x="1027" 
d="M467 1318h111l-115 -246h-90zM633 1318h112l-115 -246h-91zM513 -14q-442 0 -442 499q0 500 442 500q444 0 444 -500q0 -499 -444 -499zM513 127q127 0 188 88.5t61 270.5t-61 270t-188 88q-126 0 -186 -88t-60 -270t60 -270.5t186 -88.5z" />
    <glyph glyph-name="OE" unicode="&#x152;" horiz-adv-x="1839" 
d="M1104 577v-413h645v-164h-813v124q-107 -135 -345 -135q-246 0 -369 124t-123 391v233q0 266 123 389t369 123q237 0 345 -133v122h799v-164h-631v-342h562v-155h-562zM898 485v272q0 177 -73 257.5t-222 80.5q-151 0 -225 -81t-74 -257v-272q0 -179 74 -260.5t225 -81.5
q149 0 222 81.5t73 260.5z" />
    <glyph glyph-name="oe" unicode="&#x153;" horiz-adv-x="1621" 
d="M1135 983q432 0 416 -553h-658q8 -154 65 -226.5t167 -72.5q94 0 147 48t70 127h195q-24 -145 -125.5 -231t-276.5 -86q-223 0 -321 174q-97 -174 -329 -174q-208 0 -314.5 125t-106.5 371q0 248 106.5 373t314.5 125q234 0 327 -173q98 173 323 173zM1125 842
q-108 0 -165.5 -72t-66.5 -224h463q-7 156 -65.5 226t-165.5 70zM495 131q120 0 179.5 87t59.5 267q0 183 -59 269t-180 86q-120 0 -177.5 -86t-57.5 -269q0 -181 57.5 -267.5t177.5 -86.5z" />
    <glyph glyph-name="Racute" unicode="&#x154;" horiz-adv-x="1124" 
d="M577 1540h196l-202 -214h-143zM1042 0h-228l-234 449h-232v-449h-205v1238h487q204 0 302.5 -97.5t98.5 -295.5q0 -308 -239 -375zM580 1066h-232v-442h232q127 0 186.5 56.5t59.5 170.5q0 112 -59 163.5t-187 51.5z" />
    <glyph glyph-name="racute" unicode="&#x155;" horiz-adv-x="695" 
d="M283 1061l149 214h196l-202 -214h-143zM324 0h-195v973h184v-216l4 -2q32 104 106 161t210 57h41v-182h-41q-152 0 -230.5 -73.5t-78.5 -245.5v-472z" />
    <glyph glyph-name="uni0156" unicode="&#x156;" horiz-adv-x="1124" 
d="M792 470l250 -470h-228l-234 449h-232v-449h-205v1238h487q204 0 302.5 -97.5t98.5 -295.5q0 -308 -239 -375zM580 1066h-232v-442h232q127 0 186.5 56.5t59.5 170.5q0 112 -59 163.5t-187 51.5zM569 -371h-123l33 281h158z" />
    <glyph glyph-name="uni0157" unicode="&#x157;" horiz-adv-x="695" 
d="M324 0h-195v973h184v-216l4 -2q32 104 106 161t210 57h41v-182h-41q-152 0 -230.5 -73.5t-78.5 -245.5v-472zM110 -371l33 281h158l-68 -281h-123z" />
    <glyph glyph-name="Rcaron" unicode="&#x158;" horiz-adv-x="1124" 
d="M654 1579l85 -77l-210 -195l-212 195l83 77l129 -134zM1042 0h-228l-234 449h-232v-449h-205v1238h487q204 0 302.5 -97.5t98.5 -295.5q0 -308 -239 -375zM580 1066h-232v-442h232q127 0 186.5 56.5t59.5 170.5q0 112 -59 163.5t-187 51.5z" />
    <glyph glyph-name="rcaron" unicode="&#x159;" horiz-adv-x="695" 
d="M596 1236l-210 -194l-213 194l83 78l130 -134l125 134zM324 0h-195v973h184v-216l4 -2q32 104 106 161t210 57h41v-182h-41q-152 0 -230.5 -73.5t-78.5 -245.5v-472z" />
    <glyph glyph-name="Sacute" unicode="&#x15a;" horiz-adv-x="1119" 
d="M472 1326l149 214h196l-202 -214h-143zM559 -12q-118 0 -205.5 23t-151 74.5t-90.5 140t-15 213.5h195q-15 -158 51.5 -228.5t220.5 -70.5q134 0 202.5 45t68.5 126q-1 53 -26 90.5t-89 75t-181 78.5q-133 45 -218.5 89t-132 93t-63.5 98.5t-17 115.5q0 130 118.5 214.5
t348.5 84.5q130 0 222.5 -30t143 -85.5t71.5 -126t17 -159.5h-191q4 117 -57 183t-201 66q-133 0 -196.5 -42.5t-63.5 -112.5q0 -68 57.5 -116t222.5 -104q178 -58 275.5 -119t133.5 -128t36 -165q0 -153 -124.5 -238t-361.5 -85z" />
    <glyph glyph-name="sacute" unicode="&#x15b;" horiz-adv-x="903" 
d="M363 1072l148 214h196l-201 -214h-143zM455 -11q-216 0 -312.5 78.5t-84.5 261.5h177q-10 -103 44 -152.5t174 -49.5q208 0 208 122q0 59 -54 96.5t-214 82.5q-169 48 -245.5 118.5t-76.5 178.5q0 118 96 188t296 70q194 0 286.5 -84t85.5 -222h-174q3 78 -46.5 124
t-159.5 46q-103 0 -151.5 -32.5t-48.5 -87.5q0 -53 60.5 -89.5t218.5 -80.5q170 -48 241.5 -116.5t71.5 -185.5q0 -127 -95.5 -196.5t-296.5 -69.5z" />
    <glyph glyph-name="Scircumflex" unicode="&#x15c;" horiz-adv-x="1119" 
d="M361 1385l212 194l210 -194l-84 -78l-126 134l-129 -134zM559 -12q-118 0 -205.5 23t-151 74.5t-90.5 140t-15 213.5h195q-15 -158 51.5 -228.5t220.5 -70.5q134 0 202.5 45t68.5 126q-1 53 -26 90.5t-89 75t-181 78.5q-133 45 -218.5 89t-132 93t-63.5 98.5t-17 115.5
q0 130 118.5 214.5t348.5 84.5q130 0 222.5 -30t143 -85.5t71.5 -126t17 -159.5h-191q4 117 -57 183t-201 66q-133 0 -196.5 -42.5t-63.5 -112.5q0 -68 57.5 -116t222.5 -104q178 -58 275.5 -119t133.5 -128t36 -165q0 -153 -124.5 -238t-361.5 -85z" />
    <glyph glyph-name="scircumflex" unicode="&#x15d;" horiz-adv-x="903" 
d="M253 1130l212 195l211 -195l-85 -78l-126 135l-129 -135zM455 -11q-216 0 -312.5 78.5t-84.5 261.5h177q-10 -103 44 -152.5t174 -49.5q208 0 208 122q0 59 -54 96.5t-214 82.5q-169 48 -245.5 118.5t-76.5 178.5q0 118 96 188t296 70q194 0 286.5 -84t85.5 -222h-174
q3 78 -46.5 124t-159.5 46q-103 0 -151.5 -32.5t-48.5 -87.5q0 -53 60.5 -89.5t218.5 -80.5q170 -48 241.5 -116.5t71.5 -185.5q0 -127 -95.5 -196.5t-296.5 -69.5z" />
    <glyph glyph-name="Scedilla" unicode="&#x15e;" horiz-adv-x="1119" 
d="M1045 311q0 -145 -112.5 -229.5t-327.5 -93.5l-25 -85q87 1 130 -30.5t43 -91.5q0 -58 -45.5 -93t-134.5 -35q-92 0 -186 30l22 73q78 -21 152 -21q92 0 92 51q0 32 -35 44.5t-132 8.5l32 149q-109 4 -189 30t-137.5 78t-81.5 138t-13 205h195q-15 -158 51.5 -228.5
t220.5 -70.5q134 0 202.5 45t68.5 126q-1 53 -26 90.5t-89 75t-181 78.5q-133 45 -218.5 89t-132 93t-63.5 98.5t-17 115.5q0 130 118.5 214.5t348.5 84.5q130 0 222.5 -30t143 -85.5t71.5 -126t17 -159.5h-191q4 117 -57 183t-201 66q-133 0 -196.5 -42.5t-63.5 -112.5
q0 -68 57.5 -116t222.5 -104q178 -58 275.5 -119t133.5 -128t36 -165z" />
    <glyph glyph-name="scedilla" unicode="&#x15f;" horiz-adv-x="903" 
d="M847 255q0 -120 -86.5 -189t-265.5 -77l-25 -85q87 1 130.5 -30.5t43.5 -91.5q0 -58 -45.5 -92.5t-135.5 -34.5q-91 0 -185 30l21 73q82 -22 152 -22q92 0 92 52q0 32 -34.5 44.5t-131.5 8.5l32 148q-191 8 -276 87.5t-75 252.5h177q-10 -103 44 -152.5t174 -49.5
q208 0 208 122q0 59 -54 96.5t-214 82.5q-169 48 -245.5 118.5t-76.5 178.5q0 118 96 188t296 70q194 0 286.5 -84t85.5 -222h-174q3 78 -46.5 124t-159.5 46q-103 0 -151.5 -32.5t-48.5 -87.5q0 -53 60.5 -89.5t218.5 -80.5q170 -48 241.5 -116.5t71.5 -185.5z" />
    <glyph glyph-name="Scaron" unicode="&#x160;" horiz-adv-x="1119" 
d="M783 1502l-210 -195l-212 195l83 77l129 -134l126 134zM559 -12q-118 0 -205.5 23t-151 74.5t-90.5 140t-15 213.5h195q-15 -158 51.5 -228.5t220.5 -70.5q134 0 202.5 45t68.5 126q-1 53 -26 90.5t-89 75t-181 78.5q-133 45 -218.5 89t-132 93t-63.5 98.5t-17 115.5
q0 130 118.5 214.5t348.5 84.5q130 0 222.5 -30t143 -85.5t71.5 -126t17 -159.5h-191q4 117 -57 183t-201 66q-133 0 -196.5 -42.5t-63.5 -112.5q0 -68 57.5 -116t222.5 -104q178 -58 275.5 -119t133.5 -128t36 -165q0 -153 -124.5 -238t-361.5 -85z" />
    <glyph glyph-name="scaron" unicode="&#x161;" horiz-adv-x="903" 
d="M676 1247l-211 -195l-212 195l83 78l129 -135l126 135zM455 -11q-216 0 -312.5 78.5t-84.5 261.5h177q-10 -103 44 -152.5t174 -49.5q208 0 208 122q0 59 -54 96.5t-214 82.5q-169 48 -245.5 118.5t-76.5 178.5q0 118 96 188t296 70q194 0 286.5 -84t85.5 -222h-174
q3 78 -46.5 124t-159.5 46q-103 0 -151.5 -32.5t-48.5 -87.5q0 -53 60.5 -89.5t218.5 -80.5q170 -48 241.5 -116.5t71.5 -185.5q0 -127 -95.5 -196.5t-296.5 -69.5z" />
    <glyph glyph-name="uni0162" unicode="&#x162;" horiz-adv-x="1046" 
d="M626 1074v-1074h-78l-25 -85q87 1 130.5 -30.5t43.5 -91.5q0 -58 -45.5 -92.5t-135.5 -34.5q-91 0 -185 30l21 72q78 -21 152 -21q92 0 92 51q0 32 -34.5 44.5t-131.5 8.5l32 149h-41v1074h-373v164h953v-164h-375z" />
    <glyph glyph-name="uni0163" unicode="&#x163;" horiz-adv-x="652" 
d="M619 0h-152h-7l-25 -83q87 1 130 -30.5t43 -91.5q0 -58 -45 -92.5t-135 -34.5q-92 0 -186 30l22 72q78 -21 152 -21q92 0 92 51q0 32 -35 44.5t-132 8.5l32 152q-112 17 -160.5 82.5t-48.5 197.5v553h-127v135h127v265h195v-265h248v-135h-248v-543q0 -82 32.5 -116
t112.5 -34h115v-145z" />
    <glyph glyph-name="Tcaron" unicode="&#x164;" horiz-adv-x="1046" 
d="M651 1579l85 -77l-211 -195l-212 195l83 77l129 -134zM1001 1238v-164h-375v-1074h-205v1074h-373v164h953z" />
    <glyph glyph-name="tcaron" unicode="&#x165;" horiz-adv-x="664" 
d="M506 1086l60 324h166v-96l-97 -228h-129zM359 838v-543q0 -82 32.5 -116t112.5 -34h115v-145h-152q-164 0 -233.5 65t-69.5 220v553h-127v135h127v265h195v-265h248v-135h-248z" />
    <glyph glyph-name="Tbar" unicode="&#x166;" horiz-adv-x="1046" 
d="M1001 1238v-164h-375v-370h182v-135h-182v-569h-205v569h-182v135h182v370h-373v164h953z" />
    <glyph glyph-name="tbar" unicode="&#x167;" horiz-adv-x="703" 
d="M513 145h115v-145h-150q-165 0 -235 65t-70 220v235h-131v134h131v184h-125v135h125v265h197v-265h247v-135h-247v-184h242v-134h-242v-225q0 -82 32.5 -116t110.5 -34z" />
    <glyph glyph-name="Utilde" unicode="&#x168;" horiz-adv-x="1245" 
d="M467 1318l-69 46q20 52 56 85t85 33q35 0 66 -19t56.5 -38t47.5 -19q17 0 32 10.5t22.5 21.5t19.5 32l69 -46q-50 -117 -136 -117q-37 0 -68 19t-56.5 38t-48.5 19q-46 0 -76 -65zM624 -11q-250 0 -370 109.5t-120 345.5v794h206v-794q0 -161 66.5 -231t217.5 -70
q149 0 216 70.5t67 230.5v794h205v-794q0 -236 -119.5 -345.5t-368.5 -109.5z" />
    <glyph glyph-name="utilde" unicode="&#x169;" horiz-adv-x="1077" 
d="M453 1118q-46 0 -76 -66l-69 46q21 53 56.5 86t84.5 33q35 0 66 -19t56.5 -38t47.5 -19q25 0 41 16t33 47l69 -46q-50 -116 -136 -116q-37 0 -68 19t-56.5 38t-48.5 19zM753 394v579h195v-973h-195v101q-92 -112 -275 -112q-363 0 -363 389v595h194v-593
q0 -121 55.5 -183.5t164.5 -62.5q224 0 224 260z" />
    <glyph glyph-name="Umacron" unicode="&#x16a;" horiz-adv-x="1245" 
d="M821 1349h-395v103h395v-103zM624 -11q-250 0 -370 109.5t-120 345.5v794h206v-794q0 -161 66.5 -231t217.5 -70q149 0 216 70.5t67 230.5v794h205v-794q0 -236 -119.5 -345.5t-368.5 -109.5z" />
    <glyph glyph-name="umacron" unicode="&#x16b;" horiz-adv-x="1077" 
d="M336 1187h394v-103h-394v103zM753 394v579h195v-973h-195v101q-92 -112 -275 -112q-363 0 -363 389v595h194v-593q0 -121 55.5 -183.5t164.5 -62.5q224 0 224 260z" />
    <glyph glyph-name="Ubreve" unicode="&#x16c;" horiz-adv-x="1245" 
d="M624 1311q-217 0 -223 221h112q3 -121 111 -121q51 0 81 30.5t31 90.5h109q-3 -221 -221 -221zM907 444v794h205v-794q0 -236 -119.5 -345.5t-368.5 -109.5q-250 0 -370 109.5t-120 345.5v794h206v-794q0 -161 66.5 -231t217.5 -70q149 0 216 70.5t67 230.5z" />
    <glyph glyph-name="ubreve" unicode="&#x16d;" horiz-adv-x="1077" 
d="M532 1045q-217 0 -223 221h112q3 -120 111 -120q51 0 81 30t31 90h109q-3 -221 -221 -221zM753 394v579h195v-973h-195v101q-92 -112 -275 -112q-363 0 -363 389v595h194v-593q0 -121 55.5 -183.5t164.5 -62.5q224 0 224 260z" />
    <glyph glyph-name="Uring" unicode="&#x16e;" horiz-adv-x="1245" 
d="M624 1296q-70 0 -114.5 41.5t-44.5 109.5q0 67 44.5 107.5t114.5 40.5t114.5 -40.5t44.5 -107.5q0 -68 -44.5 -109.5t-114.5 -41.5zM624 1371q34 0 56 20.5t22 55.5q0 33 -22.5 53.5t-55.5 20.5t-55.5 -20.5t-22.5 -53.5q0 -35 22 -55.5t56 -20.5zM624 -11
q-250 0 -370 109.5t-120 345.5v794h206v-794q0 -161 66.5 -231t217.5 -70q149 0 216 70.5t67 230.5v794h205v-794q0 -236 -119.5 -345.5t-368.5 -109.5z" />
    <glyph glyph-name="uring" unicode="&#x16f;" horiz-adv-x="1077" 
d="M532 1031q-70 0 -114.5 41t-44.5 109q0 67 44.5 108t114.5 41t115 -41t45 -108q0 -68 -45 -109t-115 -41zM532 1256q-33 0 -55 -21t-22 -54q0 -35 21.5 -55.5t55.5 -20.5t56 20.5t22 55.5q0 33 -22.5 54t-55.5 21zM753 394v579h195v-973h-195v101q-92 -112 -275 -112
q-363 0 -363 389v595h194v-593q0 -121 55.5 -183.5t164.5 -62.5q224 0 224 260z" />
    <glyph glyph-name="Uhungarumlaut" unicode="&#x170;" horiz-adv-x="1245" 
d="M578 1572h112l-115 -246h-90zM745 1572h111l-115 -246h-90zM624 -11q-250 0 -370 109.5t-120 345.5v794h206v-794q0 -161 66.5 -231t217.5 -70q149 0 216 70.5t67 230.5v794h205v-794q0 -236 -119.5 -345.5t-368.5 -109.5z" />
    <glyph glyph-name="uhungarumlaut" unicode="&#x171;" horiz-adv-x="1077" 
d="M486 1307h112l-115 -246h-90zM764 1307l-115 -246h-90l94 246h111zM753 394v579h195v-973h-195v101q-92 -112 -275 -112q-363 0 -363 389v595h194v-593q0 -121 55.5 -183.5t164.5 -62.5q224 0 224 260z" />
    <glyph glyph-name="Uogonek" unicode="&#x172;" horiz-adv-x="1245" 
d="M907 444v794h205v-794q0 -220 -103 -329.5t-317 -123.5q-74 -43 -114 -91.5t-40 -92.5q0 -34 20.5 -54t55.5 -20q39 0 83 26l33 -74q-70 -40 -138 -40q-71 0 -115 40t-44 106q0 106 128 200q-217 14 -322 123.5t-105 329.5v794h206v-794q0 -161 66.5 -231t217.5 -70
q149 0 216 70.5t67 230.5z" />
    <glyph glyph-name="uogonek" unicode="&#x173;" horiz-adv-x="1077" 
d="M951 -233l34 -75q-70 -40 -138 -40q-71 0 -115 40t-44 106q0 110 131 202h-66v101q-92 -112 -275 -112q-363 0 -363 389v595h194v-593q0 -121 55.5 -183.5t164.5 -62.5q224 0 224 260v579h195v-973q-74 -43 -115 -92.5t-41 -93.5q0 -34 20.5 -54t55.5 -20q37 0 83 27z
" />
    <glyph glyph-name="Wcircumflex" unicode="&#x174;" horiz-adv-x="1777" 
d="M1015 1296l-125 135l-130 -135l-83 78l213 195l210 -195zM1265 255l261 983h220l-363 -1238h-228l-267 925l-267 -925h-227l-362 1238h219l264 -983l281 983h186z" />
    <glyph glyph-name="wcircumflex" unicode="&#x175;" horiz-adv-x="1505" 
d="M874 1042l-126 134l-129 -134l-83 78l212 194l211 -194zM1066 223l195 750h210l-302 -973h-198l-218 727l-219 -727h-198l-302 973h212l193 -750l222 750h183z" />
    <glyph glyph-name="Ycircumflex" unicode="&#x176;" horiz-adv-x="1092" 
d="M672 1307l-126 134l-129 -134l-83 78l212 194l211 -194zM546 681l299 557h220l-416 -730v-508h-205v508l-416 730h218z" />
    <glyph glyph-name="ycircumflex" unicode="&#x177;" horiz-adv-x="939" 
d="M594 1042l-125 134l-129 -134l-84 78l213 194l210 -194zM463 279l264 694h193l-524 -1327h-182l157 400l-352 927h204z" />
    <glyph glyph-name="Ydieresis" unicode="&#x178;" horiz-adv-x="1092" 
d="M393 1330q-33 0 -54.5 22t-21.5 56t21.5 56t54.5 22q34 0 55.5 -21.5t21.5 -56.5t-21.5 -56.5t-55.5 -21.5zM700 1330q-33 0 -55 22t-22 56t22 56t55 22q34 0 56 -22t22 -56t-22 -56t-56 -22zM546 681l299 557h220l-416 -730v-508h-205v508l-416 730h218z" />
    <glyph glyph-name="Zacute" unicode="&#x179;" horiz-adv-x="1029" 
d="M428 1326l149 214h196l-202 -214h-143zM983 0h-932l639 1074h-617v164h917l-640 -1074h633v-164z" />
    <glyph glyph-name="zacute" unicode="&#x17a;" horiz-adv-x="855" 
d="M311 1061l149 214h196l-201 -214h-144zM801 0h-751l489 828h-472v145h738l-492 -828h488v-145z" />
    <glyph glyph-name="Zdotaccent" unicode="&#x17b;" horiz-adv-x="1029" 
d="M527 1330q-33 0 -55.5 23t-22.5 55q0 33 22.5 55.5t55.5 22.5t55.5 -22.5t22.5 -55.5q0 -32 -22.5 -55t-55.5 -23zM983 0h-932l639 1074h-617v164h917l-640 -1074h633v-164z" />
    <glyph glyph-name="zdotaccent" unicode="&#x17c;" horiz-adv-x="855" 
d="M412 1065q-33 0 -55.5 22.5t-22.5 54.5q0 33 22.5 55.5t55.5 22.5t55.5 -22.5t22.5 -55.5q0 -32 -22.5 -54.5t-55.5 -22.5zM801 0h-751l489 828h-472v145h738l-492 -828h488v-145z" />
    <glyph glyph-name="Zcaron" unicode="&#x17d;" horiz-adv-x="1029" 
d="M739 1502l-210 -195l-212 195l83 77l129 -134l125 134zM983 0h-932l639 1074h-617v164h917l-640 -1074h633v-164z" />
    <glyph glyph-name="zcaron" unicode="&#x17e;" horiz-adv-x="855" 
d="M624 1236l-210 -194l-212 194l83 78l129 -134l125 134zM801 0h-751l489 828h-472v145h738l-492 -828h488v-145z" />
    <glyph glyph-name="uni018F" unicode="&#x18f;" horiz-adv-x="1220" 
d="M608 1249q262 0 387 -125.5t125 -394.5v-216q0 -271 -125 -397.5t-387 -126.5q-260 0 -384.5 125t-124.5 394v180h815v62q0 176 -76 260.5t-230 84.5q-130 0 -206.5 -57.5t-90.5 -162.5h-205q41 374 502 374zM608 143q154 0 230 85t76 264v51h-613v-60q0 -176 76 -258
t231 -82z" />
    <glyph glyph-name="florin" unicode="&#x192;" horiz-adv-x="687" 
d="M600 1201q-64 0 -90.5 -37t-31.5 -129l-18 -273h186v-136h-195l-44 -686q-9 -156 -68 -227.5t-189 -71.5q-110 0 -196 21l18 128q69 -15 116 -15q64 0 90.5 37.5t31.5 129.5l45 684h-179v136h188l17 274q9 156 68.5 227.5t191.5 71.5q93 0 193 -21l-18 -127
q-64 14 -116 14z" />
    <glyph glyph-name="uni01CD" unicode="&#x1cd;" horiz-adv-x="1119" 
d="M688 1579l85 -77l-211 -195l-212 195l83 77l129 -134zM1116 0h-223l-95 295h-476l-96 -295h-222l456 1238h200zM561 1028l-190 -582h377z" />
    <glyph glyph-name="uni01CE" unicode="&#x1ce;" horiz-adv-x="955" 
d="M598 1314l85 -78l-211 -194l-212 194l83 78l129 -134zM502 982q181 0 259.5 -79t78.5 -272v-631h-187v136q-96 -145 -294 -145q-142 0 -225 77.5t-83 210.5q0 166 146 261t456 104q-4 109 -48 153.5t-143 42.5q-137 -3 -324 -60l-32 129q217 73 396 73zM423 143
q45 0 84.5 13.5t73 41t53 76t19.5 113.5v129q-119 -6 -202.5 -25t-127.5 -49t-63 -64t-19 -77q0 -73 46.5 -116t135.5 -42z" />
    <glyph glyph-name="uni01CF" unicode="&#x1cf;" horiz-adv-x="491" 
d="M458 1502l-210 -195l-213 195l83 77l130 -134l125 134zM348 0h-205v1238h205v-1238z" />
    <glyph glyph-name="uni01D0" unicode="&#x1d0;" horiz-adv-x="463" 
d="M442 1236l-210 -194l-213 194l84 78l129 -134l125 134zM129 973h205v-973h-205v973z" />
    <glyph glyph-name="uni01D1" unicode="&#x1d1;" horiz-adv-x="1213" 
d="M819 1502l-211 -195l-212 195l83 77l129 -134l126 134zM608 -11q-263 0 -386 122.5t-123 392.5v233q0 268 123 390t386 122q260 0 383 -122t123 -390v-233q0 -270 -123 -392.5t-383 -122.5zM608 143q154 0 227.5 81.5t73.5 260.5v272q0 177 -73.5 257.5t-227.5 80.5
q-155 0 -229.5 -80.5t-74.5 -257.5v-272q0 -179 74.5 -260.5t229.5 -81.5z" />
    <glyph glyph-name="uni01D2" unicode="&#x1d2;" horiz-adv-x="1027" 
d="M725 1247l-210 -195l-213 195l84 78l129 -135l125 135zM513 -14q-442 0 -442 499q0 500 442 500q444 0 444 -500q0 -499 -444 -499zM513 127q127 0 188 88.5t61 270.5t-61 270t-188 88q-126 0 -186 -88t-60 -270t60 -270.5t186 -88.5z" />
    <glyph glyph-name="uni01D3" unicode="&#x1d3;" horiz-adv-x="1245" 
d="M835 1502l-211 -195l-212 195l83 77l129 -134l126 134zM624 -11q-250 0 -370 109.5t-120 345.5v794h206v-794q0 -161 66.5 -231t217.5 -70q149 0 216 70.5t67 230.5v794h205v-794q0 -236 -119.5 -345.5t-368.5 -109.5z" />
    <glyph glyph-name="uni01D4" unicode="&#x1d4;" horiz-adv-x="1077" 
d="M658 1314l85 -78l-211 -194l-212 194l83 78l129 -134zM753 394v579h195v-973h-195v101q-92 -112 -275 -112q-363 0 -363 389v595h194v-593q0 -121 55.5 -183.5t164.5 -62.5q224 0 224 260z" />
    <glyph glyph-name="uni01D5" unicode="&#x1d5;" horiz-adv-x="1245" 
d="M821 1599h-395v102h395v-102zM469 1330q-33 0 -54.5 22t-21.5 56t21.5 56t54.5 22q34 0 55.5 -21.5t21.5 -56.5t-21.5 -56.5t-55.5 -21.5zM776 1330q-33 0 -55 22t-22 56t22 56t55 22q34 0 56 -22t22 -56t-22 -56t-56 -22zM624 -11q-250 0 -370 109.5t-120 345.5v794h206
v-794q0 -161 66.5 -231t217.5 -70q149 0 216 70.5t67 230.5v794h205v-794q0 -236 -119.5 -345.5t-368.5 -109.5z" />
    <glyph glyph-name="uni01D6" unicode="&#x1d6;" horiz-adv-x="1077" 
d="M336 1436h394v-103h-394v103zM378 1065q-33 0 -54.5 21.5t-21.5 55.5t21.5 56t54.5 22q34 0 56 -22t22 -56t-21.5 -55.5t-56.5 -21.5zM608 1142q0 34 22.5 56t55.5 22q34 0 56 -22t22 -56t-21.5 -55.5t-56.5 -21.5q-33 0 -55.5 21.5t-22.5 55.5zM753 394v579h195v-973
h-195v101q-92 -112 -275 -112q-363 0 -363 389v595h194v-593q0 -121 55.5 -183.5t164.5 -62.5q224 0 224 260z" />
    <glyph glyph-name="uni01D7" unicode="&#x1d7;" horiz-adv-x="1245" 
d="M523 1576l149 214h196l-201 -214h-144zM469 1330q-33 0 -54.5 22t-21.5 56t21.5 56t54.5 22q34 0 55.5 -21.5t21.5 -56.5t-21.5 -56.5t-55.5 -21.5zM776 1330q-33 0 -55 22t-22 56t22 56t55 22q34 0 56 -22t22 -56t-22 -56t-56 -22zM624 -11q-250 0 -370 109.5
t-120 345.5v794h206v-794q0 -161 66.5 -231t217.5 -70q149 0 216 70.5t67 230.5v794h205v-794q0 -236 -119.5 -345.5t-368.5 -109.5z" />
    <glyph glyph-name="uni01D8" unicode="&#x1d8;" horiz-adv-x="1077" 
d="M580 1525h196l-201 -214h-143zM378 1065q-33 0 -54.5 21.5t-21.5 55.5t21.5 56t54.5 22q34 0 56 -22t22 -56t-21.5 -55.5t-56.5 -21.5zM608 1142q0 34 22.5 56t55.5 22q34 0 56 -22t22 -56t-21.5 -55.5t-56.5 -21.5q-33 0 -55.5 21.5t-22.5 55.5zM753 394v579h195v-973
h-195v101q-92 -112 -275 -112q-363 0 -363 389v595h194v-593q0 -121 55.5 -183.5t164.5 -62.5q224 0 224 260z" />
    <glyph glyph-name="uni01D9" unicode="&#x1d9;" horiz-adv-x="1245" 
d="M835 1751l-211 -195l-212 195l83 78l129 -135l126 135zM469 1330q-33 0 -54.5 22t-21.5 56t21.5 56t54.5 22q34 0 55.5 -21.5t21.5 -56.5t-21.5 -56.5t-55.5 -21.5zM776 1330q-33 0 -55 22t-22 56t22 56t55 22q34 0 56 -22t22 -56t-22 -56t-56 -22zM624 -11
q-250 0 -370 109.5t-120 345.5v794h206v-794q0 -161 66.5 -231t217.5 -70q149 0 216 70.5t67 230.5v794h205v-794q0 -236 -119.5 -345.5t-368.5 -109.5z" />
    <glyph glyph-name="uni01DA" unicode="&#x1da;" horiz-adv-x="1077" 
d="M658 1563l85 -77l-211 -195l-212 195l83 77l129 -134zM378 1065q-33 0 -54.5 21.5t-21.5 55.5t21.5 56t54.5 22q34 0 56 -22t22 -56t-21.5 -55.5t-56.5 -21.5zM686 1220q34 0 56 -22t22 -56t-21.5 -55.5t-56.5 -21.5q-33 0 -55.5 21.5t-22.5 55.5t22.5 56t55.5 22z
M753 394v579h195v-973h-195v101q-92 -112 -275 -112q-363 0 -363 389v595h194v-593q0 -121 55.5 -183.5t164.5 -62.5q224 0 224 260z" />
    <glyph glyph-name="uni01DB" unicode="&#x1db;" horiz-adv-x="1245" 
d="M382 1790h196l147 -214h-143zM469 1330q-33 0 -54.5 22t-21.5 56t21.5 56t54.5 22q34 0 55.5 -21.5t21.5 -56.5t-21.5 -56.5t-55.5 -21.5zM776 1330q-33 0 -55 22t-22 56t22 56t55 22q34 0 56 -22t22 -56t-22 -56t-56 -22zM624 -11q-250 0 -370 109.5t-120 345.5v794h206
v-794q0 -161 66.5 -231t217.5 -70q149 0 216 70.5t67 230.5v794h205v-794q0 -236 -119.5 -345.5t-368.5 -109.5z" />
    <glyph glyph-name="uni01DC" unicode="&#x1dc;" horiz-adv-x="1077" 
d="M486 1525l147 -214h-143l-200 214h196zM302 1142q0 34 21.5 56t54.5 22q34 0 56 -22t22 -56t-21.5 -55.5t-56.5 -21.5q-33 0 -54.5 21.5t-21.5 55.5zM608 1142q0 34 22.5 56t55.5 22q34 0 56 -22t22 -56t-21.5 -55.5t-56.5 -21.5q-33 0 -55.5 21.5t-22.5 55.5zM753 394
v579h195v-973h-195v101q-92 -112 -275 -112q-363 0 -363 389v595h194v-593q0 -121 55.5 -183.5t164.5 -62.5q224 0 224 260z" />
    <glyph glyph-name="Gcaron" unicode="&#x1e6;" horiz-adv-x="1220" 
d="M737 1579l85 -77l-210 -195l-212 195l83 77l129 -134zM642 541v145h478v-185q0 -269 -124 -390.5t-386 -121.5q-263 0 -387 122.5t-124 392.5v233q0 268 124 390t387 122q471 0 502 -374h-203q-12 109 -89 164.5t-210 55.5q-155 0 -230.5 -81t-75.5 -257v-272
q0 -179 75.5 -260.5t230.5 -81.5q158 0 234 78.5t76 254.5v65h-278z" />
    <glyph glyph-name="gcaron" unicode="&#x1e7;" horiz-adv-x="1073" 
d="M702 1314l85 -78l-210 -194l-213 194l83 78l130 -134zM750 847v126h194v-934q0 -213 -98 -307.5t-305 -94.5q-180 0 -366 62l44 133q159 -51 296 -51q124 0 179.5 57.5t55.5 202.5v109q-85 -125 -274 -125q-203 0 -306 124.5t-103 354.5q0 229 101 352.5t297 123.5
q191 0 285 -133zM509 161q123 0 185.5 88.5t62.5 254.5q0 164 -62.5 252t-185.5 88q-121 0 -183 -88t-62 -252q0 -166 62 -254.5t183 -88.5z" />
    <glyph glyph-name="uni01EA" unicode="&#x1ea;" horiz-adv-x="1213" 
d="M608 1249q260 0 383 -122t123 -390v-233q0 -253 -107.5 -376t-334.5 -137q-73 -43 -112.5 -91.5t-39.5 -92.5q0 -34 20.5 -54t55.5 -20q39 0 83 26l34 -74q-70 -40 -138 -40q-71 0 -115 40t-44 106q0 107 127 200q-228 14 -336 137t-108 376v233q0 268 123 390t386 122z
M909 485v272q0 177 -73.5 257.5t-227.5 80.5q-155 0 -229.5 -80.5t-74.5 -257.5v-272q0 -179 74.5 -260.5t229.5 -81.5q154 0 227.5 81.5t73.5 260.5z" />
    <glyph glyph-name="uni01EB" unicode="&#x1eb;" horiz-adv-x="1027" 
d="M957 485q0 -499 -444 -499h-2q-74 -43 -115 -92.5t-41 -93.5q0 -34 21 -54t56 -20q39 0 83 26l33 -74q-72 -41 -138 -41q-71 0 -115 40.5t-44 106.5q0 116 145 212q-325 61 -325 489q0 500 442 500q444 0 444 -500zM267 486q0 -182 60 -270.5t186 -88.5q127 0 188 88.5
t61 270.5t-61 270t-188 88q-126 0 -186 -88t-60 -270z" />
    <glyph glyph-name="Aringacute" unicode="&#x1fa;" horiz-adv-x="1119" 
d="M608 1898h197l-202 -214h-143zM561 1296q-70 0 -115 41.5t-45 109.5q0 67 45 107.5t115 40.5t114.5 -40.5t44.5 -107.5q0 -68 -44.5 -109.5t-114.5 -41.5zM561 1521q-33 0 -55.5 -20.5t-22.5 -53.5q0 -35 22 -55.5t56 -20.5t55.5 20.5t21.5 55.5q0 33 -22 53.5t-55 20.5z
M1116 0h-223l-95 295h-476l-96 -295h-222l456 1238h200zM561 1028l-190 -582h377z" />
    <glyph glyph-name="aringacute" unicode="&#x1fb;" horiz-adv-x="955" 
d="M520 1632h196l-201 -214h-144zM472 1031q-70 0 -114.5 41t-44.5 109q0 67 44.5 108t114.5 41t114.5 -41t44.5 -108q0 -68 -44.5 -109t-114.5 -41zM472 1256q-33 0 -55.5 -21t-22.5 -54q0 -35 22 -55.5t56 -20.5t56 20.5t22 55.5q0 33 -22.5 54t-55.5 21zM502 982
q181 0 259.5 -79t78.5 -272v-631h-187v136q-96 -145 -294 -145q-142 0 -225 77.5t-83 210.5q0 166 146 261t456 104q-4 109 -48 153.5t-143 42.5q-137 -3 -324 -60l-32 129q217 73 396 73zM423 143q45 0 84.5 13.5t73 41t53 76t19.5 113.5v129q-119 -6 -202.5 -25
t-127.5 -49t-63 -64t-19 -77q0 -73 46.5 -116t135.5 -42z" />
    <glyph glyph-name="AEacute" unicode="&#x1fc;" horiz-adv-x="1715" 
d="M852 1540h197l-202 -214h-143zM980 566v-402h659v-164h-864v288h-418l-154 -288h-230l692 1238h960v-164h-645v-347h575v-161h-575zM775 1072l-340 -639h340v639z" />
    <glyph glyph-name="aeacute" unicode="&#x1fd;" horiz-adv-x="1558" 
d="M992 1279h196l-201 -214h-143zM1061 983q442 0 426 -553h-656q8 -154 64.5 -226.5t165.5 -72.5q94 0 147.5 48t70.5 127h194q-23 -146 -122 -232t-267 -86q-256 0 -343 201q-41 -93 -135.5 -144.5t-225.5 -51.5q-160 0 -248 76.5t-88 209.5q0 166 146 261t456 104
q-4 109 -48 153.5t-143 42.5q-137 -3 -322 -60l-34 129q215 71 356 71q124 0 197.5 -35t107.5 -114q92 152 301 152zM1061 842q-108 0 -164.5 -70.5t-65.5 -221.5h462q-8 154 -67 223t-165 69zM417 143q44 0 83.5 13.5t73 41t53 76.5t19.5 113v129q-118 -6 -201.5 -25
t-127.5 -49t-63 -64t-19 -77q0 -72 46 -115.5t136 -42.5z" />
    <glyph glyph-name="Oslashacute" unicode="&#x1fe;" horiz-adv-x="1213" 
d="M656 1540h196l-201 -214h-143zM1109 1204l-85 -115q90 -122 90 -352v-233q0 -270 -123 -392.5t-383 -122.5q-215 0 -336 82l-79 -106l-89 65l87 119q-92 120 -92 355v233q0 268 123 390t386 122q215 0 336 -82l75 101zM304 757v-272q0 -85 20 -158l509 690
q-74 78 -225 78q-155 0 -229.5 -80.5t-74.5 -257.5zM909 485v272q0 89 -18 152l-509 -688q75 -78 226 -78q154 0 227.5 81.5t73.5 260.5z" />
    <glyph glyph-name="oslashacute" unicode="&#x1ff;" horiz-adv-x="1027" 
d="M561 1286h196l-202 -214h-143zM927 946l-73 -95q103 -124 103 -366q0 -499 -444 -499q-165 0 -272 72l-68 -88l-72 49l76 98q-106 127 -106 368q0 500 442 500q171 0 274 -72l65 84zM267 486q0 -125 30 -212l387 504q-62 66 -171 66q-126 0 -186 -88t-60 -270zM513 127
q127 0 188 88.5t61 270.5q0 122 -30 209l-387 -502q61 -66 168 -66z" />
    <glyph glyph-name="uni0218" unicode="&#x218;" horiz-adv-x="1119" 
d="M559 -12q-118 0 -205.5 23t-151 74.5t-90.5 140t-15 213.5h195q-15 -158 51.5 -228.5t220.5 -70.5q134 0 202.5 45t68.5 126q-1 53 -26 90.5t-89 75t-181 78.5q-133 45 -218.5 89t-132 93t-63.5 98.5t-17 115.5q0 130 118.5 214.5t348.5 84.5q130 0 222.5 -30t143 -85.5
t71.5 -126t17 -159.5h-191q4 117 -57 183t-201 66q-133 0 -196.5 -42.5t-63.5 -112.5q0 -68 57.5 -116t222.5 -104q178 -58 275.5 -119t133.5 -128t36 -165q0 -153 -124.5 -238t-361.5 -85zM476 -384l33 281h158l-67 -281h-124z" />
    <glyph glyph-name="uni0219" unicode="&#x219;" horiz-adv-x="903" 
d="M455 -11q-216 0 -312.5 78.5t-84.5 261.5h177q-10 -103 44 -152.5t174 -49.5q208 0 208 122q0 59 -54 96.5t-214 82.5q-169 48 -245.5 118.5t-76.5 178.5q0 118 96 188t296 70q194 0 286.5 -84t85.5 -222h-174q3 78 -46.5 124t-159.5 46q-103 0 -151.5 -32.5t-48.5 -87.5
q0 -53 60.5 -89.5t218.5 -80.5q170 -48 241.5 -116.5t71.5 -185.5q0 -127 -95.5 -196.5t-296.5 -69.5zM364 -382l34 281h157l-67 -281h-124z" />
    <glyph glyph-name="uni021A" unicode="&#x21a;" horiz-adv-x="1046" 
d="M1001 1238v-164h-375v-1074h-205v1074h-373v164h953zM543 -371h-124l34 281h157z" />
    <glyph glyph-name="uni021B" unicode="&#x21b;" horiz-adv-x="652" 
d="M504 145h115v-145h-152q-164 0 -233.5 65t-69.5 220v553h-127v135h127v265h195v-265h248v-135h-248v-543q0 -82 32.5 -116t112.5 -34zM453 -370h-124l34 282h157z" />
    <glyph glyph-name="uni0232" unicode="&#x232;" horiz-adv-x="1092" 
d="M348 1452h395v-103h-395v103zM546 681l299 557h220l-416 -730v-508h-205v508l-416 730h218z" />
    <glyph glyph-name="uni0233" unicode="&#x233;" horiz-adv-x="939" 
d="M272 1187h395v-103h-395v103zM463 279l264 694h193l-524 -1327h-182l157 400l-352 927h204z" />
    <glyph glyph-name="uni0237" unicode="&#x237;" horiz-adv-x="456" 
d="M71 -354h-96v151h41q67 0 92 31.5t25 121.5v1023h194v-1031q0 -167 -56.5 -231.5t-199.5 -64.5z" />
    <glyph glyph-name="uni0259" unicode="&#x259;" horiz-adv-x="1006" 
d="M506 985q213 0 321.5 -125.5t108.5 -373.5q0 -246 -109.5 -371.5t-320.5 -125.5q-218 0 -327 137.5t-99 416.5h657q-8 155 -65 228t-164 73q-96 0 -151 -48.5t-72 -128.5h-193q25 147 128.5 232.5t285.5 85.5zM508 131q105 0 162 69t67 217h-461q15 -286 232 -286z" />
    <glyph glyph-name="uni02BC" unicode="&#x2bc;" horiz-adv-x="380" 
d="M76 775l60 463h168l-2 -136l-95 -327h-131z" />
    <glyph glyph-name="circumflex" unicode="&#x2c6;" horiz-adv-x="818" 
d="M180 1120l213 194l210 -194l-85 -78l-125 134l-129 -134z" />
    <glyph glyph-name="caron" unicode="&#x2c7;" horiz-adv-x="818" 
d="M603 1236l-210 -194l-213 194l84 78l129 -134l125 134z" />
    <glyph glyph-name="breve" unicode="&#x2d8;" horiz-adv-x="831" 
d="M509 1266h110q-3 -221 -221 -221q-217 0 -223 221h112q3 -120 111 -120q51 0 80.5 30t30.5 90z" />
    <glyph glyph-name="dotaccent" unicode="&#x2d9;" horiz-adv-x="733" 
d="M345 1065q-33 0 -55.5 22.5t-22.5 54.5q0 33 22.5 55.5t55.5 22.5t55.5 -22.5t22.5 -55.5q0 -32 -22.5 -54.5t-55.5 -22.5z" />
    <glyph glyph-name="ring" unicode="&#x2da;" horiz-adv-x="783" 
d="M378 1031q-69 0 -113 41t-44 109q0 67 44.5 108t112.5 41q70 0 115 -41t45 -108q0 -68 -45 -109t-115 -41zM378 1105q34 0 56 20.5t22 55.5q0 33 -22.5 54t-55.5 21t-54.5 -21t-21.5 -54q0 -35 21 -55.5t55 -20.5z" />
    <glyph glyph-name="ogonek" unicode="&#x2db;" horiz-adv-x="730" 
d="M428 -233l34 -75q-70 -40 -138 -40q-72 0 -116 40t-44 106q0 127 170 229l90 -27q-74 -42 -114.5 -92t-40.5 -94q0 -34 20.5 -54t55.5 -20q36 0 83 27z" />
    <glyph glyph-name="tilde" unicode="&#x2dc;" horiz-adv-x="831" 
d="M242 1052l-69 46q20 52 56.5 85.5t85.5 33.5q35 0 66 -19t56.5 -38t47.5 -19q25 0 41 16t33 47l69 -46q-50 -116 -136 -116q-37 0 -68 19t-57 38t-49 19q-46 0 -76 -66z" />
    <glyph glyph-name="hungarumlaut" unicode="&#x2dd;" horiz-adv-x="850" 
d="M386 1307h111l-115 -246h-90zM552 1307h111l-115 -246h-90z" />
    <glyph glyph-name="gravecomb" unicode="&#x300;" 
d="M-653 1275h197l147 -214h-144z" />
    <glyph glyph-name="acutecomb" unicode="&#x301;" 
d="M-522 1061l149 214h196l-201 -214h-144z" />
    <glyph glyph-name="uni0302" unicode="&#x302;" 
d="M-603 1120l212 194l211 -194l-85 -78l-126 134l-129 -134z" />
    <glyph glyph-name="tildecomb" unicode="&#x303;" 
d="M-557 1052l-69 46q21 53 56.5 86t84.5 33q35 0 66 -19t56.5 -38t47.5 -19q25 0 41 16t33 47l69 -46q-50 -116 -136 -116q-37 0 -68 19t-56.5 38t-48.5 19q-46 0 -76 -66z" />
    <glyph glyph-name="uni0304" unicode="&#x304;" 
d="M-184 1084h-394v103h394v-103z" />
    <glyph glyph-name="uni0306" unicode="&#x306;" 
d="M-287 1266h110q-3 -221 -221 -221q-217 0 -223 221h112q3 -120 111 -120q51 0 80.5 30t30.5 90z" />
    <glyph glyph-name="uni0307" unicode="&#x307;" 
d="M-343 1065q-33 0 -55.5 22.5t-22.5 54.5q0 33 22.5 55.5t55.5 22.5t55.5 -22.5t22.5 -55.5q0 -32 -22.5 -54.5t-55.5 -22.5z" />
    <glyph glyph-name="uni0308" unicode="&#x308;" 
d="M-561 1065q-33 0 -54.5 21.5t-21.5 55.5t21.5 56t54.5 22q35 0 56.5 -22t21.5 -56t-21.5 -55.5t-56.5 -21.5zM-253 1065q-33 0 -55.5 21.5t-22.5 55.5t22.5 56t55.5 22q35 0 56.5 -22t21.5 -56t-21.5 -55.5t-56.5 -21.5z" />
    <glyph glyph-name="uni030A" unicode="&#x30a;" 
d="M-370 1031q-70 0 -114.5 41t-44.5 109q0 67 44.5 108t114.5 41t115 -41t45 -108q0 -68 -45 -109t-115 -41zM-370 1105q34 0 56 20.5t22 55.5q0 33 -22.5 54t-55.5 21t-55 -21t-22 -54q0 -35 21.5 -55.5t55.5 -20.5z" />
    <glyph glyph-name="uni030B" unicode="&#x30b;" 
d="M-649 1307h111l-115 -246h-90zM-483 1307h112l-115 -246h-91z" />
    <glyph glyph-name="uni030C" unicode="&#x30c;" 
d="M-180 1236l-211 -194l-212 194l83 78l129 -134l126 134z" />
    <glyph glyph-name="uni0312" unicode="&#x312;" 
d="M-251 1319l-69 -265h-142l89 265h122z" />
    <glyph glyph-name="uni0326" unicode="&#x326;" 
d="M-605 -371l34 281h157l-67 -281h-124z" />
    <glyph glyph-name="uni0327" unicode="&#x327;" 
d="M-345 7l-26 -92q87 1 130 -30.5t43 -91.5q0 -58 -45 -92.5t-135 -34.5q-92 0 -186 30l21 72q78 -21 152 -21q92 0 92 51q0 32 -34.5 44.5t-131.5 8.5l35 168h85v-12z" />
    <glyph glyph-name="uni0328" unicode="&#x328;" 
d="M-279 -233l33 -75q-70 -40 -138 -40q-71 0 -115 40t-44 106q0 126 172 229l88 -27q-74 -43 -115 -92.5t-41 -93.5q0 -34 20.5 -54t55.5 -20q38 0 84 27z" />
    <glyph glyph-name="uni0335" unicode="&#x335;" 
d="M-569 472v135h569v-135h-569z" />
    <glyph glyph-name="uni0336" unicode="&#x336;" 
d="M-1233 470v126h1233v-126h-1233z" />
    <glyph glyph-name="uni0337" unicode="&#x337;" 
d="M-478 506l478 382v-193l-478 -382v193z" />
    <glyph glyph-name="uni0338" unicode="&#x338;" 
d="M-1012 30l915 1238l90 -64l-916 -1239z" />
    <glyph glyph-name="uni0394" unicode="&#x394;" horiz-adv-x="1154" 
d="M483 1238h189l479 -1238h-1147zM578 1033l-336 -888h674z" />
    <glyph glyph-name="uni03A9" unicode="&#x3a9;" horiz-adv-x="1220" 
d="M953 152h202v-152h-463v152q119 12 177.5 108.5t58.5 293.5v157q0 194 -77.5 289t-238.5 95q-163 0 -240.5 -95t-77.5 -289v-157q0 -197 59 -293.5t178 -108.5v-152h-466v152h209q-186 124 -186 444v115q0 271 129 404.5t395 133.5q265 0 393.5 -133.5t128.5 -404.5v-115
q0 -321 -181 -444z" />
    <glyph glyph-name="uni03BC" unicode="&#x3bc;" horiz-adv-x="1135" 
d="M812 412v561h194v-973h-194v122q-80 -126 -246 -126q-163 0 -242 121v-471h-195v1327h195v-561q0 -126 66 -198.5t176 -72.5t178 72.5t68 198.5z" />
    <glyph glyph-name="pi" unicode="&#x3c0;" horiz-adv-x="1215" 
d="M1141 973v-145h-191v-573q0 -57 26 -83.5t89 -26.5h76v-145h-103q-156 0 -220.5 57.5t-64.5 188.5v582h-339v-828h-196v828h-177v145h1100z" />
    <glyph glyph-name="uni0400" unicode="&#x400;" horiz-adv-x="1096" 
d="M525 1539l147 -214h-143l-200 214h196zM348 566v-402h660v-164h-865v1238h851v-164h-646v-347h577v-161h-577z" />
    <glyph glyph-name="uni0401" unicode="&#x401;" horiz-adv-x="1096" 
d="M417 1328q-33 0 -54.5 22t-21.5 56t21.5 56t54.5 22q35 0 56.5 -22t21.5 -56t-21.5 -56t-56.5 -22zM725 1328q-33 0 -55.5 22t-22.5 56t22.5 56t55.5 22q35 0 56.5 -22t21.5 -56t-21.5 -56t-56.5 -22zM348 566v-402h660v-164h-865v1238h851v-164h-646v-347h577v-161h-577
z" />
    <glyph glyph-name="uni0402" unicode="&#x402;" horiz-adv-x="1429" 
d="M421 1074h-373v164h1066v-164h-488v-322q187 17 295 17q214 0 319.5 -91.5t107.5 -277.5v-23q0 -191 -99 -284t-312 -93h-146v159h107q129 0 186.5 52.5t57.5 159.5v25q0 109 -64 161.5t-195 52.5q-83 0 -257 -18v-592h-205v1074z" />
    <glyph glyph-name="uni0403" unicode="&#x403;" horiz-adv-x="956" 
d="M573 1540h196l-201 -214h-144zM923 1238v-164h-575v-1074h-205v1238h780z" />
    <glyph glyph-name="uni0404" unicode="&#x404;" horiz-adv-x="1197" 
d="M601 145q150 0 223 75.5t73 232.5h205q0 -234 -123 -349t-378 -115q-258 0 -380 122.5t-122 392.5v233q0 268 122 390t380 122q255 0 378 -113.5t123 -346.5h-205q0 155 -73 230.5t-223 75.5q-151 0 -224 -80.5t-73 -257.5v-53h425v-161h-425v-58q0 -179 73 -259.5
t224 -80.5z" />
    <glyph glyph-name="uni0405" unicode="&#x405;" horiz-adv-x="1119" 
d="M559 -12q-118 0 -205.5 23t-151 74.5t-90.5 140t-15 213.5h195q-15 -158 51.5 -228.5t220.5 -70.5q134 0 202.5 45t68.5 126q-1 53 -26 90.5t-89 75t-181 78.5q-133 45 -218.5 89t-132 93t-63.5 98.5t-17 115.5q0 130 118.5 214.5t348.5 84.5q130 0 222.5 -30t143 -85.5
t71.5 -126t17 -159.5h-191q4 117 -57 183t-201 66q-133 0 -196.5 -42.5t-63.5 -112.5q0 -68 57.5 -116t222.5 -104q178 -58 275.5 -119t133.5 -128t36 -165q0 -153 -124.5 -238t-361.5 -85z" />
    <glyph glyph-name="uni0406" unicode="&#x406;" horiz-adv-x="491" 
d="M348 0h-205v1238h205v-1238z" />
    <glyph glyph-name="uni0407" unicode="&#x407;" horiz-adv-x="491" 
d="M92 1330q-33 0 -54.5 22t-21.5 56t21.5 56t54.5 22q34 0 56 -22t22 -56t-22 -56t-56 -22zM400 1330q-33 0 -55.5 22t-22.5 56t22.5 56t55.5 22q34 0 56 -22t22 -56t-22 -56t-56 -22zM348 0h-205v1238h205v-1238z" />
    <glyph glyph-name="uni0408" unicode="&#x408;" horiz-adv-x="631" 
d="M184 0h-161v164h122q79 0 112 37.5t33 129.5v907h205v-929q0 -172 -68.5 -240.5t-242.5 -68.5z" />
    <glyph glyph-name="uni0409" unicode="&#x409;" horiz-adv-x="1872" 
d="M1107 842h264q219 0 319 -102.5t100 -318.5q0 -217 -100 -319t-319 -102h-469v1074h-456l-4 -326q-3 -182 -15 -304.5t-36 -212.5t-66 -138.5t-100.5 -70.5t-144.5 -22h-55l-2 186h25q47 0 77 14.5t52.5 48t34.5 100.5t18.5 159.5t8.5 236.5l7 493h861v-396zM1107 159
h219q138 0 198.5 63.5t60.5 198.5q0 134 -60.5 198t-198.5 64h-219v-524z" />
    <glyph glyph-name="uni040A" unicode="&#x40a;" horiz-adv-x="1897" 
d="M1130 769h257q218 0 323.5 -98t105.5 -293t-104 -286.5t-325 -91.5h-462v605h-577v-605h-205v1238h205v-469h577v469h205v-469zM1130 161h234q130 0 188.5 52t58.5 165t-59.5 171t-187.5 58h-234v-446z" />
    <glyph glyph-name="uni040B" unicode="&#x40b;" horiz-adv-x="1429" 
d="M928 769q215 0 317.5 -93t102.5 -283v-393h-206v363q0 133 -61.5 190t-196.5 57q-111 0 -258 -30v-580h-205v1074h-373v164h1086v-164h-508v-338q181 33 302 33z" />
    <glyph glyph-name="uni040C" unicode="&#x40c;" horiz-adv-x="1087" 
d="M621 1540h196l-202 -214h-143zM1074 0h-223l-336 552h-167v-552h-205v1238h205v-516h165l306 516h223l-370 -598z" />
    <glyph glyph-name="uni040D" unicode="&#x40d;" horiz-adv-x="1275" 
d="M585 1540l147 -214h-143l-200 214h196zM347 308l583 930h202v-1238h-202v932l-583 -932h-204v1238h204v-930z" />
    <glyph glyph-name="uni040E" unicode="&#x40e;" horiz-adv-x="1100" 
d="M550 1300q-86 0 -144.5 16.5t-92.5 51t-48.5 81t-15.5 114.5h165q2 -69 32.5 -101.5t103.5 -32.5t103.5 32.5t32.5 101.5h163q-1 -67 -15.5 -114.5t-48.5 -81.5t-92 -50.5t-143 -16.5zM562 515l296 723h217l-431 -1003q-54 -125 -130 -180t-205 -55h-132v166h92
q82 0 126 26.5t74 90.5l-444 955h216z" />
    <glyph glyph-name="uni040F" unicode="&#x40f;" horiz-adv-x="1260" 
d="M913 164v1074h205v-1238h-389v-258h-197v258h-389v1238h205v-1074h565z" />
    <glyph glyph-name="uni0410" unicode="&#x410;" horiz-adv-x="1119" 
d="M1116 0h-223l-95 295h-476l-96 -295h-222l456 1238h200zM561 1028l-190 -582h377z" />
    <glyph glyph-name="uni0411" unicode="&#x411;" horiz-adv-x="1160" 
d="M348 753h319q214 0 313 -92.5t99 -283.5t-99.5 -284t-312.5 -93h-524v1238h844v-164h-639v-321zM348 159h282q130 0 187 52.5t57 165.5q0 114 -57 165.5t-187 51.5h-282v-435z" />
    <glyph glyph-name="uni0412" unicode="&#x412;" horiz-adv-x="1176" 
d="M904 647q86 -26 138.5 -101t52.5 -203q0 -173 -100.5 -258t-292.5 -85h-559v1238h541q184 0 282.5 -81.5t98.5 -236.5q0 -104 -42.5 -175.5t-118.5 -97.5zM860 902q0 89 -51.5 129.5t-154.5 40.5h-309v-354h318q100 0 148.5 45t48.5 139zM345 166h318q114 0 169.5 47
t55.5 151q0 195 -225 195h-318v-393z" />
    <glyph glyph-name="uni0413" unicode="&#x413;" horiz-adv-x="956" 
d="M923 1238v-164h-575v-1074h-205v1238h780z" />
    <glyph glyph-name="uni0414" unicode="&#x414;" horiz-adv-x="1280" 
d="M1104 1238v-1074h141v-422h-196v258h-839v-258h-196v422h37q47 0 77 14.5t52 48.5t34 101.5t18.5 159.5t8.5 237l8 513h855zM371 164h527v910h-449l-5 -328q-6 -431 -73 -582z" />
    <glyph glyph-name="uni0415" unicode="&#x415;" horiz-adv-x="1096" 
d="M348 566v-402h660v-164h-865v1238h851v-164h-646v-347h577v-161h-577z" />
    <glyph glyph-name="uni0416" unicode="&#x416;" horiz-adv-x="1667" 
d="M1654 0h-227l-327 550h-164v-550h-206v550h-162l-329 -550h-225l396 640l-364 598h225l300 -515h159v515h206v-515h161l300 515h225l-366 -598z" />
    <glyph glyph-name="uni0417" unicode="&#x417;" horiz-adv-x="1154" 
d="M881 640q184 -63 184 -302q0 -343 -460 -343h-85q-211 0 -325.5 86t-114.5 246v37h196v-14q0 -96 65 -144.5t179 -48.5h88q255 0 255 200q0 105 -56 151t-174 46h-177v155h184q104 0 153 46t49 142q0 88 -63.5 136t-170.5 48h-93q-108 0 -171 -47.5t-63 -138.5v-14h-194
v33q0 157 112.5 243t315.5 86h93q207 0 320.5 -86t113.5 -243q0 -104 -42.5 -175t-118.5 -99z" />
    <glyph glyph-name="uni0418" unicode="&#x418;" horiz-adv-x="1275" 
d="M347 308l583 930h202v-1238h-202v932l-583 -932h-204v1238h204v-930z" />
    <glyph glyph-name="uni0419" unicode="&#x419;" horiz-adv-x="1275" 
d="M631 1300q-168 0 -233 63t-67 200h164q2 -69 32.5 -101.5t103.5 -32.5t104 32.5t33 101.5h162q-1 -67 -15.5 -114.5t-48.5 -81.5t-92 -50.5t-143 -16.5zM347 308l583 930h202v-1238h-202v932l-583 -932h-204v1238h204v-930z" />
    <glyph glyph-name="uni041A" unicode="&#x41a;" horiz-adv-x="1087" 
d="M1074 0h-223l-336 552h-167v-552h-205v1238h205v-516h165l306 516h223l-370 -598z" />
    <glyph glyph-name="uni041B" unicode="&#x41b;" horiz-adv-x="1250" 
d="M1107 1238v-1238h-205v1074h-456l-4 -326q-3 -182 -15 -304.5t-36 -212.5t-66 -138.5t-100.5 -70.5t-144.5 -22h-55l-2 186h25q47 0 77 14.5t52.5 48t34.5 100.5t18.5 159.5t8.5 236.5l7 493h861z" />
    <glyph glyph-name="uni041C" unicode="&#x41c;" horiz-adv-x="1570" 
d="M785 444l365 794h277v-1238h-196v990l-363 -772h-166l-362 772v-990h-197v1238h278z" />
    <glyph glyph-name="uni041D" unicode="&#x41d;" horiz-adv-x="1273" 
d="M925 725v513h205v-1238h-205v561h-577v-561h-205v1238h205v-513h577z" />
    <glyph glyph-name="uni041E" unicode="&#x41e;" horiz-adv-x="1213" 
d="M608 -11q-263 0 -386 122.5t-123 392.5v233q0 268 123 390t386 122q260 0 383 -122t123 -390v-233q0 -270 -123 -392.5t-383 -122.5zM608 143q154 0 227.5 81.5t73.5 260.5v272q0 177 -73.5 257.5t-227.5 80.5q-155 0 -229.5 -80.5t-74.5 -257.5v-272q0 -179 74.5 -260.5
t229.5 -81.5z" />
    <glyph glyph-name="uni041F" unicode="&#x41f;" horiz-adv-x="1264" 
d="M1121 1238v-1238h-205v1074h-568v-1074h-205v1238h978z" />
    <glyph glyph-name="uni0420" unicode="&#x420;" horiz-adv-x="1117" 
d="M617 1238q219 0 319 -104.5t100 -327.5q0 -222 -100 -326.5t-319 -104.5h-267l-2 -375h-205v1238h474zM350 536h223q138 0 198 64.5t60 205.5q0 142 -60 207.5t-198 65.5h-219z" />
    <glyph glyph-name="uni0421" unicode="&#x421;" horiz-adv-x="1192" 
d="M601 -11q-258 0 -380 122.5t-122 392.5v233q0 268 122 390t380 122q255 0 378 -113.5t123 -346.5h-205q0 155 -73 230.5t-223 75.5q-151 0 -224 -80.5t-73 -257.5v-272q0 -179 73 -259.5t224 -80.5q150 0 223 75.5t73 232.5h205q0 -234 -123 -349t-378 -115z" />
    <glyph glyph-name="uni0422" unicode="&#x422;" horiz-adv-x="1046" 
d="M1001 1238v-164h-375v-1074h-205v1074h-373v164h953z" />
    <glyph glyph-name="uni0423" unicode="&#x423;" horiz-adv-x="1100" 
d="M562 515l296 723h217l-431 -1003q-54 -125 -130 -180t-205 -55h-132v166h92q82 0 126 26.5t74 90.5l-444 955h216z" />
    <glyph glyph-name="uni0424" unicode="&#x424;" horiz-adv-x="1662" 
d="M934 1197h19q307 0 467.5 -126.5t160.5 -401.5v-89q0 -275 -161 -403.5t-467 -128.5h-19v-136h-205v136h-16q-308 0 -469 128.5t-161 403.5v89q0 275 160.5 401.5t469.5 126.5h16v129h205v-129zM711 203h18v840h-16q-212 0 -318.5 -89.5t-106.5 -283.5v-90
q0 -196 106.5 -286.5t316.5 -90.5zM1376 580v90q0 194 -106.5 283.5t-316.5 89.5h-19v-840h19q210 0 316.5 90.5t106.5 286.5z" />
    <glyph glyph-name="uni0425" unicode="&#x425;" horiz-adv-x="1117" 
d="M676 653l421 -653h-230l-308 508l-310 -508h-228l421 653l-371 585h228l260 -439l258 439h230z" />
    <glyph glyph-name="uni0426" unicode="&#x426;" horiz-adv-x="1294" 
d="M1065 0h-922v1238h205v-1074h563v1074h205v-1074h143v-422h-194v258z" />
    <glyph glyph-name="uni0427" unicode="&#x427;" horiz-adv-x="1154" 
d="M806 637v601h206v-1238h-206v470q-145 -30 -272 -30q-238 0 -345.5 101t-107.5 319v378h206v-373q0 -134 65 -195.5t209 -61.5q119 0 245 29z" />
    <glyph glyph-name="uni0428" unicode="&#x428;" horiz-adv-x="1899" 
d="M1551 164v1074h205v-1238h-1613v1238h205v-1074h499v1074h205v-1074h499z" />
    <glyph glyph-name="uni0429" unicode="&#x429;" horiz-adv-x="1943" 
d="M1712 0h-1569v1238h205v-1074h499v1074h205v-1074h499v1074h205v-1074h152v-422h-196v258z" />
    <glyph glyph-name="uni042A" unicode="&#x42a;" horiz-adv-x="1379" 
d="M612 842h251q225 0 330 -103t105 -318q0 -216 -105 -318.5t-330 -102.5h-456v1074h-359v164h564v-396zM612 159h207q145 0 209.5 63.5t64.5 198.5q0 134 -64.5 198t-209.5 64h-207v-524z" />
    <glyph glyph-name="uni042B" unicode="&#x42b;" horiz-adv-x="1577" 
d="M348 842h252q225 0 330 -103t105 -318q0 -216 -105 -318.5t-330 -102.5h-457v1238h205v-396zM1229 0v1238h205v-1238h-205zM348 159h207q145 0 209.5 63.5t64.5 198.5q0 134 -64.5 198t-209.5 64h-207v-524z" />
    <glyph glyph-name="uni042C" unicode="&#x42c;" horiz-adv-x="1117" 
d="M348 842h252q225 0 330 -103t105 -318q0 -216 -105 -318.5t-330 -102.5h-457v1238h205v-396zM348 159h207q145 0 209.5 63.5t64.5 198.5q0 134 -64.5 198t-209.5 64h-207v-524z" />
    <glyph glyph-name="uni042D" unicode="&#x42d;" horiz-adv-x="1197" 
d="M596 1249q259 0 380.5 -121.5t121.5 -390.5v-233q0 -270 -121.5 -392.5t-380.5 -122.5q-255 0 -377.5 115t-122.5 349h205q0 -157 72.5 -232.5t222.5 -75.5q151 0 224 80.5t73 259.5v58h-424v161h424v53q0 177 -73 257.5t-224 80.5q-150 0 -222.5 -75.5t-72.5 -230.5
h-205q0 233 122.5 346.5t377.5 113.5z" />
    <glyph glyph-name="uni042E" unicode="&#x42e;" horiz-adv-x="1692" 
d="M1088 1249q261 0 383 -121.5t122 -390.5v-233q0 -270 -122 -392.5t-383 -122.5t-384.5 122.5t-123.5 392.5v44h-232v-548h-205v1238h205v-523h232v22q0 268 123.5 390t384.5 122zM1388 485v272q0 177 -73.5 257.5t-226.5 80.5q-154 0 -228.5 -80.5t-74.5 -257.5v-272
q0 -179 74.5 -260.5t228.5 -81.5q153 0 226.5 81.5t73.5 260.5z" />
    <glyph glyph-name="uni042F" unicode="&#x42f;" horiz-adv-x="1103" 
d="M960 1238v-1238h-205v442h-256l-237 -442h-221l258 469q-223 74 -223 375q0 201 99 297.5t313 96.5h472zM538 601h217v478h-217q-135 0 -194 -57.5t-59 -177.5q0 -121 59.5 -182t193.5 -61z" />
    <glyph glyph-name="uni0430" unicode="&#x430;" horiz-adv-x="955" 
d="M502 982q181 0 259.5 -79t78.5 -272v-631h-187v136q-96 -145 -294 -145q-142 0 -225 77.5t-83 210.5q0 166 146 261t456 104q-4 109 -48 153.5t-143 42.5q-137 -3 -324 -60l-32 129q217 73 396 73zM423 143q45 0 84.5 13.5t73 41t53 76t19.5 113.5v129
q-119 -6 -202.5 -25t-127.5 -49t-63 -64t-19 -77q0 -73 46.5 -116t135.5 -42z" />
    <glyph glyph-name="uni0431" unicode="&#x431;" horiz-adv-x="1032" 
d="M562 904q186 0 293 -115.5t107 -333.5q0 -227 -112 -348t-332 -121q-223 0 -335 130.5t-112 399.5q0 328 85 481.5t299 192.5l97 18q110 20 145 40.5t39 62.5l1 15h160l-2 -21q-9 -115 -71.5 -167t-216.5 -79l-101 -17q-137 -24 -198.5 -94.5t-77.5 -224.5
q91 181 332 181zM518 127q123 0 185.5 82.5t62.5 234.5q0 318 -248 318q-247 0 -247 -318q0 -152 62.5 -234.5t184.5 -82.5z" />
    <glyph glyph-name="uni0432" unicode="&#x432;" horiz-adv-x="1027" 
d="M776 488q83 -20 129 -80t45 -148q0 -141 -89.5 -200.5t-262.5 -59.5h-469v973h458q340 0 340 -273q0 -81 -39 -136.5t-112 -75.5zM525 835h-201v-281h208q105 0 151.5 34.5t46.5 103.5q0 77 -49.5 110t-155.5 33zM325 138h213q104 0 153.5 34t49.5 111q0 67 -49 106
t-149 39h-218v-290z" />
    <glyph glyph-name="uni0433" unicode="&#x433;" horiz-adv-x="848" 
d="M325 0h-196v973h688v-163h-493z" />
    <glyph glyph-name="uni0434" unicode="&#x434;" horiz-adv-x="1135" 
d="M212 -228h-194v385h46q51 0 77 21t40.5 86t20.5 199l17 510h755v-816h126v-385h-194v228h-694v-228zM341 157h437v658h-368l-12 -355q-5 -232 -57 -303z" />
    <glyph glyph-name="uni0435" unicode="&#x435;" horiz-adv-x="1006" 
d="M501 983q219 0 327.5 -137t98.5 -416h-658q8 -155 65.5 -228t164.5 -73q96 0 151 48.5t72 128.5h192q-25 -147 -128 -232.5t-285 -85.5q-213 0 -321.5 125t-108.5 373q0 246 109.5 371.5t320.5 125.5zM499 842q-105 0 -162.5 -69.5t-67.5 -217.5h461q-15 287 -231 287z
" />
    <glyph glyph-name="uni0436" unicode="&#x436;" horiz-adv-x="1482" 
d="M1470 0h-209l-267 417h-156v-417h-194v417h-158l-267 -417h-207l322 499l-288 474h207l233 -389h158v389h194v-389h156l233 389h209l-290 -474z" />
    <glyph glyph-name="uni0437" unicode="&#x437;" horiz-adv-x="999" 
d="M755 488q82 -19 125 -76t43 -148q0 -135 -98.5 -205.5t-316.5 -70.5h-18q-220 0 -316 73.5t-96 228.5v21h193v-10q0 -167 219 -167h16q214 0 214 147q0 65 -49.5 103.5t-150.5 38.5h-115v131h108q104 0 152 34.5t48 104.5q0 149 -211 149h-17q-104 0 -159 -39.5
t-55 -116.5v-10h-193v17q0 292 403 292h23q403 0 403 -283q0 -82 -40 -138t-112 -76z" />
    <glyph glyph-name="uni0438" unicode="&#x438;" horiz-adv-x="1087" 
d="M959 973v-973h-195v688l-433 -688h-202v973h195l1 -688l434 688h200z" />
    <glyph glyph-name="uni0439" unicode="&#x439;" horiz-adv-x="1087" 
d="M545 1038q-159 0 -221 60.5t-64 190.5h154q2 -65 31.5 -96t99.5 -31t98.5 31t28.5 96h156q-1 -64 -14.5 -109t-45.5 -78t-87 -48.5t-136 -15.5zM959 973v-973h-195v688l-433 -688h-202v973h195l1 -688l434 688h200z" />
    <glyph glyph-name="uni043A" unicode="&#x43a;" horiz-adv-x="967" 
d="M957 0h-221l-264 416h-148v-416h-195v973h195v-389h148l232 389h219l-299 -474z" />
    <glyph glyph-name="uni043B" unicode="&#x43b;" horiz-adv-x="1087" 
d="M959 973v-973h-197v815h-369l-9 -355q-2 -98 -9.5 -167.5t-23 -122t-37.5 -84.5t-56.5 -52t-75.5 -27t-99 -7h-55v172h18q53 0 80 19.5t43.5 85t19.5 197.5l13 499h757z" />
    <glyph glyph-name="uni043C" unicode="&#x43c;" horiz-adv-x="1418" 
d="M1289 973v-973h-191v791l-306 -791h-166l-308 814l2 -814h-191v973h297l285 -755l290 755h288z" />
    <glyph glyph-name="uni043D" unicode="&#x43d;" horiz-adv-x="1082" 
d="M759 569v404h196v-973h-196v412h-434v-412h-196v973h195v-404h435z" />
    <glyph glyph-name="uni043E" unicode="&#x43e;" horiz-adv-x="1027" 
d="M513 -14q-442 0 -442 499q0 500 442 500q444 0 444 -500q0 -499 -444 -499zM513 127q127 0 188 88.5t61 270.5t-61 270t-188 88q-126 0 -186 -88t-60 -270t60 -270.5t186 -88.5z" />
    <glyph glyph-name="uni043F" unicode="&#x43f;" horiz-adv-x="1085" 
d="M957 973v-973h-195v815h-438l1 -815h-196v973h828z" />
    <glyph glyph-name="uni0440" unicode="&#x440;" horiz-adv-x="1077" 
d="M608 980q197 0 297.5 -127t100.5 -367t-100.5 -366.5t-297.5 -126.5q-192 0 -284 131v-478h-195v1327h195v-126q94 133 284 133zM562 129q248 0 248 357q0 358 -248 358q-245 0 -245 -358q0 -357 245 -357z" />
    <glyph glyph-name="uni0441" unicode="&#x441;" horiz-adv-x="988" 
d="M497 -11q-426 0 -426 496q0 498 426 498q189 0 298 -92.5t125 -262.5h-197q-14 104 -71 159t-155 55q-117 0 -173.5 -86.5t-56.5 -270.5q0 -181 56.5 -267.5t173.5 -86.5q99 0 156.5 56t69.5 160h197q-16 -171 -124.5 -264.5t-298.5 -93.5z" />
    <glyph glyph-name="uni0442" unicode="&#x442;" horiz-adv-x="894" 
d="M851 973v-163h-306l1 -810h-196v810h-306v163h807z" />
    <glyph glyph-name="uni0443" unicode="&#x443;" horiz-adv-x="939" 
d="M463 279l264 694h193l-524 -1327h-182l157 400l-352 927h204z" />
    <glyph glyph-name="uni0444" unicode="&#x444;" horiz-adv-x="1660" 
d="M1204 980q191 0 288.5 -127t97.5 -367t-97.5 -366.5t-288.5 -126.5q-91 0 -162.5 35.5t-113.5 102.5v-485h-196v483q-43 -66 -114 -101t-160 -35q-191 0 -289 126.5t-98 366.5t98 367t289 127q90 0 160.5 -36t113.5 -102v484h196v-488q88 142 276 142zM499 129
q113 0 173 91.5t60 265.5t-60 266t-173 92q-114 0 -173 -91.5t-59 -266.5t59 -266t173 -91zM1162 129q115 0 174 91t59 266t-59 266.5t-174 91.5q-111 0 -172.5 -92.5t-61.5 -265.5t61.5 -265t172.5 -92z" />
    <glyph glyph-name="uni0445" unicode="&#x445;" horiz-adv-x="939" 
d="M584 516l339 -516h-216l-237 389l-238 -389h-216l343 516l-304 457h216l199 -324l199 324h215z" />
    <glyph glyph-name="uni0446" unicode="&#x446;" horiz-adv-x="1128" 
d="M1091 -228h-196v228h-766v973h196l-1 -816h445v816h195v-816h127v-385z" />
    <glyph glyph-name="uni0447" unicode="&#x447;" horiz-adv-x="1024" 
d="M700 508v465h195v-973h-196v345q-122 -30 -232 -30q-200 0 -291 89t-91 300v269h196v-267q0 -130 50 -180t168 -50q91 0 201 32z" />
    <glyph glyph-name="uni0448" unicode="&#x448;" horiz-adv-x="1616" 
d="M1293 157v816h194v-973h-1358v973h196l-1 -816h387v816h195v-816h387z" />
    <glyph glyph-name="uni0449" unicode="&#x449;" horiz-adv-x="1650" 
d="M1613 -228h-196v228h-1288v973h196l-1 -816h387v816h195v-816h387v816h194v-816h126v-385z" />
    <glyph glyph-name="uni044A" unicode="&#x44a;" horiz-adv-x="1209" 
d="M538 665h238q193 0 284 -82t91 -245q0 -171 -90.5 -254.5t-284.5 -83.5h-433v810h-299v163h494v-308zM538 140h194q117 0 171 46.5t54 144.5t-54.5 146t-170.5 48h-194v-385z" />
    <glyph glyph-name="uni044B" unicode="&#x44b;" horiz-adv-x="1429" 
d="M324 665h238q193 0 284 -82t91 -245q0 -171 -90.5 -254.5t-284.5 -83.5h-433v973h195v-308zM1095 0v973h205v-973h-205zM324 140h194q117 0 170 46.5t53 144.5t-53.5 146t-169.5 48h-194v-385z" />
    <glyph glyph-name="uni044C" unicode="&#x44c;" horiz-adv-x="995" 
d="M324 665h238q193 0 284 -82t91 -245q0 -171 -90.5 -254.5t-284.5 -83.5h-433v973h195v-308zM324 140h194q117 0 170 46.5t53 144.5t-53.5 146t-169.5 48h-194v-385z" />
    <glyph glyph-name="uni044D" unicode="&#x44d;" horiz-adv-x="985" 
d="M488 983q211 0 318.5 -125t107.5 -372q0 -248 -107.5 -373t-318.5 -125q-192 0 -300.5 87t-120.5 245h197q12 -90 69 -139.5t155 -49.5q224 0 230 290h-387v131h387q-6 290 -230 290q-97 0 -153 -49.5t-71 -138.5h-195q14 160 123.5 244.5t295.5 84.5z" />
    <glyph glyph-name="uni044E" unicode="&#x44e;" horiz-adv-x="1483" 
d="M969 985q444 0 444 -500q0 -499 -444 -499q-406 0 -438 423h-197v-409h-205v973h205v-407h197q35 419 438 419zM969 127q127 0 188.5 88.5t61.5 270.5t-61.5 270t-188.5 88q-126 0 -186 -88t-60 -270t60 -270.5t186 -88.5z" />
    <glyph glyph-name="uni044F" unicode="&#x44f;" horiz-adv-x="1002" 
d="M874 973v-973h-195v343h-210l-181 -343h-212l205 364q-103 29 -151.5 101t-48.5 189q0 165 88.5 242t283.5 77h421zM493 483h186v350h-186q-117 0 -166 -40.5t-49 -132.5t49.5 -134.5t165.5 -42.5z" />
    <glyph glyph-name="uni0450" unicode="&#x450;" horiz-adv-x="1006" 
d="M453 1275l147 -214h-144l-200 214h197zM501 983q219 0 327.5 -137t98.5 -416h-658q8 -155 65.5 -228t164.5 -73q96 0 151 48.5t72 128.5h192q-25 -147 -128 -232.5t-285 -85.5q-213 0 -321.5 125t-108.5 373q0 246 109.5 371.5t320.5 125.5zM499 842q-105 0 -162.5 -69.5
t-67.5 -217.5h461q-15 287 -231 287z" />
    <glyph glyph-name="uni0451" unicode="&#x451;" horiz-adv-x="1006" 
d="M345 1065q-33 0 -54.5 21.5t-21.5 55.5t21.5 56t54.5 22q35 0 56.5 -22t21.5 -56t-21.5 -55.5t-56.5 -21.5zM653 1065q-33 0 -55.5 21.5t-22.5 55.5t22.5 56t55.5 22q34 0 55.5 -21.5t21.5 -56.5q0 -34 -21 -55.5t-56 -21.5zM501 983q219 0 327.5 -137t98.5 -416h-658
q8 -155 65.5 -228t164.5 -73q96 0 151 48.5t72 128.5h192q-25 -147 -128 -232.5t-285 -85.5q-213 0 -321.5 125t-108.5 373q0 246 109.5 371.5t320.5 125.5zM499 842q-105 0 -162.5 -69.5t-67.5 -217.5h461q-15 287 -231 287z" />
    <glyph glyph-name="uni0452" unicode="&#x452;" horiz-adv-x="1077" 
d="M592 980q183 0 277.5 -102.5t94.5 -295.5v-651q-1 -161 -58.5 -223t-199.5 -62h-94v151h39q67 0 92 31.5t25 121.5v632q0 122 -55.5 187.5t-160.5 65.5q-228 0 -228 -267v-568h-195v1074h-136v134h136v118h195v-118h238v-134h-238v-237q73 143 268 143z" />
    <glyph glyph-name="uni0453" unicode="&#x453;" horiz-adv-x="848" 
d="M368 1061l148 214h197l-202 -214h-143zM325 0h-196v973h688v-163h-493z" />
    <glyph glyph-name="uni0454" unicode="&#x454;" horiz-adv-x="985" 
d="M722 320h196q-12 -158 -120.5 -245t-300.5 -87q-211 0 -318.5 125t-107.5 373q0 247 107.5 372t318.5 125q186 0 295.5 -84.5t123.5 -244.5h-194q-15 89 -71.5 138.5t-153.5 49.5q-224 0 -230 -290h387v-131h-387q6 -290 230 -290q98 0 155.5 50t69.5 139z" />
    <glyph glyph-name="uni0455" unicode="&#x455;" horiz-adv-x="903" 
d="M455 -11q-216 0 -312.5 78.5t-84.5 261.5h177q-10 -103 44 -152.5t174 -49.5q208 0 208 122q0 59 -54 96.5t-214 82.5q-169 48 -245.5 118.5t-76.5 178.5q0 118 96 188t296 70q194 0 286.5 -84t85.5 -222h-174q3 78 -46.5 124t-159.5 46q-103 0 -151.5 -32.5t-48.5 -87.5
q0 -53 60.5 -89.5t218.5 -80.5q170 -48 241.5 -116.5t71.5 -185.5q0 -127 -95.5 -196.5t-296.5 -69.5z" />
    <glyph glyph-name="uni0456" unicode="&#x456;" horiz-adv-x="452" 
d="M324 1118h-195v173h195v-173zM324 0h-195v973h195v-973z" />
    <glyph glyph-name="uni0457" unicode="&#x457;" horiz-adv-x="463" 
d="M76 1065q-33 0 -54.5 21.5t-21.5 55.5t21.5 56t54.5 22q34 0 56 -22t22 -56t-21.5 -55.5t-56.5 -21.5zM384 1065q-33 0 -55.5 21.5t-22.5 55.5t22.5 56t55.5 22q34 0 56 -22t22 -56t-21.5 -55.5t-56.5 -21.5zM129 973h205v-973h-205v973z" />
    <glyph glyph-name="uni0458" unicode="&#x458;" horiz-adv-x="456" 
d="M327 1118h-194v173h194v-173zM71 -354h-96v151h41q67 0 92 31.5t25 121.5v1023h194v-1031q0 -167 -56.5 -231.5t-199.5 -64.5z" />
    <glyph glyph-name="uni0459" unicode="&#x459;" horiz-adv-x="1639" 
d="M959 665h247q193 0 284 -82t91 -245q0 -171 -90.5 -254.5t-284.5 -83.5h-444v815h-369l-9 -355q-2 -98 -9.5 -167.5t-23 -122t-37.5 -84.5t-56.5 -52t-75.5 -27t-99 -7h-55v172h18q53 0 80 19.5t43.5 85t19.5 197.5l13 499h757v-308zM959 140h203q117 0 171 46.5
t54 144.5t-54.5 146t-170.5 48h-203v-385z" />
    <glyph glyph-name="uni045A" unicode="&#x45a;" horiz-adv-x="1634" 
d="M955 614h244q196 -3 285.5 -76.5t89.5 -228.5q0 -162 -89 -235.5t-286 -73.5h-440v456h-434v-456h-196v973h195v-359h435v359h196v-359zM955 140h200q119 0 171.5 37.5t52.5 126.5q0 88 -53 127t-171 39h-200v-330z" />
    <glyph glyph-name="uni045B" unicode="&#x45b;" horiz-adv-x="1077" 
d="M592 980q183 0 277.5 -102.5t94.5 -295.5v-582h-196v582q0 122 -55.5 187.5t-160.5 65.5q-228 0 -228 -267v-568h-195v1074h-136v134h136v118h195v-118h238v-134h-238v-197q92 103 268 103z" />
    <glyph glyph-name="uni045C" unicode="&#x45c;" horiz-adv-x="967" 
d="M532 1275h197l-202 -214h-143zM957 0h-221l-264 416h-148v-416h-195v973h195v-389h148l232 389h219l-299 -474z" />
    <glyph glyph-name="uni045D" unicode="&#x45d;" horiz-adv-x="1087" 
d="M497 1282l147 -214h-143l-200 214h196zM959 973v-973h-195v688l-433 -688h-202v973h195l1 -688l434 688h200z" />
    <glyph glyph-name="uni045E" unicode="&#x45e;" horiz-adv-x="939" 
d="M469 1035q-86 0 -144.5 16.5t-92.5 51t-48.5 81t-15.5 114.5h164q2 -69 33 -101.5t104 -32.5t103.5 32.5t32.5 101.5h163q-1 -67 -15.5 -114.5t-48.5 -81.5t-92 -50.5t-143 -16.5zM463 279l264 694h193l-524 -1327h-182l157 400l-352 927h204z" />
    <glyph glyph-name="uni045F" unicode="&#x45f;" horiz-adv-x="1092" 
d="M769 157v816h195v-973h-318v-228h-197v228h-320v973h196v-816h444z" />
    <glyph glyph-name="uni0462" unicode="&#x462;" horiz-adv-x="1245" 
d="M479 759h258q206 0 316.5 -94t110.5 -287q0 -378 -427 -378h-463v923h-226v142h226v173h205v-173h404v-142h-404v-164zM479 159h225q247 0 247 219q0 222 -247 222h-225v-441z" />
    <glyph glyph-name="uni0463" unicode="&#x463;" horiz-adv-x="1144" 
d="M470 665h239q193 0 284 -82t91 -245q0 -171 -90.5 -254.5t-284.5 -83.5h-433v897h-283v154h283v275h194v-275h368v-154h-368v-232zM470 140h195q117 0 171 46.5t54 144.5t-54.5 146t-170.5 48h-195v-385z" />
    <glyph glyph-name="uni0490" unicode="&#x490;" horiz-adv-x="956" 
d="M729 1238v249h194v-413h-575v-1074h-205v1238h586z" />
    <glyph glyph-name="uni0491" unicode="&#x491;" horiz-adv-x="848" 
d="M325 0h-196v973h492v226h196v-389h-493z" />
    <glyph glyph-name="uni04C1" unicode="&#x4c1;" horiz-adv-x="1667" 
d="M833 1300q-86 0 -144.5 16.5t-92.5 51t-48.5 81t-15.5 114.5h165q2 -69 32.5 -101.5t103.5 -32.5t103.5 32.5t32.5 101.5h163q-1 -67 -15.5 -114.5t-48.5 -81.5t-92 -50.5t-143 -16.5zM1654 0h-227l-327 550h-164v-550h-206v550h-162l-329 -550h-225l396 640l-364 598
h225l300 -515h159v515h206v-515h161l300 515h225l-366 -598z" />
    <glyph glyph-name="uni04C2" unicode="&#x4c2;" horiz-adv-x="1482" 
d="M741 1035q-86 0 -144.5 16.5t-92.5 51t-48.5 81t-15.5 114.5h165q2 -69 32.5 -101.5t103.5 -32.5t103.5 32.5t32.5 101.5h163q-1 -67 -15.5 -114.5t-48.5 -81.5t-92 -50.5t-143 -16.5zM1470 0h-209l-267 417h-156v-417h-194v417h-158l-267 -417h-207l322 499l-288 474
h207l233 -389h158v389h194v-389h156l233 389h209l-290 -474z" />
    <glyph glyph-name="uni04F8" unicode="&#x4f8;" horiz-adv-x="1577" 
d="M630 1330q-33 0 -54.5 22t-21.5 56t21.5 56t54.5 22q34 0 55.5 -21.5t21.5 -56.5t-21.5 -56.5t-55.5 -21.5zM937 1330q-33 0 -55 22t-22 56t22 56t55 22q35 0 56.5 -22t21.5 -56t-21.5 -56t-56.5 -22zM348 842h252q225 0 330 -103t105 -318q0 -216 -105 -318.5
t-330 -102.5h-457v1238h205v-396zM1229 0v1238h205v-1238h-205zM348 159h207q145 0 209.5 63.5t64.5 198.5q0 134 -64.5 198t-209.5 64h-207v-524z" />
    <glyph glyph-name="uni04F9" unicode="&#x4f9;" horiz-adv-x="1429" 
d="M546 1065q-33 0 -54.5 21.5t-21.5 55.5t21.5 56t54.5 22q34 0 56 -22t22 -56t-21.5 -55.5t-56.5 -21.5zM854 1065q-33 0 -55.5 21.5t-22.5 55.5t22.5 56t55.5 22q34 0 56 -22t22 -56t-21.5 -55.5t-56.5 -21.5zM324 665h238q193 0 284 -82t91 -245q0 -171 -90.5 -254.5
t-284.5 -83.5h-433v973h195v-308zM1095 0v973h205v-973h-205zM324 140h194q117 0 170 46.5t53 144.5t-53.5 146t-169.5 48h-194v-385z" />
    <glyph glyph-name="uni05B0" unicode="&#x5b0;" 
d="M531 -264q-28 0 -48 20t-20 48q0 29 20 48t48 19t47.5 -19t19.5 -48q0 -28 -19.5 -48t-47.5 -20zM531 -467q-28 0 -48 19.5t-20 47.5t20 48t48 20t47.5 -20t19.5 -48t-19.5 -47.5t-47.5 -19.5z" />
    <glyph glyph-name="uni05B1" unicode="&#x5b1;" 
d="M329 -264q-28 0 -47.5 20t-19.5 48q0 29 19.5 48t47.5 19t47.5 -19t19.5 -48q0 -28 -19.5 -48t-47.5 -20zM532 -264q-28 0 -47.5 20t-19.5 48q0 29 19.5 48t47.5 19t48 -19t20 -48q0 -28 -20 -48t-48 -20zM727 -264q-29 0 -48 20t-19 48q0 29 19 48t48 19q28 0 47.5 -19
t19.5 -48q0 -28 -19.5 -48t-47.5 -20zM430 -439q-28 0 -47.5 20t-19.5 48t19.5 47.5t47.5 19.5q29 0 48 -19.5t19 -47.5t-19 -48t-48 -20zM727 -467q-29 0 -48 19.5t-19 47.5t19 48t48 20q28 0 47.5 -20t19.5 -48t-19.5 -47.5t-47.5 -19.5z" />
    <glyph glyph-name="uni05B2" unicode="&#x5b2;" 
d="M736 -264q-28 0 -47.5 20t-19.5 48q0 29 19.5 48t47.5 19t47.5 -19t19.5 -48q0 -28 -19.5 -48t-47.5 -20zM246 -241v98h348v-98h-348zM736 -467q-28 0 -47.5 19.5t-19.5 47.5t19.5 48t47.5 20t47.5 -20t19.5 -48t-19.5 -47.5t-47.5 -19.5z" />
    <glyph glyph-name="uni05B3" unicode="&#x5b3;" 
d="M741 -264q-28 0 -47.5 20t-19.5 48q0 29 19.5 48t47.5 19t47.5 -19t19.5 -48q0 -28 -19.5 -48t-47.5 -20zM391 -235h-142v92h354v-92h-138l20 -113v-87h-115v87zM741 -332q28 0 47.5 -20t19.5 -48t-19.5 -47.5t-47.5 -19.5t-47.5 19.5t-19.5 47.5t19.5 48t47.5 20z" />
    <glyph glyph-name="uni05B4" unicode="&#x5b4;" 
d="M531 -274q-31 0 -52 20.5t-21 51.5q0 29 21 50t52 21t51.5 -20.5t20.5 -50.5q0 -31 -20.5 -51.5t-51.5 -20.5z" />
    <glyph glyph-name="uni05B5" unicode="&#x5b5;" 
d="M428 -264q-28 0 -47.5 20t-19.5 48q0 29 19.5 48t47.5 19q29 0 48 -19t19 -48q0 -28 -19 -48t-48 -20zM633 -264q-29 0 -48 20t-19 48q0 29 19 48t48 19q28 0 47.5 -19t19.5 -48q0 -28 -19.5 -48t-47.5 -20z" />
    <glyph glyph-name="uni05B6" unicode="&#x5b6;" 
d="M428 -264q-28 0 -47.5 20t-19.5 48q0 29 19.5 48t47.5 19q29 0 48 -19t19 -48q0 -28 -19 -48t-48 -20zM633 -264q-29 0 -48 20t-19 48q0 29 19 48t48 19q28 0 47.5 -19t19.5 -48q0 -28 -19.5 -48t-47.5 -20zM531 -439q-28 0 -48 20t-20 48t20 47.5t48 19.5t47.5 -19.5
t19.5 -47.5t-19.5 -48t-47.5 -20z" />
    <glyph glyph-name="uni05B7" unicode="&#x5b7;" 
d="M357 -235v95h347v-95h-347z" />
    <glyph glyph-name="uni05B8" unicode="&#x5b8;" 
d="M354 -143h353v-92h-138l20 -113v-87h-113v87l19 113h-141v92z" />
    <glyph glyph-name="uni05B9" unicode="&#x5b9;" 
d="M531 1176q-31 0 -52 21t-21 52q0 29 21 49.5t52 20.5q29 0 49.5 -20.5t20.5 -49.5q0 -31 -20.5 -52t-49.5 -21z" />
    <glyph glyph-name="uni05BA" unicode="&#x5ba;" 
d="M531 1176q-31 0 -52 21t-21 52q0 29 21 49.5t52 20.5q29 0 49.5 -20.5t20.5 -49.5q0 -31 -20.5 -52t-49.5 -21z" />
    <glyph glyph-name="uni05BB" unicode="&#x5bb;" 
d="M531 -256q-26 0 -45 18.5t-19 44.5t19 45t45 19t45.5 -19t19.5 -45t-19.5 -44.5t-45.5 -18.5zM679 -384q-26 0 -45 19t-19 47q0 26 19 44.5t45 18.5q27 0 46.5 -18.5t19.5 -44.5q0 -27 -19.5 -46.5t-46.5 -19.5zM828 -509q-26 0 -45 18.5t-19 44.5t19 45t45 19t45.5 -19
t19.5 -45t-19.5 -44.5t-45.5 -18.5z" />
    <glyph glyph-name="uni05BC" unicode="&#x5bc;" 
d="M531 455q-29 0 -49 19.5t-20 48.5t20 49t49 20t49 -20t20 -49t-20 -48.5t-49 -19.5z" />
    <glyph glyph-name="uni05BE" unicode="&#x5be;" horiz-adv-x="601" 
d="M83 907v154h435v-154h-435z" />
    <glyph glyph-name="uni05BF" unicode="&#x5bf;" 
d="M336 1167v87h389v-87h-389z" />
    <glyph glyph-name="uni05C1" unicode="&#x5c1;" 
d="M531 1176q-31 0 -52 21t-21 52q0 29 21 49.5t52 20.5q29 0 49.5 -20.5t20.5 -49.5q0 -31 -20.5 -52t-49.5 -21z" />
    <glyph glyph-name="uni05C2" unicode="&#x5c2;" 
d="M531 1176q-31 0 -52 21t-21 52q0 29 21 49.5t52 20.5q29 0 49.5 -20.5t20.5 -49.5q0 -31 -20.5 -52t-49.5 -21z" />
    <glyph glyph-name="uni05C3" unicode="&#x5c3;" horiz-adv-x="435" 
d="M113 831v235h209v-235h-209zM113 0v235h209v-235h-209z" />
    <glyph glyph-name="uni05C6" unicode="&#x5c6;" horiz-adv-x="587" 
d="M543 0l-205 2q-200 3 -200 228v831h387v-154h-187v-617q0 -74 24.5 -105t86.5 -31h94v-154z" />
    <glyph glyph-name="uni05C7" unicode="&#x5c7;" 
d="M396 -131h267v-69h-104l14 -85v-65h-85v65l16 85h-108v69z" />
    <glyph glyph-name="uni05D0" unicode="&#x5d0;" horiz-adv-x="1138" 
d="M787 378l260 -378h-203l-414 601q-117 -26 -117 -177v-424h-198v423q0 122 58.5 203t169.5 101l-230 334h205l379 -550q64 11 94 52t30 121v377h198v-384q0 -130 -64 -203t-168 -96z" />
    <glyph glyph-name="uni05D1" unicode="&#x5d1;" horiz-adv-x="1038" 
d="M851 1061v-907h139v-154h-896v154h557v753h-557v154h757z" />
    <glyph glyph-name="uni05D2" unicode="&#x5d2;" horiz-adv-x="679" 
d="M394 251h-5q-25 -119 -102.5 -185t-206.5 -66h-61v154h61q158 0 225 95t45 257l-46 401h-207v154h370l152 -1061h-191z" />
    <glyph glyph-name="uni05D3" unicode="&#x5d3;" horiz-adv-x="974" 
d="M57 1061h838v-154h-129v-907h-200v907h-509v154z" />
    <glyph glyph-name="uni05D4" unicode="&#x5d4;" horiz-adv-x="1172" 
d="M133 1061h880v-1061h-199v907h-681v154zM140 0v617h200v-617h-200z" />
    <glyph glyph-name="uni05D5" unicode="&#x5d5;" horiz-adv-x="518" 
d="M359 1061v-1061h-200v1061h200z" />
    <glyph glyph-name="uni05D6" unicode="&#x5d6;" horiz-adv-x="695" 
d="M57 1061h592v-154h-186q-23 -23 -39 -50t-27.5 -71.5t-9 -111.5t19.5 -154l104 -520h-198l-97 492q-61 317 81 410v5h-240v154z" />
    <glyph glyph-name="uni05D7" unicode="&#x5d7;" horiz-adv-x="1200" 
d="M159 1061h524q140 0 221 -40t121 -138.5t40 -272.5v-610h-200v607q0 176 -51.5 238t-187.5 62h-267v-907h-200v1061z" />
    <glyph glyph-name="uni05D8" unicode="&#x5d8;" horiz-adv-x="1170" 
d="M1043 1061v-484q0 -161 -33.5 -271.5t-104.5 -178t-172.5 -97.5t-246.5 -30h-272l-122 1061h198l103 -907h93q201 0 278.5 93t77.5 330v330h-287v154h488z" />
    <glyph glyph-name="uni05D9" unicode="&#x5d9;" horiz-adv-x="481" 
d="M340 1061v-610h-200v610h200z" />
    <glyph glyph-name="uni05DA" unicode="&#x5da;" horiz-adv-x="896" 
d="M737 -265h-199v1172h-481v154h680v-1326z" />
    <glyph glyph-name="uni05DB" unicode="&#x5db;" horiz-adv-x="949" 
d="M94 1061h318q236 0 331 -108.5t95 -368.5v-106q0 -260 -95 -369t-331 -109h-318v154h270q155 0 214.5 77t59.5 255v89q0 178 -59.5 255t-214.5 77h-270v154z" />
    <glyph glyph-name="uni05DC" unicode="&#x5dc;" horiz-adv-x="907" 
d="M470 0h-208l336 907h-545v331h191v-177h612z" />
    <glyph glyph-name="uni05DD" unicode="&#x5dd;" horiz-adv-x="1199" 
d="M159 1061h557q186 0 264.5 -86t78.5 -299v-676h-900v1061zM354 154h509v488q0 150 -45 207.5t-157 57.5h-307v-753z" />
    <glyph glyph-name="uni05DE" unicode="&#x5de;" horiz-adv-x="1149" 
d="M99 1061h488q232 0 332 -114t100 -386v-561h-503v154h303v401q0 195 -60 273.5t-207 78.5h-103l-157 -907h-202l163 907h-154v154z" />
    <glyph glyph-name="uni05DF" unicode="&#x5df;" horiz-adv-x="518" 
d="M159 1061h200v-1326h-200v1326z" />
    <glyph glyph-name="uni05E0" unicode="&#x5e0;" horiz-adv-x="652" 
d="M246 0h-202v154h128q81 0 112 38t31 130v585h-186v154h386v-762q0 -168 -58.5 -233.5t-210.5 -65.5z" />
    <glyph glyph-name="uni05E1" unicode="&#x5e1;" horiz-adv-x="1170" 
d="M1042 1061v-469q0 -221 -59.5 -351.5t-176.5 -185.5t-311 -55h-283l-116 1061h946zM847 592v315h-541l83 -753h106q201 0 276.5 95t75.5 343z" />
    <glyph glyph-name="uni05E2" unicode="&#x5e2;" horiz-adv-x="1068" 
d="M736 546v515h200v-520q0 -220 -97 -336t-319 -178l-433 -121l-39 151l235 69l-193 935h200l179 -882l14 3q101 28 154 68.5t76 109t23 186.5z" />
    <glyph glyph-name="uni05E3" unicode="&#x5e3;" horiz-adv-x="1068" 
d="M113 1061h423q208 0 302 -103t94 -321v-902h-200v891q0 150 -54.5 215.5t-184.5 65.5h-187v-483h-193v637z" />
    <glyph glyph-name="uni05E4" unicode="&#x5e4;" horiz-adv-x="1105" 
d="M149 1061h429q223 0 319.5 -102.5t96.5 -344.5v-167q0 -242 -96.5 -344.5t-319.5 -102.5h-429v154h390q142 0 197.5 72t55.5 241v127q0 169 -55.5 241t-197.5 72h-199v-406h-191v560z" />
    <glyph glyph-name="uni05E5" unicode="&#x5e5;" horiz-adv-x="979" 
d="M658 723v338h200v-359q0 -92 -19.5 -164t-53 -119t-83 -80t-104 -49.5t-122.5 -24.5l173 -530h-198l-435 1326h198l214 -651q121 18 175.5 86.5t54.5 226.5z" />
    <glyph glyph-name="uni05E6" unicode="&#x5e6;" horiz-adv-x="1057" 
d="M960 0h-866v154h557l-623 907h207l350 -513q74 15 115 59.5t41 137.5v316h200v-338q0 -254 -262 -313z" />
    <glyph glyph-name="uni05E7" unicode="&#x5e7;" horiz-adv-x="1163" 
d="M127 1061h904v-614q0 -243 -95.5 -345t-307.5 -102h-108v154h76q61 0 102 12.5t72 44.5t45 89.5t14 143.5v463h-702v154zM136 -265v882h200v-882h-200z" />
    <glyph glyph-name="uni05E8" unicode="&#x5e8;" horiz-adv-x="935" 
d="M799 0h-199v568q0 197 -58.5 268t-212.5 71h-272v154h313q160 0 251.5 -43.5t134.5 -146.5t43 -286v-585z" />
    <glyph glyph-name="uni05E9" unicode="&#x5e9;" horiz-adv-x="1398" 
d="M1061 1061h193v-534q0 -150 -30.5 -251.5t-96 -162.5t-160 -87t-231.5 -26h-518l-112 1061h195l92 -907h307q101 0 166 17t110.5 61.5t65 120t19.5 193.5v515zM794 373h-189v688h189v-688z" />
    <glyph glyph-name="uni05EA" unicode="&#x5ea;" horiz-adv-x="1229" 
d="M113 1061h573q216 0 311.5 -101.5t95.5 -349.5v-610h-200v592q0 177 -57.5 246t-189.5 69h-195v-907h-400v154h211v753h-149v154z" />
    <glyph glyph-name="uni05F0" unicode="&#x5f0;" horiz-adv-x="1036" 
d="M359 1061v-1061h-200v1061h200zM877 1061v-1061h-200v1061h200z" />
    <glyph glyph-name="uni05F1" unicode="&#x5f1;" horiz-adv-x="969" 
d="M340 1061v-610h-200v610h200zM810 1061v-1061h-200v1061h200z" />
    <glyph glyph-name="uni05F2" unicode="&#x5f2;" horiz-adv-x="960" 
d="M340 1061v-610h-200v610h200zM819 1061v-610h-200v610h200z" />
    <glyph glyph-name="uni05F3" unicode="&#x5f3;" horiz-adv-x="380" 
d="M76 775l60 463h168l-2 -136l-95 -327h-131z" />
    <glyph glyph-name="uni05F4" unicode="&#x5f4;" horiz-adv-x="606" 
d="M76 775l60 463h151v-136l-94 -327h-117zM320 775l60 463h151v-136l-94 -327h-117z" />
    <glyph glyph-name="uni0950" unicode="&#x950;" horiz-adv-x="1386" 
d="M656 1291h115v-140h-115v140zM1042 1125l21 -94q-164 -55 -343.5 -55t-348.5 55l22 94q153 -54 327 -54t322 54zM550 504q73 -61 107.5 -133t34.5 -171q0 -125 -85.5 -198t-240.5 -73q-96 0 -185 48t-154 152l81 71q62 -77 120.5 -116.5t128.5 -39.5q90 0 138 39.5
t48 119.5q0 140 -113 255l-7 -2l-138 -35l-34 110l133 38q78 14 111.5 45.5t33.5 92.5q0 54 -34 84.5t-104 30.5q-71 0 -114.5 -38t-43.5 -123h-137q0 276 295 276q146 0 213.5 -55t67.5 -152q0 -82 -28 -135.5t-94 -90.5zM1029 937q289 0 289 -362v-59q0 -362 -289 -362
q-283 0 -283 362v59q0 362 283 362zM1178 527v37q0 132 -36 195t-113 63q-75 0 -110 -63t-35 -195v-37q0 -132 35 -195t110 -63q77 0 113 63t36 195z" />
    <glyph glyph-name="uni0E3F" unicode="&#xe3f;" horiz-adv-x="1199" 
d="M904 647q86 -26 138.5 -101t52.5 -203q0 -173 -100.5 -258t-292.5 -85h-55v-159h-120v159h-384v1238h384v159h120v-159h37q184 0 282.5 -81.5t98.5 -236.5q0 -104 -42.5 -175.5t-118.5 -97.5zM345 718h182v354h-182v-354zM654 1072h-7v-354h16q100 0 148.5 45t48.5 139
q0 89 -51.5 129.5t-154.5 40.5zM345 559v-393h182v393h-182zM647 166h16q114 0 169.5 47t55.5 151q0 195 -225 195h-16v-393z" />
    <glyph glyph-name="uni1E3E" unicode="&#x1e3e;" horiz-adv-x="1570" 
d="M833 1540h196l-201 -214h-144zM785 444l365 794h277v-1238h-196v990l-363 -772h-166l-362 772v-990h-197v1238h278z" />
    <glyph glyph-name="uni1E3F" unicode="&#x1e3f;" horiz-adv-x="1584" 
d="M870 1275h196l-201 -214h-143zM1128 982q342 0 342 -365v-617h-195v617q0 105 -46.5 162.5t-142.5 57.5t-142.5 -57.5t-46.5 -162.5v-617h-195v617q0 105 -47 162.5t-142 57.5t-142 -58.5t-47 -166.5v-612h-195v973h195v-92q80 101 244 101q197 0 276 -131
q80 131 284 131z" />
    <glyph glyph-name="Wgrave" unicode="&#x1e80;" horiz-adv-x="1777" 
d="M842 1530l147 -214h-144l-199 214h196zM1265 255l261 983h220l-363 -1238h-228l-267 925l-267 -925h-227l-362 1238h219l264 -983l281 983h186z" />
    <glyph glyph-name="wgrave" unicode="&#x1e81;" horiz-adv-x="1505" 
d="M700 1275l147 -214h-143l-200 214h196zM1066 223l195 750h210l-302 -973h-198l-218 727l-219 -727h-198l-302 973h212l193 -750l222 750h183z" />
    <glyph glyph-name="Wacute" unicode="&#x1e82;" horiz-adv-x="1777" 
d="M937 1530h197l-202 -214h-143zM1265 255l261 983h220l-363 -1238h-228l-267 925l-267 -925h-227l-362 1238h219l264 -983l281 983h186z" />
    <glyph glyph-name="wacute" unicode="&#x1e83;" horiz-adv-x="1505" 
d="M794 1275h196l-201 -214h-143zM1066 223l195 750h210l-302 -973h-198l-218 727l-219 -727h-198l-302 973h212l193 -750l222 750h183z" />
    <glyph glyph-name="Wdieresis" unicode="&#x1e84;" horiz-adv-x="1777" 
d="M734 1319q-33 0 -54.5 22t-21.5 56t21.5 56t54.5 22q34 0 56 -21.5t22 -56.5t-22 -56.5t-56 -21.5zM1042 1319q-33 0 -55.5 22t-22.5 56t22.5 56t55.5 22q34 0 56 -21.5t22 -56.5t-22 -56.5t-56 -21.5zM1265 255l261 983h220l-363 -1238h-228l-267 925l-267 -925h-227
l-362 1238h219l264 -983l281 983h186z" />
    <glyph glyph-name="wdieresis" unicode="&#x1e85;" horiz-adv-x="1505" 
d="M592 1065q-33 0 -54.5 21.5t-21.5 55.5t21.5 56t54.5 22q34 0 56 -22t22 -56t-21.5 -55.5t-56.5 -21.5zM900 1065q-33 0 -55.5 21.5t-22.5 55.5t22.5 56t55.5 22q34 0 56 -22t22 -56t-21.5 -55.5t-56.5 -21.5zM1066 223l195 750h210l-302 -973h-198l-218 727l-219 -727
h-198l-302 973h212l193 -750l222 750h183z" />
    <glyph glyph-name="uni1E9E" unicode="&#x1e9e;" horiz-adv-x="1199" 
d="M1047 1238l-310 -502q186 -3 291.5 -98.5t105.5 -267.5q0 -179 -113.5 -279t-314.5 -100q-113 0 -211 32l34 138q83 -20 152 -20q132 0 205.5 62t73.5 174q0 115 -76 174t-221 59h-99v129l235 349h-240q-235 0 -235 -253v-835h-175v826q0 211 100.5 311.5t305.5 100.5
h492z" />
    <glyph glyph-name="uni1EBC" unicode="&#x1ebc;" horiz-adv-x="1096" 
d="M492 1381q-46 0 -76 -65l-69 46q20 52 56 85t85 33q35 0 66 -19t56.5 -38t47.5 -19q17 0 32 10.5t22.5 21.5t19.5 32l69 -46q-50 -117 -136 -117q-37 0 -68 19t-56.5 38t-48.5 19zM348 566v-402h660v-164h-865v1238h851v-164h-646v-347h577v-161h-577z" />
    <glyph glyph-name="uni1EBD" unicode="&#x1ebd;" horiz-adv-x="1006" 
d="M419 1118q-46 0 -76 -66l-69 46q20 52 56.5 85.5t85.5 33.5q35 0 66 -19t56 -38t47 -19q25 0 41.5 16.5t33.5 46.5l69 -46q-50 -116 -137 -116q-37 0 -68 19t-56.5 38t-48.5 19zM501 983q219 0 327.5 -137t98.5 -416h-658q8 -155 65.5 -228t164.5 -73q96 0 151 48.5
t72 128.5h192q-25 -147 -128 -232.5t-285 -85.5q-213 0 -321.5 125t-108.5 373q0 246 109.5 371.5t320.5 125.5zM499 842q-105 0 -162.5 -69.5t-67.5 -217.5h461q-15 287 -231 287z" />
    <glyph glyph-name="Ygrave" unicode="&#x1ef2;" horiz-adv-x="1092" 
d="M501 1540l146 -214h-143l-200 214h197zM546 681l299 557h220l-416 -730v-508h-205v508l-416 730h218z" />
    <glyph glyph-name="ygrave" unicode="&#x1ef3;" horiz-adv-x="939" 
d="M423 1275l146 -214h-143l-200 214h197zM463 279l264 694h193l-524 -1327h-182l157 400l-352 927h204z" />
    <glyph glyph-name="uni1EF8" unicode="&#x1ef8;" horiz-adv-x="1092" 
d="M467 1383q-46 0 -76 -65l-69 46q20 52 56 85t85 33q35 0 66 -19t56.5 -38t47.5 -19q17 0 32 10.5t22.5 21.5t19.5 32l69 -46q-50 -117 -136 -117q-37 0 -68 19t-56.5 38t-48.5 19zM546 681l299 557h220l-416 -730v-508h-205v508l-416 730h218z" />
    <glyph glyph-name="uni1EF9" unicode="&#x1ef9;" horiz-adv-x="939" 
d="M389 1118q-46 0 -76 -66l-69 46q20 52 56.5 85.5t85.5 33.5q35 0 66 -19t56 -38t47 -19q25 0 41.5 16.5t33.5 46.5l69 -46q-50 -116 -137 -116q-37 0 -68 19t-56.5 38t-48.5 19zM463 279l264 694h193l-524 -1327h-182l157 400l-352 927h204z" />
    <glyph glyph-name="uni200B" unicode="&#x200b;" 
 />
    <glyph glyph-name="endash" unicode="&#x2013;" horiz-adv-x="1142" 
d="M76 463v145h998v-145h-998z" />
    <glyph glyph-name="emdash" unicode="&#x2014;" horiz-adv-x="1283" 
d="M19 467v136h1249v-136h-1249z" />
    <glyph glyph-name="quoteleft" unicode="&#x2018;" horiz-adv-x="380" 
d="M304 1238l-60 -463h-168l2 138l95 325h131z" />
    <glyph glyph-name="quoteright" unicode="&#x2019;" horiz-adv-x="380" 
d="M76 775l60 463h168l-2 -136l-95 -327h-131z" />
    <glyph glyph-name="quotesinglbase" unicode="&#x201a;" horiz-adv-x="380" 
d="M58 -216l60 462h169v-136l-98 -326h-131z" />
    <glyph glyph-name="quotedblleft" unicode="&#x201c;" horiz-adv-x="626" 
d="M295 1238l-60 -463h-159l2 138l95 325h122zM550 1238l-60 -463h-159l1 138l96 325h122z" />
    <glyph glyph-name="quotedblright" unicode="&#x201d;" horiz-adv-x="626" 
d="M76 775l60 463h159l-1 -136l-96 -327h-122zM331 775l60 463h159v-136l-97 -327h-122z" />
    <glyph glyph-name="quotedblbase" unicode="&#x201e;" horiz-adv-x="626" 
d="M58 -216l60 462h160v-136l-98 -326h-122zM315 -216l60 462h159l-2 -136l-97 -326h-120z" />
    <glyph glyph-name="dagger" unicode="&#x2020;" horiz-adv-x="1142" 
d="M663 1326v-463h411v-145h-998v145h402v463h185zM663 -354h-185v595h185v-595z" />
    <glyph glyph-name="daggerdbl" unicode="&#x2021;" horiz-adv-x="1142" 
d="M663 1326v-463h411v-145h-998v145h402v463h185zM478 101h-402v145h998v-145h-411v-455h-185v455z" />
    <glyph glyph-name="bullet" unicode="&#x2022;" horiz-adv-x="834" 
d="M417 191q-143 0 -243.5 101t-100.5 244q0 142 100.5 242.5t243.5 100.5q142 0 242.5 -100.5t100.5 -242.5q0 -143 -100.5 -244t-242.5 -101z" />
    <glyph glyph-name="ellipsis" unicode="&#x2026;" horiz-adv-x="1213" 
d="M90 0v235h209v-235h-209zM502 0v235h209v-235h-209zM914 0v235h209v-235h-209z" />
    <glyph glyph-name="perthousand" unicode="&#x2030;" horiz-adv-x="1996" 
d="M329 1243q260 0 260 -244v-235q0 -122 -65.5 -185t-194.5 -63q-130 0 -196 63t-66 185v235q0 244 262 244zM327 0h-127l870 1238h127zM202 1006v-251q0 -65 33.5 -100.5t93.5 -35.5t93.5 35.5t33.5 100.5v251q0 65 -33 100t-94 35t-94 -35t-33 -100zM1077 716
q260 0 260 -244v-235q0 -248 -260 -248q-129 0 -194.5 63t-65.5 185v235q0 244 260 244zM1675 716q260 0 260 -244v-235q0 -122 -65.5 -185t-194.5 -63t-194.5 63t-65.5 185v235q0 244 260 244zM950 479v-251q0 -65 33.5 -100.5t93.5 -35.5t93.5 35.5t33.5 100.5v251
q0 65 -33 100t-94 35t-94 -35t-33 -100zM1547 479v-251q0 -65 34 -100.5t94 -35.5t93.5 35.5t33.5 100.5v251q0 65 -33 100t-94 35t-94.5 -35t-33.5 -100z" />
    <glyph glyph-name="uni2031" unicode="&#x2031;" horiz-adv-x="2594" 
d="M329 1243q260 0 260 -244v-235q0 -122 -65.5 -185t-194.5 -63q-130 0 -196 63t-66 185v235q0 244 262 244zM327 0h-127l870 1238h127zM202 1006v-251q0 -65 33.5 -100.5t93.5 -35.5t93.5 35.5t33.5 100.5v251q0 65 -33 100t-94 35t-94 -35t-33 -100zM1077 716
q260 0 260 -244v-235q0 -248 -260 -248q-129 0 -194.5 63t-65.5 185v235q0 244 260 244zM1675 716q260 0 260 -244v-235q0 -122 -65.5 -185t-194.5 -63t-194.5 63t-65.5 185v235q0 244 260 244zM2273 716q260 0 260 -244v-235q0 -122 -65.5 -185t-194.5 -63q-130 0 -196 63
t-66 185v235q0 244 262 244zM950 479v-251q0 -65 33.5 -100.5t93.5 -35.5t93.5 35.5t33.5 100.5v251q0 65 -33 100t-94 35t-94 -35t-33 -100zM1547 479v-251q0 -65 34 -100.5t94 -35.5t93.5 35.5t33.5 100.5v251q0 65 -33 100t-94 35t-94.5 -35t-33.5 -100zM2145 479v-251
q0 -65 34 -100.5t94 -35.5t93.5 35.5t33.5 100.5v251q0 65 -33 100t-94 35t-94.5 -35t-33.5 -100z" />
    <glyph glyph-name="guilsinglleft" unicode="&#x2039;" horiz-adv-x="562" 
d="M446 110l-336 378l336 379l97 -80l-265 -299l265 -299z" />
    <glyph glyph-name="guilsinglright" unicode="&#x203a;" horiz-adv-x="562" 
d="M453 488l-336 -378l-98 79l266 299l-266 299l98 80z" />
    <glyph glyph-name="uni203D" unicode="&#x203d;" horiz-adv-x="921" 
d="M564 1397l-3 -159q281 -37 281 -288q0 -61 -15.5 -110.5t-40.5 -82.5t-54.5 -61.5t-59.5 -54t-55 -53t-40.5 -66.5t-15.5 -87v-62h-191v83q0 53 15 96.5t39.5 73t54 56t59 51t54 51t39.5 63.5t15 81q0 170 -184 170q-98 0 -144 -44t-46 -143v-69h-196v90
q0 138 71.5 213.5t218.5 92.5l4 159h194zM569 0h-208v235h208v-235z" />
    <glyph glyph-name="fraction" unicode="&#x2044;" horiz-adv-x="341" 
d="M-202 0h-127l872 1238h127z" />
    <glyph glyph-name="uni2051" unicode="&#x2051;" horiz-adv-x="760" 
d="M299 780l-99 74l108 129l-163 37l37 117l152 -67l-14 170h124l-18 -174l158 71l37 -117l-165 -37l112 -129l-101 -74l-87 140zM426 352l158 69l37 -117l-165 -37l112 -129l-101 -73l-87 140l-81 -140l-99 73l108 129l-163 37l37 117l152 -67l-14 169h124z" />
    <glyph glyph-name="uni20A9" unicode="&#x20a9;" horiz-adv-x="1835" 
d="M1604 654h202v-104h-232l-163 -550h-226l-159 550h-216l-159 -550h-228l-161 550h-230v104h200l-170 584h219l156 -584h221l168 584h186l166 -584h223l155 584h220zM918 925l-78 -271h156zM465 550l78 -295l85 295h-163zM1208 550l85 -295l79 295h-164z" />
    <glyph glyph-name="uni20AA" unicode="&#x20aa;" horiz-adv-x="1482" 
d="M1008 736v-395h-161v351q0 89 -28 124.5t-112 35.5h-387v-852h-161v973h628q121 0 171 -55.5t50 -181.5zM1066 0h-562v640h163v-520h341q106 0 140.5 46.5t34.5 164.5v642h161v-635q0 -178 -63 -258t-215 -80z" />
    <glyph glyph-name="Euro" unicode="&#x20ac;" horiz-adv-x="1069" 
d="M661 147q144 0 250 95l71 -136q-122 -117 -331 -117q-230 0 -347 110t-129 348h-115v119h113v113h-113v119h115q12 234 129.5 341.5t346.5 107.5q209 0 331 -96l-71 -143q-98 83 -250 83q-139 0 -209 -69.5t-77 -223.5h433l-58 -119h-377v-113h324l-59 -119h-265
q8 -158 78.5 -229t209.5 -71z" />
    <glyph glyph-name="uni20B9" unicode="&#x20b9;" horiz-adv-x="1098" 
d="M994 1238v-154h-295q76 -66 86 -182h209v-85h-209q-11 -160 -101.5 -238t-274.5 -78h-41l474 -501h-234l-463 501v150h214q112 0 171 40.5t71 125.5h-456v85h458q-16 182 -244 182h-203v154h838z" />
    <glyph glyph-name="uni20BA" unicode="&#x20ba;" horiz-adv-x="1177" 
d="M906 585h169q-11 -585 -580 -585h-208v479l-190 -69v106l190 69v128l-190 -69v106l190 69v419h175v-355l302 109v-108l-302 -109v-128l302 110v-106l-302 -110v-389h46q207 0 300.5 106.5t97.5 326.5z" />
    <glyph glyph-name="uni20BD" unicode="&#x20bd;" horiz-adv-x="1154" 
d="M672 499h-232v-103h464v-134h-464v-262h-205v262h-106v134h106v103h-106v159h106v580h437q208 0 305 -92t97 -278q0 -187 -97 -278t-305 -91zM646 1079h-206v-421h206q120 0 171 52.5t51 157.5t-51 158t-171 53z" />
    <glyph glyph-name="uni20BF" unicode="&#x20bf;" horiz-adv-x="1199" 
d="M1095 343q0 -324 -352 -341v-161h-113v159h-107v-159h-111v159h-269v1238h269v159h111v-159h107v159h113v-161q156 -14 239 -94.5t83 -221.5q0 -104 -42.5 -175.5t-118.5 -97.5q86 -26 138.5 -101t52.5 -203zM860 902q0 89 -51.5 129.5t-154.5 40.5h-309v-354h318
q100 0 148.5 45t48.5 139zM345 166h318q114 0 169.5 47t55.5 151q0 195 -225 195h-318v-393z" />
    <glyph glyph-name="uni2113" unicode="&#x2113;" horiz-adv-x="721" 
d="M592 106l31 -55q-72 -54 -150.5 -66t-139.5 13.5t-100.5 85.5t-39.5 141v175q-50 -28 -105 -50l-24 71q68 25 129 62v500q0 267 210 267q102 0 148.5 -51t46.5 -157q0 -152 -70.5 -292.5t-189.5 -245.5v-271q0 -83 36.5 -128t94.5 -44t123 45zM338 1008v-412
q185 180 185 421q0 76 -22 110.5t-69 34.5q-94 0 -94 -154z" />
    <glyph glyph-name="uni2116" unicode="&#x2116;" horiz-adv-x="1890" 
d="M401 1238l554 -1017v1017h189v-1238h-256l-554 1015v-1015h-191v1238h258zM1523 897q122 0 184.5 -59t62.5 -173v-225q0 -235 -247 -235q-250 0 -250 235v225q0 114 63.5 173t186.5 59zM1643 432v240q0 62 -31.5 94.5t-88.5 32.5q-58 0 -90 -32.5t-32 -94.5v-240
q0 -62 32.5 -96t89.5 -34t88.5 34t31.5 96zM1746 0h-462v88h462v-88z" />
    <glyph glyph-name="trademark" unicode="&#x2122;" horiz-adv-x="990" 
d="M48 1238h352v-106h-122v-341h-112v341h-118v106zM693 900h-39l-111 202v-311h-111v447h132l110 -180l108 180h132v-447h-111v311z" />
    <glyph glyph-name="estimated" unicode="&#x212e;" horiz-adv-x="1462" 
d="M730 1252q298 0 465.5 -177.5t166.5 -499.5h-1040v-350q161 -172 447 -172q314 0 474 235l55 -37q-161 -270 -530 -270q-312 0 -490.5 172t-178.5 461q0 288 172.5 463t458.5 175zM730 1176q-255 0 -408 -166v-354h819v354q-150 166 -411 166z" />
    <glyph glyph-name="uni2135" unicode="&#x2135;" horiz-adv-x="1282" 
d="M1199 865l-557 -322l-559 322l559 327zM559 672l117 -3l7 8q-23 63 -23 110q27 0 54.5 2t50 6t45.5 9.5t39 11t32.5 12t25.5 10.5t18.5 8.5t10.5 4.5l24 -18l36 14l1 11l-76 42q-23 13 -3 43l-60 26l-50 -32l37 -33q-29 -23 -50 -36t-57.5 -26.5t-74.5 -13.5q9 88 69 224
q-33 12 -72 11.5t-53 -5.5q0 -4 4 -44t4 -59q-38 15 -86.5 10t-82.5 -31q-30 -23 -66 -80l-3 -2l-30 15q-25 12 -29 12l-53 -18l25 -28q2 0 12 1.5t18.5 0t17.5 -6.5l76 -45q35 8 49 18q6 9 16 34.5t22.5 46.5t29.5 32q41 26 79 9q-3 -12 -18 -45t-28.5 -65.5t-24 -65.5
t-6.5 -53.5t26 -21.5zM624 511v-640l-557 324l-2 640zM1215 195l-555 -324v642l557 322zM757 88l-11 -60l39 13q6 21 25 33l76 48q14 45 14 51q-53 71 -63 115q-10 46 31 78q54 -57 193 -175l59 99v11q-69 9 -108 35q35 59 56 124.5t25 96t4 48.5l24 14l9 35l-7 6l-74 -41
q-31 -16 -41 18l-53 -39v-55l50 12q4 -45 5 -63t-6 -58.5t-26 -74.5q-45 34 -94.5 92t-61.5 81q-30 -18 -62.5 -54.5t-9.5 -47.5q56 -25 94 -48q-68 -55 -68 -156q0 -37 34 -93l-2 -11l-26 -16q-25 -14 -25 -18zM470 28l61 30l-2 13q-79 101 -113 162q29 12 49 37t27.5 53
t10.5 45.5t3 27.5l25 -16l10 27l-7 12l-76 43q-15 9 -27.5 29t-16.5 40l-51 19v-55l49 -42q7 -41 3 -94t-29 -65q-32 56 -68 132t-64 141.5t-31 72.5q-25 13 -57 1q-23 -9 -14 -22q55 -79 97 -150q-36 12 -56.5 -7.5t-13.5 -68.5q8 -54 35 -133l-2 -5l-28 14q-21 12 -25 12
l-12 -46l39 -32q0 7 8 10t20 -4l80 -48q12 29 12 37q-6 18 -21.5 58t-27 73t-16.5 55q-7 26 0 39t31 0q49 -102 198 -395z" />
    <glyph glyph-name="uni2136" unicode="&#x2136;" horiz-adv-x="1768" 
d="M1687 928q49 -21 41 -60q-10 -49 -64 -31q-442 154 -1004 106q-8 -86 12 -135q7 -17 -5 -33t-34 -23q-19 -5 -33.5 5t-19.5 32q-12 52 -12 134q-59 -83 -89 -121t-51 -50q-15 -8 -24.5 -12t-21.5 -3.5t-23 9.5q-29 21 -4 64q2 4 5 9t7.5 10.5t8.5 10t11 12t12 12.5
t15 14.5t15.5 15t18 17.5t19.5 19q-177 -20 -294 -40q-45 -7 -55 33q-7 24 4 39.5t37 19.5q42 6 190 38t208 50q23 41 68 147t47 109q8 17 25 24.5t33 0.5q15 -7 22.5 -23t4.5 -32q-10 -61 -73 -182q59 23 109.5 46t71 34.5t26.5 15.5q14 11 31.5 8t27.5 -19q20 -29 -11 -60
q-23 -23 -205 -97q609 32 953 -114zM1215 826q56 -8 92 -41.5t35 -77.5q-2 -90 -98 -232t-223.5 -271.5t-254.5 -233.5t-195 -133q-120 -51 -175 46q-47 83 11.5 234.5t183.5 283.5q64 68 137 115.5t135.5 60.5t96.5 -25q16 -23 17 -50t-13.5 -60.5t-32.5 -62.5t-41 -56.5
t-37.5 -43.5t-21.5 -23q-19 -17 -42 -18t-39 13q-41 37 9 87q80 80 109 136q-88 -32 -173.5 -114.5t-140.5 -179.5t-69 -180q-6 -38 7.5 -60t52.5 -2q169 90 388.5 313t285.5 380q21 41 11 67.5t-63 31.5q-148 13 -313 -57.5t-279 -168.5q-20 -17 -45 -14.5t-37 23.5
q-10 19 -4.5 41.5t24.5 36.5q29 22 66 47.5t115 67.5t154.5 71t177 45.5t189.5 3.5z" />
    <glyph glyph-name="uni2137" unicode="&#x2137;" horiz-adv-x="1340" 
d="M844 911q352 -196 352 -515q0 -86 -37.5 -168.5t-103.5 -148.5t-167 -106t-218 -40t-217.5 40t-166 106t-102.5 148.5t-37 168.5q0 320 352 515q-235 69 -342 88l34 133q136 -29 238.5 -60t240.5 -85q240 94 480 145l35 -133q-113 -20 -341 -88zM670 65q167 0 279 99.5
t112 236.5q0 143 -99.5 257.5t-291.5 192.5q-192 -78 -290.5 -192.5t-98.5 -257.5q0 -138 111.5 -237t277.5 -99zM670 539q-40 0 -70.5 31t-30.5 72q0 40 30.5 69.5t70.5 29.5t70.5 -29.5t30.5 -69.5q0 -41 -30.5 -72t-70.5 -31zM373 442l53 115q142 -71 245 -71t245 71
l53 -115q-99 -51 -175 -67l101 -129l-110 -80l-115 154l-115 -154l-108 80l99 129q-73 19 -173 67z" />
    <glyph glyph-name="uni2150" unicode="&#x2150;" horiz-adv-x="1232" 
d="M62 0l872 1238h127l-872 -1238h-127zM382 529h-318v102h102v414h-93v92q63 0 86 20q24 20 30 81h99v-607h94v-102zM766 608v101h445l-233 -711h-133l209 610h-288z" />
    <glyph glyph-name="uni2151" unicode="&#x2151;" horiz-adv-x="1245" 
d="M375 529h-318v102h104v414h-96v92q65 0 89 20q24 22 30 81h99v-607h92v-102zM64 0l870 1238h129l-872 -1238h-127zM948 720q115 0 182 -64t67 -175t-70 -198l-230 -283h-144l202 251q-12 -2 -37 -2q-97 0 -158 63t-61 169q0 112 66.5 175.5t182.5 63.5zM828 476
q0 -64 33.5 -104t88.5 -40q54 0 89 41.5t35 102.5q0 65 -34.5 106t-89.5 41t-88.5 -40.5t-33.5 -106.5z" />
    <glyph glyph-name="uni2152" unicode="&#x2152;" horiz-adv-x="1681" 
d="M189 0h-127l870 1238h127zM382 529h-318v102h104v414h-95v92q64 0 88 20q24 22 30 81h99v-607h92v-102zM1356 716q260 0 260 -244v-235q0 -122 -65.5 -185t-194.5 -63q-261 0 -261 248v235q0 244 261 244zM860 709h99v-606h93v-103h-318v103h103v413h-94v92q63 0 86 20
q25 21 31 81zM1484 228v251q0 65 -33.5 100t-94.5 35t-94 -35t-33 -100v-251q0 -65 33.5 -100.5t93.5 -35.5t94 35.5t34 100.5z" />
    <glyph glyph-name="uni2153" unicode="&#x2153;" horiz-adv-x="1232" 
d="M373 529h-316v102h102v414h-95v92q64 0 88 20q24 22 30 81h99v-607h92v-102zM64 0l872 1238h127l-872 -1238h-127zM1058 370q61 -14 95 -60.5t34 -118.5q0 -98 -63.5 -150t-179.5 -52q-117 0 -181.5 60t-56.5 179h118q-4 -71 29 -107t95 -36q59 0 89.5 29.5t30.5 83.5
q0 119 -141 119h-39v88h32q127 0 127 111q0 49 -28 76t-82 27q-56 0 -84.5 -36t-24.5 -100h-119q-8 113 54.5 173t172.5 60q113 0 170.5 -49.5t57.5 -139.5q0 -124 -106 -157z" />
    <glyph glyph-name="uni2154" unicode="&#x2154;" horiz-adv-x="1476" 
d="M513 527h-462l246 338q80 110 80 182q0 99 -105 99q-119 0 -111 -164h-117q-11 135 52.5 199t179.5 64q106 0 164.5 -52t58.5 -148q0 -103 -85 -217l-158 -198h257v-103zM241 0l871 1238h128l-872 -1238h-127zM1303 370q60 -14 94 -60.5t34 -118.5q0 -98 -63.5 -150
t-179.5 -52q-117 0 -181.5 60t-56.5 179h118q-3 -71 29.5 -107t94.5 -36q59 0 89.5 29.5t30.5 83.5q0 119 -141 119h-39v88h32q127 0 127 111q0 103 -110 103q-55 0 -83.5 -36t-25.5 -100h-117q-8 114 53.5 173.5t172.5 59.5q112 0 170.5 -49.5t58.5 -139.5
q0 -123 -107 -157z" />
    <glyph glyph-name="uni2155" unicode="&#x2155;" horiz-adv-x="1299" 
d="M373 529h-318v102h102v414h-95v92q64 0 88 20q24 22 30 81h99v-607h94v-102zM65 0l871 1238h127l-870 -1238h-128zM1036 501q207 0 207 -253q0 -259 -235 -259q-112 0 -171 55t-59 156h119q0 -52 29.5 -82.5t83.5 -30.5q115 0 115 159q0 163 -115 163q-39 0 -69 -18
t-44 -51h-119v367h441v-99h-329l1 -159q54 52 145 52z" />
    <glyph glyph-name="uni2156" unicode="&#x2156;" horiz-adv-x="1490" 
d="M513 527h-462l246 338q80 110 80 182q0 99 -105 99q-119 0 -111 -164h-117q-11 135 52.5 199t179.5 64q106 0 164.5 -52t58.5 -148q0 -103 -85 -217l-158 -198h257v-103zM232 0l870 1238h127l-870 -1238h-127zM1227 501q209 0 209 -253q0 -259 -237 -259
q-111 0 -169.5 55t-58.5 156h117q0 -52 29.5 -82.5t83.5 -30.5q117 0 117 159q0 163 -117 163q-80 0 -113 -69h-117v367h440v-99h-329v-159q57 52 145 52z" />
    <glyph glyph-name="uni2157" unicode="&#x2157;" horiz-adv-x="1506" 
d="M536 718q0 -98 -63 -150t-179 -52q-117 0 -182 60t-57 179h118q-4 -71 29 -107t95 -36q59 0 89.5 29.5t30.5 83.5q0 119 -141 119h-39v88h32q127 0 127 111q0 103 -109 103q-57 0 -85.5 -36t-24.5 -100h-119q-8 113 54.5 173t172.5 60q113 0 170.5 -49.5t57.5 -139.5
q0 -124 -106 -157q61 -14 95 -60.5t34 -118.5zM241 0l871 1238h128l-872 -1238h-127zM1243 501q207 0 207 -253q0 -259 -235 -259q-111 0 -169.5 55t-58.5 156h117q0 -52 29.5 -82.5t83.5 -30.5q116 0 116 159q0 163 -116 163q-80 0 -113 -69h-117v367h440v-99h-329v-159
q57 52 145 52z" />
    <glyph glyph-name="uni2158" unicode="&#x2158;" horiz-adv-x="1517" 
d="M485 529h-117v136h-345v50l228 523h127l-203 -476h193v174h117v-174h70v-97h-70v-136zM251 0l872 1238h127l-872 -1238h-127zM1254 501q209 0 209 -253q0 -259 -237 -259q-111 0 -170 55t-59 156h117q0 -52 29.5 -82.5t83.5 -30.5q117 0 117 159q0 163 -117 163
q-80 0 -113 -69h-117v367h441v-99h-329v-159q57 52 145 52z" />
    <glyph glyph-name="uni2159" unicode="&#x2159;" horiz-adv-x="1154" 
d="M377 529h-319v102h105v414h-96v92q65 0 89 20q24 22 30 81h99v-607h92v-102zM65 0l871 1238h129l-872 -1238h-128zM893 458q97 0 158 -63t61 -169q0 -111 -66.5 -174.5t-182.5 -63.5q-115 0 -182 63.5t-67 174.5t70 198l230 283h144l-200 -251q11 2 35 2zM861 85
q55 0 88.5 40.5t33.5 106.5q0 64 -33.5 103.5t-88.5 39.5q-54 0 -89 -41t-35 -102q0 -65 34.5 -106t89.5 -41z" />
    <glyph glyph-name="uni215A" unicode="&#x215a;" horiz-adv-x="1377" 
d="M539 778q0 -258 -235 -258q-111 0 -169.5 54.5t-58.5 155.5h117q0 -52 29.5 -82.5t83.5 -30.5q117 0 117 159q0 163 -117 163q-80 0 -113 -69h-117v368h440v-99h-329v-159q55 51 145 51q207 0 207 -253zM249 0l872 1238h128l-871 -1238h-129zM1116 458q97 0 158 -63
t61 -169q0 -111 -66.5 -174.5t-182.5 -63.5q-115 0 -182 63.5t-67 174.5t70 198l230 283h143l-199 -251q11 2 35 2zM1084 85q55 0 88.5 40.5t33.5 106.5q0 64 -33.5 103.5t-88.5 39.5q-54 0 -89 -41t-35 -102q0 -65 34.5 -106t89.5 -41z" />
    <glyph glyph-name="oneeighth" unicode="&#x215b;" horiz-adv-x="1234" 
d="M377 529h-319v102h103v414h-94v92q65 0 87 20q24 20 30 81h99v-607h94v-102zM62 0l870 1238h127l-870 -1238h-127zM1059 393q129 -46 129 -193q0 -105 -65 -159.5t-191 -54.5q-127 0 -192.5 54.5t-65.5 159.5q0 148 131 193q-92 46 -92 143q0 86 56.5 133t162.5 47
t162.5 -47t56.5 -133q0 -100 -92 -143zM932 637q-106 0 -106 -108q0 -45 27 -69.5t79 -24.5t79 24.5t27 69.5q0 52 -27 80t-79 28zM932 71q129 0 129 136q0 68 -33 104.5t-96 36.5t-97 -36.5t-34 -104.5q0 -136 131 -136z" />
    <glyph glyph-name="threeeighths" unicode="&#x215c;" horiz-adv-x="1457" 
d="M536 718q0 -98 -63 -150t-179 -52q-117 0 -182 60t-57 179h118q-4 -71 29 -107t95 -36q59 0 89.5 29.5t30.5 83.5q0 119 -141 119h-39v88h32q127 0 127 111q0 103 -109 103q-57 0 -85.5 -36t-24.5 -100h-119q-8 113 54.5 173t172.5 60q113 0 170.5 -49.5t57.5 -139.5
q0 -124 -106 -157q61 -14 95 -60.5t34 -118.5zM230 0l872 1238h127l-870 -1238h-129zM1282 393q129 -46 129 -193q0 -105 -65 -159.5t-191 -54.5q-127 0 -192.5 54.5t-65.5 159.5q0 148 131 193q-92 46 -92 143q0 87 57 133.5t164 46.5q105 0 161 -47t56 -133
q0 -100 -92 -143zM1157 637q-108 0 -108 -108q0 -45 27.5 -69.5t80.5 -24.5q50 0 77 24.5t27 69.5q0 108 -104 108zM1155 71q129 0 129 136q0 68 -33 104.5t-96 36.5t-97 -36.5t-34 -104.5q0 -136 131 -136z" />
    <glyph glyph-name="fiveeighths" unicode="&#x215d;" horiz-adv-x="1489" 
d="M539 778q0 -258 -235 -258q-111 0 -169.5 54.5t-58.5 155.5h117q0 -52 29.5 -82.5t83.5 -30.5q117 0 117 159q0 163 -117 163q-80 0 -113 -69h-117v368h440v-99h-329v-159q55 51 145 51q207 0 207 -253zM249 0l872 1238h128l-872 -1238h-128zM1314 393q131 -45 131 -193
q0 -105 -65.5 -159.5t-192.5 -54.5q-126 0 -191.5 54.5t-65.5 159.5q0 147 129 193q-92 43 -92 143q0 86 57.5 133t163.5 47q105 0 161.5 -47t56.5 -133q0 -97 -92 -143zM1188 637q-107 0 -107 -108q0 -94 107 -94q50 0 77.5 24.5t27.5 69.5q0 52 -27 80t-78 28zM1187 71
q129 0 129 136q0 68 -33 104.5t-96 36.5q-62 0 -96.5 -37t-34.5 -104t34 -101.5t97 -34.5z" />
    <glyph glyph-name="seveneighths" unicode="&#x215e;" horiz-adv-x="1361" 
d="M246 527h-135l211 610h-290v101h446zM94 0l872 1238h127l-872 -1238h-127zM1187 393q129 -46 129 -193q0 -105 -65.5 -159.5t-191.5 -54.5q-127 0 -192.5 54.5t-65.5 159.5q0 148 131 193q-92 46 -92 143q0 86 56.5 133t162.5 47q105 0 161.5 -46.5t56.5 -133.5
q0 -96 -90 -143zM1059 637q-106 0 -106 -108q0 -45 27 -69.5t79 -24.5q51 0 78 24.5t27 69.5q0 52 -27 80t-78 28zM1059 71q63 0 96 34.5t33 101.5q0 68 -33.5 104.5t-95.5 36.5q-63 0 -97 -36.5t-34 -104.5q0 -136 131 -136z" />
    <glyph glyph-name="uni215F" unicode="&#x215f;" horiz-adv-x="733" 
d="M373 529h-316v102h102v414h-95v92q64 0 88 20q24 22 30 81h99v-607h92v-102zM64 0l870 1238h129l-872 -1238h-127z" />
    <glyph glyph-name="uni2189" unicode="&#x2189;" horiz-adv-x="1538" 
d="M587 1005v-236q0 -247 -260 -247q-262 0 -262 247v236q0 244 262 244q260 0 260 -244zM294 0l870 1238h127l-870 -1238h-127zM200 1012v-252q0 -66 33.5 -101t93.5 -35q61 0 94.5 35.5t33.5 100.5v252q0 65 -33.5 99.5t-94.5 34.5q-60 0 -93.5 -34.5t-33.5 -99.5z
M1365 370q60 -14 94 -60.5t34 -118.5q0 -98 -63.5 -150t-179.5 -52t-180.5 60t-57.5 179h120q-7 -143 124 -143q58 0 89 29.5t31 83.5q0 119 -143 119h-37v88h31q126 0 126 111q0 103 -108 103q-57 0 -85.5 -36t-24.5 -100h-118q-8 114 53.5 173.5t172.5 59.5
q113 0 170.5 -49.5t57.5 -139.5q0 -124 -106 -157z" />
    <glyph glyph-name="arrowleft" unicode="&#x2190;" horiz-adv-x="1451" 
d="M350 608h1024v-145h-1024l251 -244l-106 -106l-426 423l424 424l107 -106z" />
    <glyph glyph-name="arrowup" unicode="&#x2191;" horiz-adv-x="992" 
d="M497 1171l423 -426l-106 -107l-245 252v-1024h-145v1024l-245 -252l-106 107z" />
    <glyph glyph-name="arrowright" unicode="&#x2192;" horiz-adv-x="1451" 
d="M852 854l107 106l424 -424l-426 -423l-106 106l251 244h-1024v145h1024z" />
    <glyph glyph-name="arrowdown" unicode="&#x2193;" horiz-adv-x="992" 
d="M568 228l246 251l106 -106l-425 -426l-422 426l106 106l244 -251v1024h145v-1024z" />
    <glyph glyph-name="arrowboth" unicode="&#x2194;" horiz-adv-x="1899" 
d="M1231 854l106 106l424 -424l-424 -423l-106 106l251 244h-1065l252 -244l-107 -106l-426 423l426 424l107 -106l-252 -246h1065z" />
    <glyph glyph-name="arrowupdn" unicode="&#x2195;" horiz-adv-x="992" 
d="M568 1001v-937l246 253l106 -107l-425 -428l-422 428l106 107l242 -252v934l-242 -251l-106 106l422 428l425 -426l-106 -106z" />
    <glyph glyph-name="uni2196" unicode="&#x2196;" horiz-adv-x="1245" 
d="M410 867l725 -726l-102 -102l-724 721l4 -348h-150l-2 601h601v-150z" />
    <glyph glyph-name="uni2197" unicode="&#x2197;" horiz-adv-x="1245" 
d="M483 829v151h601l-2 -600h-150l5 350l-723 -725l-103 103l724 725z" />
    <glyph glyph-name="uni2198" unicode="&#x2198;" horiz-adv-x="1245" 
d="M1084 -7h-601v150l352 -3l-724 725l103 102l723 -725l-5 350h150z" />
    <glyph glyph-name="uni2199" unicode="&#x2199;" horiz-adv-x="1245" 
d="M1033 967l102 -102l-725 -725l352 3v-150h-601l2 599h150l-4 -348z" />
    <glyph glyph-name="uni21AF" unicode="&#x21af;" horiz-adv-x="799" 
d="M474 191l210 152l69 -99l-403 -278l-260 375l101 73l152 -219l131 520l-338 -64l161 675h140l-133 -527l334 57z" />
    <glyph glyph-name="arrowdbldown" unicode="&#x21d3;" horiz-adv-x="1269" 
d="M455 1326h122v-1098h-73l-343 453l104 69l190 -281v857zM693 228v1098h122v-857l191 281l103 -69l-343 -453h-73zM23 0v126h1224v-126h-1224z" />
    <glyph glyph-name="uni21DE" unicode="&#x21de;" horiz-adv-x="992" 
d="M920 900l-106 -108l-245 251v-417h165v-106h-165v-119h165v-106h-165v-276h-145v276h-168v106h168v119h-168v106h168v417l-245 -249l-106 106l424 425z" />
    <glyph glyph-name="uni21DF" unicode="&#x21df;" horiz-adv-x="992" 
d="M569 195l245 251l106 -108l-423 -425l-424 425l106 106l245 -249v417h-168v106h168v119h-168v106h168v276h145v-276h165v-106h-165v-119h165v-106h-165v-417z" />
    <glyph glyph-name="uni21E7" unicode="&#x21e7;" horiz-adv-x="1451" 
d="M727 1265l656 -694v-5h-331v-566h-651v566h-332v3zM930 111v550h209l-412 416l-412 -416h208v-550h407z" />
    <glyph glyph-name="uni21E9" unicode="&#x21e9;" horiz-adv-x="1451" 
d="M1383 672v-5l-656 -694l-658 696v3h332v566h651v-566h331zM1139 577h-209v550h-407v-550h-208l412 -416z" />
    <glyph glyph-name="uni21EA" unicode="&#x21ea;" horiz-adv-x="1451" 
d="M727 1265l656 -694v-5h-331v-228h-651v228h-332v3zM932 446v215h209l-414 418l-414 -418h209v-215h410zM401 265h651v-265h-651v265zM932 94v78h-410v-78h410z" />
    <glyph glyph-name="uni21F1" unicode="&#x21f1;" horiz-adv-x="1358" 
d="M115 1326h946v-67h-877v-914h-69v981zM584 946l622 -621l-92 -90l-621 621v-281h-116v486h470v-115h-263z" />
    <glyph glyph-name="partialdiff" unicode="&#x2202;" horiz-adv-x="999" 
d="M416 1238l373 -472q70 -91 103 -175t33 -181q0 -201 -111 -311t-317 -110q-205 0 -316.5 110t-111.5 311q0 181 105 286t272 105q60 0 97 -12l-359 449h232zM497 141q104 0 165 72t61 197q0 121 -62 192.5t-164 71.5q-104 0 -164.5 -71t-60.5 -193q0 -125 60.5 -197
t164.5 -72z" />
    <glyph glyph-name="emptyset" unicode="&#x2205;" horiz-adv-x="1423" 
d="M1236 1238l-108 -149q99 -87 155 -209.5t56 -262.5q0 -130 -49 -246.5t-132.5 -199.5t-200 -131.5t-246.5 -48.5q-177 0 -327 89l-59 -80h-132l104 143q-100 86 -156 209t-56 265q0 174 83 318t226.5 226t316.5 82q182 0 331 -90l62 85h132zM207 617q0 -111 43 -208.5
t120 -167.5l599 815q-116 69 -258 69q-139 0 -255 -67.5t-182.5 -184.5t-66.5 -256zM711 110q140 0 256.5 67.5t183 183.5t66.5 256q0 110 -42.5 207.5t-118.5 167.5l-600 -815q118 -67 255 -67z" />
    <glyph glyph-name="uni2206" unicode="&#x2206;" horiz-adv-x="1154" 
d="M483 1238h189l479 -1238h-1147zM578 1033l-336 -888h674z" />
    <glyph glyph-name="product" unicode="&#x220f;" horiz-adv-x="1317" 
d="M143 -354v1680h1031v-1680h-196v1535h-638v-1535h-197z" />
    <glyph glyph-name="summation" unicode="&#x2211;" horiz-adv-x="1034" 
d="M46 1326h904v-145h-610l445 -695l-445 -695h610v-145h-904l536 840z" />
    <glyph glyph-name="minus" unicode="&#x2212;" horiz-adv-x="710" 
d="M78 463v145h555v-145h-555z" />
    <glyph glyph-name="radical" unicode="&#x221a;" horiz-adv-x="1103" 
d="M575 -354h-209l-320 846l182 72l237 -640l418 1402h185z" />
    <glyph glyph-name="infinity" unicode="&#x221e;" horiz-adv-x="1340" 
d="M1006 852q119 0 192.5 -83t73.5 -233t-73.5 -233.5t-192.5 -83.5q-83 0 -171.5 55t-162.5 150q-76 -95 -164.5 -150t-171.5 -55q-118 0 -193.5 84t-75.5 233t75.5 232.5t193.5 83.5q83 0 171.5 -55t164.5 -150q74 95 162.5 150t171.5 55zM352 366q110 0 246 170
q-136 170 -246 170q-67 0 -107 -44.5t-40 -125.5t40 -125.5t107 -44.5zM989 366q66 0 106 45.5t40 124.5t-40 124.5t-106 45.5q-110 0 -241 -170q131 -170 241 -170z" />
    <glyph glyph-name="integral" unicode="&#x222b;" horiz-adv-x="687" 
d="M541 1335q93 0 193 -21l-18 -127q-64 14 -116 14q-64 0 -90.5 -37t-31.5 -129l-71 -1095q-9 -156 -68 -227.5t-189 -71.5q-110 0 -196 21l18 128q69 -15 116 -15q64 0 90.5 37.5t31.5 129.5l71 1094q9 156 68.5 227.5t191.5 71.5z" />
    <glyph glyph-name="approxequal" unicode="&#x2248;" horiz-adv-x="889" 
d="M792 787v-143q-81 -67 -191 -67q-50 0 -93 17t-69.5 37.5t-66.5 37.5t-84 17q-99 0 -189 -72v141q83 69 189 69q50 0 93.5 -17.5t70 -38t66.5 -38t83 -17.5q103 0 191 74zM792 463v-143q-81 -67 -191 -67q-50 0 -93 17.5t-69.5 38t-66.5 38t-84 17.5q-97 0 -189 -74v142
q83 69 189 69q50 0 93.5 -17t70 -38t66.5 -38t83 -17q105 0 191 72z" />
    <glyph glyph-name="notequal" unicode="&#x2260;" horiz-adv-x="1015" 
d="M914 801v-140h-268l-128 -251h396v-138h-467l-127 -249h-159l127 249h-184v138h255l127 251h-382v140h455l120 237h159l-120 -237h196z" />
    <glyph glyph-name="lessequal" unicode="&#x2264;" horiz-adv-x="868" 
d="M739 370l-629 306v143l629 308v-154l-470 -227l470 -224v-152zM124 242h636v-141h-636v141z" />
    <glyph glyph-name="greaterequal" unicode="&#x2265;" horiz-adv-x="868" 
d="M757 819v-143l-628 -306v152l471 224l-471 227v154zM108 101v141h637v-141h-637z" />
    <glyph glyph-name="uni2318" unicode="&#x2318;" horiz-adv-x="1398" 
d="M939 481h147q106 0 179.5 -72t73.5 -177t-73.5 -177.5t-179.5 -72.5q-107 0 -181 72.5t-74 177.5v150h-265v-150q0 -105 -73.5 -177.5t-179.5 -72.5t-179.5 72.5t-73.5 177.5t73.5 177t179.5 72h147v274h-147q-106 0 -179.5 72.5t-73.5 177.5q0 106 73.5 178.5
t179.5 72.5t179.5 -72.5t73.5 -178.5v-149h265v149q0 106 74 178.5t181 72.5q106 0 179.5 -72.5t73.5 -178.5q0 -105 -73.5 -177.5t-179.5 -72.5h-147v-274zM313 856h147v149q0 62 -43 106t-104 44q-62 0 -104.5 -43.5t-42.5 -106.5q0 -62 42.5 -105.5t104.5 -43.5z
M939 1005v-149h147q62 0 104.5 43.5t42.5 105.5q0 63 -42.5 106.5t-104.5 43.5q-61 0 -104 -44t-43 -106zM831 755h-265v-274h265v274zM460 232v150h-147q-62 0 -104.5 -43.5t-42.5 -106.5q0 -62 42.5 -105.5t104.5 -43.5q61 0 104 43.5t43 105.5zM1086 382h-147v-150
q0 -62 43 -105.5t104 -43.5q62 0 104.5 43.5t42.5 105.5q0 63 -42.5 106.5t-104.5 43.5z" />
    <glyph glyph-name="uni2325" unicode="&#x2325;" horiz-adv-x="1432" 
d="M1008 145h294v-145h-377l-522 1093h-293v145h375zM1302 1093h-464v145h464v-145z" />
    <glyph glyph-name="uni2326" unicode="&#x2326;" horiz-adv-x="1851" 
d="M157 1238h1154l496 -619l-496 -619h-1154v1238zM276 108h969l410 511l-410 511h-969v-1022zM1102 964l90 -90l-253 -253l255 -257l-90 -90l-255 257l-257 -257l-90 90l257 257l-255 253l90 90l255 -253z" />
    <glyph glyph-name="uni232B" unicode="&#x232b;" horiz-adv-x="1851" 
d="M44 619l497 619h1153v-1238h-1153zM607 108h969v1022h-969l-411 -511zM1005 531l-257 -257l-88 90l254 257l-253 253l89 90l255 -255l252 255l91 -90l-253 -253l254 -257l-90 -90z" />
    <glyph glyph-name="uni2380" unicode="&#x2380;" horiz-adv-x="1022" 
d="M198 757q0 253 435 263q-3 80 -34 112t-104 32q-93 -3 -233 -43l-25 92q159 53 288 53q131 0 187.5 -56.5t56.5 -197.5v-457h-136v98q-67 -103 -212 -103q-102 0 -162.5 56t-60.5 151zM633 835v93q-297 -14 -297 -155q0 -52 33.5 -83.5t97.5 -31.5q70 2 118 44.5
t48 132.5zM509 157l320 382l96 -88l-412 -462h-7l-409 464l94 86z" />
    <glyph glyph-name="uni2387" unicode="&#x2387;" horiz-adv-x="1432" 
d="M1302 1238v-145h-294l-523 -1093h-375v145h293l522 1093h377zM838 0v145h464v-145h-464z" />
    <glyph glyph-name="uni23CE" unicode="&#x23ce;" horiz-adv-x="1473" 
d="M1164 605v456h127v-483q0 -127 -52.5 -176.5t-182.5 -49.5h-757l283 -272l-90 -91l-432 427l432 428l90 -91l-288 -277h735q71 0 103 29.5t32 99.5z" />
    <glyph glyph-name="uni2400" unicode="&#x2400;" horiz-adv-x="1375" 
d="M1219 1121l60 -60l-225 -224q111 -134 111 -306q0 -130 -63.5 -240t-173.5 -174t-240 -64q-172 0 -306 111l-225 -224l-60 60l225 225q-112 135 -112 306q0 130 64 240t174 173.5t240 63.5q172 0 306 -111zM308 531q0 -136 81 -239l538 537q-107 84 -239 84
q-158 0 -269.5 -112.5t-110.5 -269.5zM1068 531q0 135 -81 238l-538 -537q106 -83 239 -83q158 0 269.5 112.5t110.5 269.5z" />
    <glyph glyph-name="uni24D8" unicode="&#x24d8;" horiz-adv-x="1423" 
d="M711 -9q-173 0 -316.5 82t-226.5 226t-83 318t83 318t226.5 226t316.5 82q130 0 246.5 -48.5t200 -131.5t132.5 -199.5t49 -246.5t-49 -246.5t-132.5 -199.5t-200 -131.5t-246.5 -48.5zM711 110q140 0 256.5 67.5t183 183.5t66.5 256q0 213 -146.5 360.5t-359.5 147.5
q-139 0 -255 -67.5t-182.5 -184.5t-66.5 -256t66.5 -255.5t182.5 -184t255 -67.5zM711 815q-40 0 -67 24t-27 61t27 61t67 24q43 0 69 -23.5t26 -61.5t-26 -61.5t-69 -23.5zM785 269h-148v460h148v-460z" />
    <glyph glyph-name="uni24FF" unicode="&#x24ff;" horiz-adv-x="1429" 
d="M715 -11q-172 0 -316.5 83t-227.5 227t-83 316q0 130 49 246t133 199.5t200 132.5t245 49q173 0 317 -83t226.5 -227t82.5 -317q0 -172 -82.5 -316t-226.5 -227t-317 -83zM715 226q275 0 275 273v235q0 138 -69 203.5t-206 65.5q-276 0 -276 -269v-235q0 -273 276 -273z
M715 320q-153 0 -153 170v253q0 168 153 168q152 0 152 -168v-253q0 -170 -152 -170z" />
    <glyph glyph-name="filledbox" unicode="&#x25a0;" horiz-adv-x="1273" 
d="M106 0v1061h1061v-1061h-1061z" />
    <glyph glyph-name="uni25A1" unicode="&#x25a1;" horiz-adv-x="1280" 
d="M106 0v1068h1068v-1068h-1068zM1056 953h-831v-838h831v838z" />
    <glyph glyph-name="uni25A4" unicode="&#x25a4;" horiz-adv-x="1538" 
d="M150 0v1238h1238v-1238h-1238zM209 1181v-113h1121v113h-1121zM209 900h1121v113h-1121v-113zM209 730h1121v117h-1121v-117zM209 562h1121v115h-1121v-115zM209 393h1121v115h-1121v-115zM209 223h1121v115h-1121v-115zM209 57h1121v113h-1121v-113z" />
    <glyph glyph-name="triagup" unicode="&#x25b2;" horiz-adv-x="1358" 
d="M1341 0h-1323l661 1173z" />
    <glyph glyph-name="uni25B3" unicode="&#x25b3;" horiz-adv-x="1358" 
d="M1341 0h-1323l661 1173zM679 928l-456 -810h914z" />
    <glyph glyph-name="triagdn" unicode="&#x25bc;" horiz-adv-x="1358" 
d="M679 -111l-661 1172h1323z" />
    <glyph glyph-name="uni25BD" unicode="&#x25bd;" horiz-adv-x="1358" 
d="M679 -111l-661 1172h1323zM1137 943h-914l456 -810z" />
    <glyph glyph-name="uni25C6" unicode="&#x25c6;" horiz-adv-x="1061" 
d="M992 619l-461 -462l-462 462l462 462z" />
    <glyph glyph-name="uni25C7" unicode="&#x25c7;" horiz-adv-x="1061" 
d="M992 619l-461 -462l-462 462l462 462zM223 619l308 -308l307 308l-307 308z" />
    <glyph glyph-name="lozenge" unicode="&#x25ca;" horiz-adv-x="978" 
d="M34 585l454 685l458 -685l-458 -686zM175 585l313 -479l315 479l-315 480z" />
    <glyph glyph-name="circle" unicode="&#x25cb;" horiz-adv-x="1423" 
d="M711 -9q-173 0 -316.5 82t-226.5 226t-83 318t83 318t226.5 226t316.5 82q130 0 246.5 -48.5t200 -131.5t132.5 -199.5t49 -246.5t-49 -246.5t-132.5 -199.5t-200 -131.5t-246.5 -48.5zM711 110q140 0 256.5 67.5t183 183.5t66.5 256q0 213 -146.5 360.5t-359.5 147.5
q-139 0 -255 -67.5t-182.5 -184.5t-66.5 -256t66.5 -255.5t182.5 -184t255 -67.5z" />
    <glyph glyph-name="uni25CC" unicode="&#x25cc;" horiz-adv-x="1423" 
d="M711 1082q-33 0 -56.5 24t-23.5 58q0 33 23.5 56t56.5 23q34 0 57.5 -23t23.5 -56q0 -35 -23.5 -58.5t-57.5 -23.5zM244 1005q0 33 23.5 56t57.5 23q33 0 56.5 -23t23.5 -56q0 -34 -23.5 -58t-56.5 -24q-34 0 -57.5 23.5t-23.5 58.5zM1017 1005q0 33 23.5 56t57.5 23
q33 0 57.5 -23t24.5 -56q0 -34 -24.5 -58t-57.5 -24q-34 0 -57.5 23.5t-23.5 58.5zM166 534q-35 0 -58 23.5t-23 59.5q0 33 23.5 56.5t57.5 23.5q33 0 56.5 -23.5t23.5 -56.5q0 -36 -23.5 -59.5t-56.5 -23.5zM1257 534q-33 0 -56 23.5t-23 59.5q0 33 23 56.5t56 23.5
q34 0 58 -23.5t24 -56.5q0 -36 -23.5 -59.5t-58.5 -23.5zM242 230q0 34 23.5 57.5t58.5 23.5q34 0 57.5 -23.5t23.5 -57.5q0 -33 -23.5 -56.5t-57.5 -23.5t-58 23.5t-24 56.5zM1019 228q0 34 23.5 57.5t57.5 23.5q33 0 56.5 -23.5t23.5 -57.5q0 -33 -23.5 -56t-56.5 -23
q-34 0 -57.5 23t-23.5 56zM711 -11q-33 0 -56.5 24t-23.5 58q0 33 23.5 56t56.5 23q34 0 57.5 -23t23.5 -56q0 -35 -23.5 -58.5t-57.5 -23.5z" />
    <glyph glyph-name="uni25CF" unicode="&#x25cf;" horiz-adv-x="1423" 
d="M711 -9q-173 0 -316.5 82t-226.5 226t-83 318t83 318t226.5 226t316.5 82q130 0 246.5 -48.5t200 -131.5t132.5 -199.5t49 -246.5t-49 -246.5t-132.5 -199.5t-200 -131.5t-246.5 -48.5z" />
    <glyph glyph-name="uni2605" unicode="&#x2605;" horiz-adv-x="1457" 
d="M727 191l-460 -285l126 527l-411 350l538 41l209 502l207 -502l539 -41l-414 -350l131 -527z" />
    <glyph glyph-name="uni2606" unicode="&#x2606;" horiz-adv-x="1457" 
d="M727 214l-460 -308l149 534l-434 343l552 23l195 520l192 -520l554 -23l-435 -343l152 -534zM539 481l-102 -340l293 202l292 -202l-101 340l282 216l-356 9l-117 334l-116 -334l-356 -9z" />
    <glyph glyph-name="uni2610" unicode="&#x2610;" horiz-adv-x="1280" 
d="M106 0v1068h1068v-1068h-1068zM1056 953h-831v-838h831v838z" />
    <glyph glyph-name="uni2611" unicode="&#x2611;" horiz-adv-x="1280" 
d="M106 0v1068h1068v-1068h-1068zM1056 953h-831v-838h831v838zM661 228h-125l-218 341l99 64l172 -272l225 479h118z" />
    <glyph glyph-name="uni2612" unicode="&#x2612;" horiz-adv-x="1280" 
d="M106 0v1068h1068v-1068h-1068zM225 115h831v838h-831v-838zM640 453l-208 -209l-78 78l208 209l-208 206l78 78l208 -207l207 207l78 -78l-207 -206l207 -209l-78 -78z" />
    <glyph glyph-name="uni262E" unicode="&#x262e;" horiz-adv-x="1423" 
d="M711 1243q130 0 246.5 -48.5t200 -131.5t132.5 -199.5t49 -246.5t-49 -246.5t-132.5 -199.5t-200 -131.5t-246.5 -48.5q-173 0 -316.5 82t-226.5 226t-83 318t83 318t226.5 226t316.5 82zM654 665v456q-192 -20 -319.5 -163.5t-127.5 -340.5q0 -135 64 -249zM1217 617
q0 194 -125 336t-314 168v-456l379 -292q60 112 60 244zM654 523l-318 -249q130 -143 318 -161v410zM778 523v-410q187 24 313 166z" />
    <glyph glyph-name="uni262F" unicode="&#x262f;" horiz-adv-x="1423" 
d="M711 1243q130 0 246.5 -48.5t200 -131.5t132.5 -199.5t49 -246.5t-49 -246.5t-132.5 -199.5t-200 -131.5t-246.5 -48.5q-173 0 -316.5 82t-226.5 226t-83 318t83 318t226.5 226t316.5 82zM711 1125q-137 0 -251.5 -65.5t-182 -179t-70.5 -250.5q4 -59 28 -102t60.5 -64.5
t71.5 -30.5t70 -9q42 0 76 8t60 26.5t44.5 35.5t36 48.5t26.5 50.5t24 56q78 191 255 191q103 -1 172 -59.5t86 -157.5q-2 139 -69 254t-182.5 181.5t-254.5 66.5z" />
    <glyph glyph-name="smileface" unicode="&#x263a;" horiz-adv-x="1423" 
d="M711 -9q-173 0 -316.5 82t-226.5 226t-83 318t83 318t226.5 226t316.5 82q130 0 246.5 -48.5t200 -131.5t132.5 -199.5t49 -246.5t-49 -246.5t-132.5 -199.5t-200 -131.5t-246.5 -48.5zM711 110q140 0 256.5 67.5t183 183.5t66.5 256q0 213 -146.5 360.5t-359.5 147.5
q-139 0 -255 -67.5t-182.5 -184.5t-66.5 -256t66.5 -255.5t182.5 -184t255 -67.5zM569 706q-38 0 -63 25t-25 63t25 64t63 26q36 0 62.5 -26t26.5 -64t-25.5 -63t-63.5 -25zM865 706q-38 0 -62.5 25t-24.5 63q0 36 26 63t61 27q38 0 64 -26.5t26 -63.5q0 -38 -26 -63
t-64 -25zM964 596h110q0 -142 -104 -240t-254 -98t-251.5 98t-101.5 240h107q0 -99 71.5 -167t174.5 -68q105 0 176.5 67.5t71.5 167.5z" />
    <glyph glyph-name="uni263F" unicode="&#x263f;" horiz-adv-x="1414" 
d="M762 950l18 -179q147 -26 241.5 -137.5t94.5 -260.5q0 -170 -118.5 -286.5t-290.5 -116.5q-171 0 -289.5 117t-118.5 286q0 149 95 260.5t241 137.5l14 177l-184 -81l-46 141l198 44l-131 158l119 88l101 -170l106 170l120 -88l-134 -156l199 -46l-46 -141zM707 108
q111 0 187.5 77t76.5 188t-76.5 187.5t-187.5 76.5q-112 0 -188 -76t-75 -188q0 -112 76.5 -188.5t186.5 -76.5z" />
    <glyph glyph-name="female" unicode="&#x2640;" horiz-adv-x="1768" 
d="M1765 69q18 -12 21 -30t-14 -30q-70 -54 -224.5 -66t-282.5 25q-173 -115 -381 -115q-207 0 -380 115q-128 -37 -283 -25t-225 66q-16 13 -13 30t21 30q69 45 112.5 132.5t58 171.5t14.5 175q0 188 93.5 348t253.5 253.5t348 93.5t348 -93.5t253.5 -253.5t93.5 -348
q0 -91 14.5 -175.5t58.5 -171.5t113 -132zM884 1169q-219 0 -391 -145t-215 -359q69 4 151 19t180.5 44t198 81t174.5 119q44 34 76 -1q101 -122 222 -189.5t213 -77.5q-40 216 -213.5 362.5t-395.5 146.5zM265 548q0 -124 50 -238.5t133 -198.5t197.5 -134t238.5 -50
t238.5 50t197.5 134t133 198.5t50 238.5q0 35 -1 41q-60 3 -133 26t-172 86t-180 157q-88 -74 -196.5 -128t-212.5 -81.5t-187 -40t-154 -14.5q-2 -16 -2 -46zM575 527q22 0 36.5 -22.5t14.5 -57.5t-14.5 -57t-36.5 -22q-24 0 -38 22t-14 57t14 57.5t38 22.5zM1196 527
q22 0 35.5 -22.5t13.5 -57.5t-13.5 -57t-35.5 -22q-24 0 -39 22t-15 57t15 57.5t39 22.5zM85 55q58 -35 156.5 -40t182.5 13q-134 119 -196 290q-37 -190 -143 -263zM1344 28q84 -18 183 -13t157 40q-107 73 -144 263q-62 -171 -196 -290zM1061 226q14 13 29.5 13.5
t23.5 -9.5q25 -29 -9 -57q-90 -83 -221 -83t-221 83q-34 28 -9 57q8 10 23.5 9.5t29.5 -13.5q70 -63 177 -63t177 63z" />
    <glyph glyph-name="male" unicode="&#x2642;" horiz-adv-x="1768" 
d="M884 1243q188 0 348 -93.5t253.5 -253.5t93.5 -348t-93.5 -348t-253.5 -253.5t-348 -93.5t-348 93.5t-253.5 253.5t-93.5 348t93.5 348t253.5 253.5t348 93.5zM884 1169q-221 0 -393 -144t-215 -360q69 4 151.5 19t181.5 44t198.5 81t174.5 119q44 34 76 -1
q101 -122 222 -189.5t213 -77.5q-40 217 -212.5 363t-396.5 146zM884 -73q124 0 238.5 50t198 133.5t133 198.5t49.5 239q0 35 -1 41q-60 3 -133 26t-172 86t-180 157q-88 -74 -196.5 -128t-212.5 -81.5t-187 -40t-154 -14.5q-2 -16 -2 -46q0 -124 49.5 -239t133 -198.5
t198 -133.5t238.5 -50zM575 527q22 0 36.5 -22.5t14.5 -57.5t-14.5 -57t-36.5 -22q-24 0 -38 22t-14 57t14 57.5t38 22.5zM1196 527q22 0 35.5 -22.5t13.5 -57.5t-13.5 -57t-35.5 -22q-24 0 -39 22t-15 57t15 57.5t39 22.5zM1061 226q14 13 29.5 13.5t23.5 -9.5
q25 -29 -9 -57q-90 -83 -221 -83t-221 83q-34 28 -9 57q8 10 23.5 9.5t29.5 -13.5q70 -63 177 -63t177 63z" />
    <glyph glyph-name="uni2661" unicode="&#x2661;" horiz-adv-x="1397" 
d="M994 1141q143 0 239.5 -94.5t96.5 -234.5q0 -152 -149 -315l-482 -524l-485 524q-147 160 -147 315q0 141 93.5 235t237.5 94q96 0 161 -38t140 -120q76 83 138.5 120.5t156.5 37.5zM992 1024q-46 0 -84.5 -17t-61.5 -37t-66 -64l-81 -84l-82 84q-63 64 -107 91t-109 27
q-93 0 -152.5 -61.5t-59.5 -154.5q0 -111 101 -219l409 -440l406 440q101 108 101 219q0 93 -59.5 154.5t-154.5 61.5z" />
    <glyph glyph-name="heart" unicode="&#x2665;" horiz-adv-x="1390" 
d="M989 1146q141 0 235.5 -96t94.5 -235q0 -148 -148 -313l-476 -521l-477 521q-147 160 -147 313q0 140 92 235.5t231 95.5q66 0 122.5 -22t91 -49.5t87.5 -80.5q40 40 65 62t62 45.5t77.5 34t89.5 10.5z" />
    <glyph glyph-name="diamond" unicode="&#x2666;" horiz-adv-x="1149" 
d="M575 1351l484 -721l-484 -298l-485 315zM67 562l508 -359l507 342l-507 -761z" />
    <glyph glyph-name="uni26A5" unicode="&#x26a5;" horiz-adv-x="1768" 
d="M1712 688q21 -12 24.5 -31.5t-15.5 -28.5q-35 -19 -103.5 -20t-131.5 18q-91 -64 -207 -64q-118 0 -207 64q-64 -19 -132 -18t-103 20q-19 9 -18.5 27t19.5 29q38 21 58 95t20 149q0 155 104.5 261t258.5 106t258 -106t104 -261q0 -72 19.5 -146.5t51.5 -93.5zM716 999
h-583q-29 0 -29 29v194q0 30 29 30h583q30 0 30 -30v-194q0 -29 -30 -29zM1279 1236q-108 0 -188.5 -65t-103.5 -168q77 5 166 34.5t154 92.5q30 27 53 -10q41 -56 102 -90.5t114 -44.5q-19 110 -101.5 180.5t-195.5 70.5zM686 1196h-522v-140h522v140zM978 928
q0 -130 86.5 -217.5t214.5 -87.5q127 0 213 85.5t89 214.5q-58 7 -128.5 41t-126.5 99q-132 -114 -348 -126v-9zM1120 925q28 0 28 -51q0 -23 -8 -36.5t-20 -13.5q-32 0 -32 50q0 51 32 51zM1441 925q29 0 29 -51q0 -23 -8.5 -36.5t-20.5 -13.5q-31 0 -31 50q0 51 31 51z
M716 660h-583q-29 0 -29 30v193q0 30 29 30h583q30 0 30 -30v-193q0 -30 -30 -30zM686 856h-522v-140h522v140zM900 669q59 -9 120 3q-43 50 -67 110q-17 -80 -53 -113zM1537 672q61 -15 118 -3q-36 24 -51 111q-22 -57 -67 -108zM1360 759q15 18 37 -4q18 -19 -5 -42
q-44 -39 -113 -39q-73 0 -112 39q-27 24 -2 46q7 8 17 7t17 -9q32 -27 81 -27q46 0 80 29zM439 559q152 0 259.5 -109t107.5 -263q0 -149 -107.5 -254.5t-259.5 -105.5q-149 0 -254 107.5t-105 258.5t105 258.5t254 107.5zM444 501q-106 0 -188.5 -66t-108.5 -168
q207 19 318 127q30 26 55 -10q43 -56 107 -91.5t116 -43.5q-20 108 -105 180t-194 72zM1569 384l74 -221q7 -23 -16 -30l-136 -32l92 -101q19 -19 -4 -37l-198 -133q-18 -14 -30 6l-74 118l-73 -118q-12 -20 -31 -6l-199 133q-22 18 -3 37l92 101l-138 32q-21 7 -14 30
l74 219q7 20 28 12l131 -53l-9 135q-1 10 5 16.5t17 6.5h242q24 0 21 -23l-10 -135l129 55q23 8 30 -12zM1516 -12l-124 145l189 47l-53 147l-179 -65l9 184h-162l10 -184l-180 65l-52 -147l186 -47l-120 -145l133 -92l104 157l106 -157zM444 -115q123 0 212 88.5t92 213.5
q-57 5 -130 39t-132 101q-130 -114 -348 -125v-9q0 -126 90 -217t216 -91zM276 189q30 0 30 -51q0 -50 -30 -50t-30 50q0 51 30 51zM601 189q30 0 30 -51q0 -50 -30 -50t-30 50q0 51 30 51zM515 28q24 18 40 2q24 -24 -5 -46q-39 -39 -111 -39q-71 0 -114 39q-26 22 -5 46
q8 8 20 7t21 -9q26 -26 78 -26q50 0 76 26z" />
    <glyph glyph-name="uni272A" unicode="&#x272a;" horiz-adv-x="1423" 
d="M711 1243q130 0 246.5 -48.5t200 -131.5t132.5 -199.5t49 -246.5t-49 -246.5t-132.5 -199.5t-200 -131.5t-246.5 -48.5q-173 0 -316.5 82t-226.5 226t-83 318t83 318t226.5 226t316.5 82z" />
    <glyph glyph-name="uni2731" unicode="&#x2731;" horiz-adv-x="1294" 
d="M1139 1005l88 -153l-405 -233l405 -233l-88 -153l-403 234v-467h-177v467l-403 -234l-89 153l405 233l-405 233l89 153l403 -234v467h177v-467z" />
    <glyph glyph-name="uni2732" unicode="&#x2732;" horiz-adv-x="1250" 
d="M684 771h-116v467h116v-467zM522 745l-59 -101l-406 235l58 101zM789 644l-59 101l407 235l59 -99zM1194 357l-59 -101l-405 234l59 101zM117 256l-59 101l405 232l59 -99zM684 -2h-116v465h116v-465z" />
    <glyph glyph-name="uni275B" unicode="&#x275b;" horiz-adv-x="840" 
d="M359 920l12 -4q52 30 107 37.5t104 -8.5t88 -49t62 -87.5t23 -120.5q0 -137 -94 -226t-240 -89q-149 0 -245 100.5t-96 255.5q0 101 39.5 194.5t112 167.5t185.5 118.5t250 44.5v-140q-105 -2 -191.5 -55t-116.5 -139z" />
    <glyph glyph-name="uni275C" unicode="&#x275c;" horiz-adv-x="840" 
d="M419 1254q149 0 245 -100.5t96 -255.5q0 -101 -39.5 -194.5t-112 -167.5t-185.5 -118.5t-250 -44.5v140q105 2 191.5 55t116.5 139l-12 4q-52 -30 -107 -37.5t-104 8.5t-88 49t-62 87.5t-23 120.5q0 137 94 226t240 89z" />
    <glyph glyph-name="uni275D" unicode="&#x275d;" horiz-adv-x="1565" 
d="M359 920l12 -4q52 30 107 37.5t104 -8.5t88 -49t62 -87.5t23 -120.5q0 -137 -94 -226t-240 -89q-149 0 -245 100.5t-96 255.5q0 101 39.5 194.5t112 167.5t185.5 118.5t250 44.5v-140q-105 -2 -191.5 -55t-116.5 -139zM1084 920l13 -4q64 37 133 38.5t124 -28.5
t90.5 -92.5t35.5 -145.5q0 -137 -94 -226t-240 -89q-149 0 -245 100.5t-96 255.5q0 101 39.5 194.5t112 167.5t185.5 118.5t250 44.5v-140q-105 -2 -191.5 -55t-116.5 -139z" />
    <glyph glyph-name="uni275E" unicode="&#x275e;" horiz-adv-x="1565" 
d="M419 1254q149 0 245 -100.5t96 -255.5q0 -101 -39.5 -194.5t-112 -167.5t-185.5 -118.5t-250 -44.5v140q105 2 191.5 55t116.5 139l-12 4q-52 -30 -107 -37.5t-104 8.5t-88 49t-62 87.5t-23 120.5q0 137 94 226t240 89zM1144 1254q149 0 245.5 -100.5t96.5 -255.5
q0 -101 -39.5 -194.5t-112 -167.5t-186 -118.5t-250.5 -44.5v140q105 2 191.5 55t116.5 139l-12 4q-52 -30 -107 -37.5t-104 8.5t-88 49t-62 87.5t-23 120.5q0 137 94 226t240 89z" />
    <glyph glyph-name="uni2761" unicode="&#x2761;" horiz-adv-x="1211" 
d="M607 1238h463v-974q0 -123 -26 -216t-82.5 -162.5t-152.5 -105.5t-231 -36q-128 0 -229 38.5t-163.5 105.5t-96.5 150t-38 178l133 35q8 -88 35 -150.5t65.5 -92.5t74 -42t74.5 -12q174 0 174 278v200q-237 3 -363.5 102t-126.5 301q0 205 126.5 304t363.5 99zM608 -122
q154 3 233.5 103t79.5 283v838h-166v-870q0 -271 -147 -354z" />
    <glyph glyph-name="uni2776" unicode="&#x2776;" horiz-adv-x="1429" 
d="M715 -11q-172 0 -316.5 83t-227.5 227t-83 316q0 130 49 246t133 199.5t200 132.5t245 49q173 0 317 -83t226.5 -227t82.5 -317q0 -172 -82.5 -316t-226.5 -227t-317 -83zM546 327v-94h342v94h-99v670h-99q-6 -60 -29 -86q-23 -23 -104 -23v-94h108v-467h-119z" />
    <glyph glyph-name="uni2777" unicode="&#x2777;" horiz-adv-x="1429" 
d="M715 -11q-172 0 -316.5 83t-227.5 227t-83 316q0 130 49 246t133 199.5t200 132.5t245 49q173 0 317 -83t226.5 -227t82.5 -317q0 -172 -82.5 -316t-226.5 -227t-317 -83zM741 596l-283 -359h508v92h-308l194 230q101 126 101 233q0 101 -63 157.5t-175 56.5
q-123 0 -191.5 -71t-58.5 -212h119q-6 85 25.5 136.5t101.5 51.5q59 0 90.5 -30t31.5 -83q0 -89 -92 -202z" />
    <glyph glyph-name="uni2778" unicode="&#x2778;" horiz-adv-x="1429" 
d="M715 -11q-172 0 -316.5 83t-227.5 227t-83 316q0 130 49 246t133 199.5t200 132.5t245 49q173 0 317 -83t226.5 -227t82.5 -317q0 -172 -82.5 -316t-226.5 -227t-317 -83zM723 235q120 0 188.5 58.5t68.5 161.5q0 80 -38 130t-107 64q122 34 122 166q0 89 -62.5 143
t-179.5 54t-184 -64.5t-59 -181.5h115q-4 72 31 113t97 41q59 0 92 -32.5t33 -82.5q0 -59 -36 -90.5t-105 -31.5h-38v-87h45q157 0 157 -134q0 -61 -35.5 -97t-100.5 -36q-69 0 -108.5 42.5t-34.5 118.5h-117q-8 -124 61.5 -189.5t194.5 -65.5z" />
    <glyph glyph-name="uni2779" unicode="&#x2779;" horiz-adv-x="1429" 
d="M715 -11q-172 0 -316.5 83t-227.5 227t-83 316q0 129 49 245t132.5 200t199.5 133t246 49q173 0 317 -83t226.5 -227t82.5 -317q0 -172 -82.5 -316t-226.5 -227t-317 -83zM798 391v-145h113v145h85v92h-85v189h-113v-189h-221l228 527h-121l-247 -571v-48h361z" />
    <glyph glyph-name="uni277A" unicode="&#x277a;" horiz-adv-x="1429" 
d="M715 -11q-172 0 -316.5 83t-227.5 227t-83 316q0 130 49 246t133 199.5t200 132.5t245 49q173 0 317 -83t226.5 -227t82.5 -317q0 -172 -82.5 -316t-226.5 -227t-317 -83zM723 225q253 0 253 279q0 269 -221 269q-102 0 -159 -67v196h355v94h-465v-393h114q35 76 127 76
q66 0 97.5 -42.5t31.5 -135.5q0 -183 -133 -183q-61 0 -93 35.5t-34 97.5h-115q3 -109 64.5 -167.5t177.5 -58.5z" />
    <glyph glyph-name="uni277B" unicode="&#x277b;" horiz-adv-x="1429" 
d="M715 -11q-171 0 -315 83.5t-228 227.5t-84 315t84 315.5t228 228t315 83.5t315 -83.5t227.5 -228t83.5 -315.5t-83.5 -315t-227.5 -227.5t-315 -83.5zM699 235q127 0 195 68t68 192q0 110 -65 174.5t-167 64.5q-38 0 -70 -16l230 287h-140l-232 -292q-83 -111 -83 -218
q0 -122 71.5 -191t192.5 -69zM699 327q-64 0 -102 44.5t-38 121.5q0 76 38.5 120.5t101.5 44.5q65 0 103 -44t38 -121q0 -78 -38 -122t-103 -44z" />
    <glyph glyph-name="uni277C" unicode="&#x277c;" horiz-adv-x="1429" 
d="M715 -11q-171 0 -315 83.5t-228 227.5t-84 315t84 315.5t228 228t315 83.5t315 -83.5t227.5 -228t83.5 -315.5t-83.5 -315t-227.5 -227.5t-315 -83.5zM817 886l-233 -663h125l262 762h-476v-99h322z" />
    <glyph glyph-name="uni277D" unicode="&#x277d;" horiz-adv-x="1429" 
d="M715 -11q-171 0 -315 83.5t-228 227.5t-84 315t84 315.5t228 228t315 83.5t315 -83.5t227.5 -228t83.5 -315.5t-83.5 -315t-227.5 -227.5t-315 -83.5zM715 225q125 0 196.5 59.5t71.5 162.5q0 77 -41 132.5t-114 78.5q53 20 83 60.5t30 93.5q0 85 -61.5 137t-164.5 52
t-166 -52t-63 -137q0 -53 30.5 -93.5t84.5 -60.5q-73 -23 -114 -78t-41 -133q0 -103 72 -162.5t197 -59.5zM715 697q-53 0 -84 28.5t-31 77.5q0 53 31 85t84 32t83.5 -31.5t30.5 -85.5q0 -49 -30.5 -77.5t-83.5 -28.5zM715 309q-67 0 -107 39.5t-40 107.5q0 71 40 112.5
t107 41.5q66 0 105.5 -42t39.5 -112q0 -67 -39.5 -107t-105.5 -40z" />
    <glyph glyph-name="uni277E" unicode="&#x277e;" horiz-adv-x="1429" 
d="M715 1242q171 0 315 -84t227.5 -228t83.5 -315t-83.5 -315t-227.5 -227.5t-315 -83.5t-315.5 83.5t-228 227.5t-83.5 315t83.5 315t228 228t315.5 84zM730 996q-127 0 -195 -68t-68 -192q0 -110 65 -174.5t167 -64.5q38 0 70 16l-230 -287h140l232 292q83 111 83 218
q0 122 -71.5 191t-192.5 69zM730 904q64 0 102 -44.5t38 -122.5q0 -76 -38.5 -120t-101.5 -44q-66 0 -103.5 43.5t-37.5 120.5q0 78 38 122.5t103 44.5z" />
    <glyph glyph-name="uni277F" unicode="&#x277f;" horiz-adv-x="1429" 
d="M715 -11q-172 0 -316.5 83t-227.5 227t-83 316q0 130 49 246t133 199.5t200 132.5t245 49q173 0 317 -83t226.5 -227t82.5 -317q0 -172 -82.5 -316t-226.5 -227t-317 -83zM891 283q227 0 227 232v208q0 230 -227 230q-114 0 -170 -56.5t-56 -173.5v-208
q0 -119 55.5 -175.5t170.5 -56.5zM304 371v-83h311v83h-92v577h-86q-6 -59 -27 -80q-22 -23 -97 -23v-81h101v-393h-110zM891 364q-116 0 -116 144v222q0 142 116 142q117 0 117 -142v-222q0 -144 -117 -144z" />
    <glyph glyph-name="uni2B20" unicode="&#x2b20;" horiz-adv-x="1333" 
d="M1045 0h-755l-233 718l612 442l608 -442zM195 672l182 -555h582l180 555l-470 343z" />
    <glyph glyph-name="uni2B21" unicode="&#x2b21;" horiz-adv-x="1356" 
d="M1234 203l-557 -321l-555 321v644l555 320l557 -320v-644zM242 272l435 -251l435 251v503l-435 253l-435 -253v-503z" />
    <glyph glyph-name="uni2B22" unicode="&#x2b22;" horiz-adv-x="1356" 
d="M1234 203l-557 -321l-555 321v644l555 320l557 -320v-644zM242 272l435 -251l435 251v503l-435 253l-435 -253v-503z" />
    <glyph glyph-name="uniFB1D" unicode="&#xfb1d;" horiz-adv-x="500" 
d="M340 1061v-610h-200v610h200zM256 101q-31 0 -51.5 20.5t-20.5 51.5t20.5 51t51.5 20q30 0 50.5 -20.5t20.5 -50.5q0 -31 -20.5 -51.5t-50.5 -20.5z" />
    <glyph glyph-name="uniFB1F" unicode="&#xfb1f;" horiz-adv-x="1008" 
d="M364 1061v-610h-200v610h200zM844 1061v-610h-200v610h200zM143 0v154h722v-154h-722z" />
    <glyph glyph-name="uniFB20" unicode="&#xfb20;" horiz-adv-x="1121" 
d="M776 523v538h200v-539q0 -285 -114.5 -403.5t-385.5 -118.5h-432v154h227l-144 907h202l138 -907h12q163 0 230 79.5t67 289.5z" />
    <glyph glyph-name="uniFB21" unicode="&#xfb21;" horiz-adv-x="2198" 
d="M1590 325l516 -325h-307l-994 626q-271 -12 -384 -99t-113 -286v-241h-202v248q0 246 120.5 362t374.5 143l-488 308h310l965 -608q136 7 227 30t153 70.5t89.5 122t27.5 185.5v200h200v-226q0 -128 -31 -219.5t-95.5 -151t-153.5 -92.5t-215 -47z" />
    <glyph glyph-name="uniFB22" unicode="&#xfb22;" horiz-adv-x="2122" 
d="M57 1061h1986v-154h-290v-907h-200v907h-1496v154z" />
    <glyph glyph-name="uniFB23" unicode="&#xfb23;" horiz-adv-x="2233" 
d="M133 1061h1942v-1061h-200v907h-1742v154zM145 0v614h200v-614h-200z" />
    <glyph glyph-name="uniFB24" unicode="&#xfb24;" horiz-adv-x="2040" 
d="M94 1061h1408q236 0 332 -109t96 -368v-106q0 -259 -96 -368.5t-332 -109.5h-1408v154h1362q154 0 213 77t59 255v89q0 178 -59 255t-213 77h-1362v154z" />
    </font>
</defs>
</svg>
