<svg xmlns="http://www.w3.org/2000/svg" width="550.571" height="549.798" viewBox="0 0 550.571 549.798">
  <g id="bg_gray_logo" transform="translate(-810.993 -2625.984)">
    <path id="Path_84" data-name="Path 84" d="M409.4,213.154a40.826,40.826,0,0,1-28.959-12L281.586,102.3a70.009,70.009,0,0,0-98.893,0L83.841,201.158a40.954,40.954,0,0,1-57.919-57.917l98.855-98.859c59.2-59.2,155.53-59.2,214.727,0l98.859,98.859A40.954,40.954,0,0,1,409.4,213.154Z" transform="translate(854.13 2626)" fill="#f9f9f9"/>
    <path id="Path_85" data-name="Path 85" d="M153.261,132.4a58.821,58.821,0,1,1,0-83.186,58.821,58.821,0,0,1,0,83.186" transform="translate(974.604 2725.057)" fill="#f9f9f9"/>
    <path id="Path_86" data-name="Path 86" d="M258.212,428.214a41.005,41.005,0,0,1-10.626-1.406L112.545,390.622C31.678,368.953-16.484,285.533,5.184,204.664L41.367,69.623a40.954,40.954,0,1,1,79.117,21.2L84.3,225.863A70.005,70.005,0,0,0,133.745,311.5l135.042,36.187a40.96,40.96,0,0,1-10.575,80.523Z" transform="translate(811 2747.568)" fill="#f9f9f9"/>
    <path id="Path_87" data-name="Path 87" d="M104.826,72.241a58.822,58.822,0,1,1-72.042,41.593,58.823,58.823,0,0,1,72.042-41.593" transform="translate(906.251 2843.416)" fill="#f9f9f9"/>
    <path id="Path_88" data-name="Path 88" d="M102.317,428.214a40.96,40.96,0,0,1-10.574-80.523l135.042-36.183a70.25,70.25,0,0,0,49.444-85.643L240.045,90.821a40.954,40.954,0,1,1,79.117-21.2l36.183,135.042A152.157,152.157,0,0,1,247.984,390.626L112.942,426.809A41.015,41.015,0,0,1,102.317,428.214Z" transform="translate(1001.012 2747.568)" fill="#f9f9f9"/>
    <path id="Path_89" data-name="Path 89" d="M76.941,144.283a58.822,58.822,0,1,1,72.042,41.593,58.823,58.823,0,0,1-72.042-41.593" transform="translate(1042.935 2843.416)" fill="#f9f9f9"/>
  </g>
</svg>
