<svg xmlns="http://www.w3.org/2000/svg" xmlns:xlink="http://www.w3.org/1999/xlink" width="66.764" height="66.764" viewBox="0 0 66.764 66.764">
  <defs>
    <filter id="Path_73" x="0" y="0" width="66.764" height="66.764" filterUnits="userSpaceOnUse">
      <feOffset input="SourceAlpha"/>
      <feGaussianBlur stdDeviation="3" result="blur"/>
      <feFlood flood-opacity="0.161"/>
      <feComposite operator="in" in2="blur"/>
      <feComposite in="SourceGraphic"/>
    </filter>
  </defs>
  <g id="button_left" transform="translate(-593.236 -930.618)" style="isolation: isolate">
    <g transform="matrix(1, 0, 0, 1, 593.24, 930.62)" filter="url(#Path_73)">
      <path id="Path_73-2" data-name="Path 73" d="M48.764,24.382A24.382,24.382,0,1,1,24.382,0,24.382,24.382,0,0,1,48.764,24.382" transform="translate(57.76 57.76) rotate(180)" fill="#fff"/>
    </g>
    <path id="Path_74" data-name="Path 74" d="M3.136,33.415A3.136,3.136,0,0,1,.918,28.062l7.569-7.569a5.36,5.36,0,0,0,0-7.572L.918,5.353A3.136,3.136,0,0,1,5.353.918l7.569,7.569a11.639,11.639,0,0,1,0,16.44L5.353,32.5A3.126,3.126,0,0,1,3.136,33.415Z" transform="translate(634.779 980.707) rotate(180)" fill="#5cb08a"/>
  </g>
</svg>
