<svg xmlns="http://www.w3.org/2000/svg" width="1786.853" height="277.777" viewBox="0 0 1786.853 277.777"><g transform="translate(-50.379 -3234.942)" opacity="0.05"><g transform="translate(734.564 3458.563)"><path d="M65.935,82.548a4.559,4.559,0,0,1-1.177-8.962l15.03-4.027a7.819,7.819,0,0,0,5.5-9.532L81.264,45a4.558,4.558,0,1,1,8.806-2.359L94.1,57.667a16.935,16.935,0,0,1-11.949,20.7l-15.03,4.027A4.565,4.565,0,0,1,65.935,82.548Z" transform="translate(-61.379 -39.258)" fill="#fff"/><path d="M75.147,78.465a6.547,6.547,0,1,1,8.018,4.629,6.547,6.547,0,0,1-8.018-4.629" transform="translate(-68.749 -56.108)" fill="#fff"/></g><g transform="translate(334.363 3454.134) rotate(-30)"><path d="M4.556,43.291A4.559,4.559,0,0,1,3.38,34.329L18.41,30.3a7.819,7.819,0,0,0,5.5-9.532L19.886,5.739A4.558,4.558,0,1,1,28.691,3.38l4.027,15.03a16.935,16.935,0,0,1-11.949,20.7L5.739,43.134A4.565,4.565,0,0,1,4.556,43.291Z" transform="translate(0 0)" fill="#fff"/><path d="M.225,8.243a6.547,6.547,0,1,1,8.018,4.629A6.547,6.547,0,0,1,.225,8.243" transform="translate(6.173 14.114)" fill="#fff"/></g><g transform="translate(655.633 3342.339) rotate(-30)"><path d="M4.556,43.291A4.559,4.559,0,0,1,3.38,34.329L18.41,30.3a7.819,7.819,0,0,0,5.5-9.532L19.886,5.739A4.558,4.558,0,1,1,28.691,3.38l4.027,15.03a16.935,16.935,0,0,1-11.949,20.7L5.739,43.134A4.565,4.565,0,0,1,4.556,43.291Z" transform="translate(0 0)" fill="#fff"/><path d="M.225,8.243a6.547,6.547,0,1,1,8.018,4.629A6.547,6.547,0,0,1,.225,8.243" transform="translate(6.173 14.114)" fill="#fff"/></g><g transform="translate(465.152 3406.9) rotate(-150)"><path d="M4.556,43.291A4.559,4.559,0,0,1,3.38,34.329L18.41,30.3a7.819,7.819,0,0,0,5.5-9.532L19.886,5.739A4.558,4.558,0,1,1,28.691,3.38l4.027,15.03a16.935,16.935,0,0,1-11.949,20.7L5.739,43.134A4.565,4.565,0,0,1,4.556,43.291Z" transform="translate(0 0)" fill="#fff"/><path d="M.225,8.243a6.547,6.547,0,1,1,8.018,4.629A6.547,6.547,0,0,1,.225,8.243" transform="translate(6.173 14.114)" fill="#fff"/></g><g transform="translate(1754.873 3406.9) rotate(-150)"><path d="M4.556,43.291A4.559,4.559,0,0,1,3.38,34.329L18.41,30.3a7.819,7.819,0,0,0,5.5-9.532L19.886,5.739A4.558,4.558,0,1,1,28.691,3.38l4.027,15.03a16.935,16.935,0,0,1-11.949,20.7L5.739,43.134A4.565,4.565,0,0,1,4.556,43.291Z" transform="translate(0 0)" fill="#fff"/><path d="M.225,8.243a6.547,6.547,0,1,1,8.018,4.629A6.547,6.547,0,0,1,.225,8.243" transform="translate(6.173 14.114)" fill="#fff"/></g><g transform="matrix(0.259, -0.966, 0.966, 0.259, 193.739, 3439.063)"><path d="M4.556,43.291A4.559,4.559,0,0,1,3.38,34.329L18.41,30.3a7.819,7.819,0,0,0,5.5-9.532L19.886,5.739A4.558,4.558,0,1,1,28.691,3.38l4.027,15.03a16.935,16.935,0,0,1-11.949,20.7L5.739,43.134A4.565,4.565,0,0,1,4.556,43.291Z" transform="translate(0 0)" fill="#fff"/><path d="M.225,8.243a6.547,6.547,0,1,1,8.018,4.629A6.547,6.547,0,0,1,.225,8.243" transform="translate(6.173 14.114)" fill="#fff"/></g><g transform="matrix(0.259, -0.966, 0.966, 0.259, 526.798, 3299.578)"><path d="M4.556,43.291A4.559,4.559,0,0,1,3.38,34.329L18.41,30.3a7.819,7.819,0,0,0,5.5-9.532L19.886,5.739A4.558,4.558,0,1,1,28.691,3.38l4.027,15.03a16.935,16.935,0,0,1-11.949,20.7L5.739,43.134A4.565,4.565,0,0,1,4.556,43.291Z" transform="translate(0 0)" fill="#fff"/><path d="M.225,8.243a6.547,6.547,0,1,1,8.018,4.629A6.547,6.547,0,0,1,.225,8.243" transform="translate(6.173 14.114)" fill="#fff"/></g><g transform="matrix(0.259, -0.966, 0.966, 0.259, 1786.798, 3299.578)"><path d="M4.556,43.291A4.559,4.559,0,0,1,3.38,34.329L18.41,30.3a7.819,7.819,0,0,0,5.5-9.532L19.886,5.739A4.558,4.558,0,1,1,28.691,3.38l4.027,15.03a16.935,16.935,0,0,1-11.949,20.7L5.739,43.134A4.565,4.565,0,0,1,4.556,43.291Z" transform="translate(0 0)" fill="#fff"/><path d="M.225,8.243a6.547,6.547,0,1,1,8.018,4.629A6.547,6.547,0,0,1,.225,8.243" transform="translate(6.173 14.114)" fill="#fff"/></g><g transform="translate(240.64 3337.861) rotate(-135)"><path d="M4.556,43.291A4.559,4.559,0,0,1,3.38,34.329L18.41,30.3a7.819,7.819,0,0,0,5.5-9.532L19.886,5.739A4.558,4.558,0,1,1,28.691,3.38l4.027,15.03a16.935,16.935,0,0,1-11.949,20.7L5.739,43.134A4.565,4.565,0,0,1,4.556,43.291Z" transform="translate(0 0)" fill="#fff"/><path d="M.225,8.243a6.547,6.547,0,1,1,8.018,4.629A6.547,6.547,0,0,1,.225,8.243" transform="translate(6.173 14.114)" fill="#fff"/></g><g transform="translate(73.924 3498.906) rotate(-135)"><path d="M4.556,43.291A4.559,4.559,0,0,1,3.38,34.329L18.41,30.3a7.819,7.819,0,0,0,5.5-9.532L19.886,5.739A4.558,4.558,0,1,1,28.691,3.38l4.027,15.03a16.935,16.935,0,0,1-11.949,20.7L5.739,43.134A4.565,4.565,0,0,1,4.556,43.291Z" transform="translate(0 0)" fill="#fff"/><path d="M.225,8.243a6.547,6.547,0,1,1,8.018,4.629A6.547,6.547,0,0,1,.225,8.243" transform="translate(6.173 14.114)" fill="#fff"/></g><g transform="translate(392.159 3294.493) rotate(-135)"><path d="M4.556,43.291A4.559,4.559,0,0,1,3.38,34.329L18.41,30.3a7.819,7.819,0,0,0,5.5-9.532L19.886,5.739A4.558,4.558,0,1,1,28.691,3.38l4.027,15.03a16.935,16.935,0,0,1-11.949,20.7L5.739,43.134A4.565,4.565,0,0,1,4.556,43.291Z" transform="translate(0 0)" fill="#fff"/><path d="M.225,8.243a6.547,6.547,0,1,1,8.018,4.629A6.547,6.547,0,0,1,.225,8.243" transform="translate(6.173 14.114)" fill="#fff"/></g><g transform="translate(89.121 3289.099) rotate(-135)"><path d="M4.556,43.291A4.559,4.559,0,0,1,3.38,34.329L18.41,30.3a7.819,7.819,0,0,0,5.5-9.532L19.886,5.739A4.558,4.558,0,1,1,28.691,3.38l4.027,15.03a16.935,16.935,0,0,1-11.949,20.7L5.739,43.134A4.565,4.565,0,0,1,4.556,43.291Z" transform="translate(0 0)" fill="#fff"/><path d="M.225,8.243a6.547,6.547,0,1,1,8.018,4.629A6.547,6.547,0,0,1,.225,8.243" transform="translate(6.173 14.114)" fill="#fff"/></g><g transform="translate(531.063 3512.719) rotate(-135)"><path d="M4.556,43.291A4.559,4.559,0,0,1,3.38,34.329L18.41,30.3a7.819,7.819,0,0,0,5.5-9.532L19.886,5.739A4.558,4.558,0,1,1,28.691,3.38l4.027,15.03a16.935,16.935,0,0,1-11.949,20.7L5.739,43.134A4.565,4.565,0,0,1,4.556,43.291Z" transform="translate(0 0)" fill="#fff"/><path d="M.225,8.243a6.547,6.547,0,1,1,8.018,4.629A6.547,6.547,0,0,1,.225,8.243" transform="translate(6.173 14.114)" fill="#fff"/></g><g transform="translate(1800.063 3512.719) rotate(-135)"><path d="M4.556,43.291A4.559,4.559,0,0,1,3.38,34.329L18.41,30.3a7.819,7.819,0,0,0,5.5-9.532L19.886,5.739A4.558,4.558,0,1,1,28.691,3.38l4.027,15.03a16.935,16.935,0,0,1-11.949,20.7L5.739,43.134A4.565,4.565,0,0,1,4.556,43.291Z" transform="translate(0 0)" fill="#fff"/><path d="M.225,8.243a6.547,6.547,0,1,1,8.018,4.629A6.547,6.547,0,0,1,.225,8.243" transform="translate(6.173 14.114)" fill="#fff"/></g></g></svg>