<svg id="increase_btn" xmlns="http://www.w3.org/2000/svg" width="41.776" height="41.776" viewBox="0 0 41.776 41.776">
  <path id="Path_73" data-name="Path 73" d="M41.776,20.888A20.888,20.888,0,1,1,20.888,0,20.888,20.888,0,0,1,41.776,20.888" transform="translate(0 0)" fill="#fff"/>
  <path id="Path_74" data-name="Path 74" d="M2.246,23.939A2.246,2.246,0,0,1,.658,20.1L6.08,14.681a3.84,3.84,0,0,0,0-5.424L.658,3.835A2.246,2.246,0,0,1,3.835.658L9.257,6.08a8.338,8.338,0,0,1,0,11.778L3.835,23.281A2.239,2.239,0,0,1,2.246,23.939Z" transform="translate(16.069 8.78) rotate(-45)" fill="#55a5e2"/>
  <path id="Path_74-2" data-name="Path 74" d="M2.246,23.939A2.246,2.246,0,0,1,.658,20.1L6.08,14.681a3.84,3.84,0,0,0,0-5.424L.658,3.835A2.246,2.246,0,0,1,3.835.658L9.257,6.08a8.338,8.338,0,0,1,0,11.778L3.835,23.281A2.239,2.239,0,0,1,2.246,23.939Z" transform="translate(25.707 32.996) rotate(135)" fill="#55a5e2"/>
</svg>
