<svg id="pause_btn" xmlns="http://www.w3.org/2000/svg" width="41.776" height="41.776" viewBox="0 0 41.776 41.776">
  <path id="Path_73" data-name="Path 73" d="M41.776,20.888A20.888,20.888,0,1,1,20.888,0,20.888,20.888,0,0,1,41.776,20.888" transform="translate(0 0)" fill="#fff"/>
  <path id="Union_2" data-name="Union 2" d="M.025,20.755V11.964c-.009-.035-.017-.071-.025-.107V2.686a2.686,2.686,0,0,1,5.372,0v8.791c.009.035.017.071.025.107v9.171a2.686,2.686,0,0,1-5.372,0Z" transform="translate(12.308 9.821)" fill="#55a5e2"/>
  <path id="Union_3" data-name="Union 3" d="M.025,20.755V11.964c-.009-.035-.017-.071-.025-.107V2.686a2.686,2.686,0,0,1,5.372,0v8.791c.009.035.017.071.025.107v9.171a2.686,2.686,0,0,1-5.372,0Z" transform="translate(24.071 9.821)" fill="#55a5e2"/>
</svg>
