<?xml version="1.0" encoding="utf-8"?>
<!-- Generator: Adobe Illustrator 27.0.0, SVG Export Plug-In . SVG Version: 6.00 Build 0)  -->
<svg version="1.1" id="Layer_1" xmlns="http://www.w3.org/2000/svg" xmlns:xlink="http://www.w3.org/1999/xlink" x="0px" y="0px"
	 viewBox="0 0 16 16" style="enable-background:new 0 0 16 16;" xml:space="preserve">
<style type="text/css">
	.st0{fill:#FFFFFF;}
</style>
<path class="st0" d="M0,12V4c0-1.1,0.9-2,2-2h12c1.1,0,2,0.9,2,2v8c0,1.1-0.9,2-2,2H2C0.9,14,0,13.1,0,12z M6.8,5.1
	C6.6,4.9,6.3,5,6.1,5.2C6,5.3,6,5.4,6,5.5v5C6,10.8,6.2,11,6.5,11c0.1,0,0.2,0,0.3-0.1l3.5-2.5c0.2-0.2,0.3-0.5,0.1-0.7
	c0,0-0.1-0.1-0.1-0.1C10.3,7.6,6.8,5.1,6.8,5.1z"/>
</svg>
