<svg id="play_btn" xmlns="http://www.w3.org/2000/svg" width="41.776" height="41.776" viewBox="0 0 41.776 41.776">
  <path id="Path_73" data-name="Path 73" d="M41.776,20.888A20.888,20.888,0,1,1,20.888,0,20.888,20.888,0,0,1,41.776,20.888" transform="translate(0 0)" fill="#fff"/>
  <path id="Union_6" data-name="Union 6" d="M-588.912,309.289a2.188,2.188,0,0,1-.906-2.1V297.54c-.01-.033-.02-.065-.029-.1V285.89c0-.006,0-.012,0-.018a2.257,2.257,0,0,1,.935-1.745,3.848,3.848,0,0,1,4.516,0l7.707,6.031c4.615,3.612,4.615,9.488,0,13.1l-7.707,6.031a3.683,3.683,0,0,1-2.258.732A3.681,3.681,0,0,1-588.912,309.289Z" transform="translate(603.744 -275.82)" fill="#55a5e2"/>
</svg>
