<svg id="play_btn" xmlns="http://www.w3.org/2000/svg" width="41.776" height="41.776" viewBox="0 0 41.776 41.776">
  <path id="Path_73" data-name="Path 73" d="M41.776,20.888A20.888,20.888,0,1,1,20.888,0,20.888,20.888,0,0,1,41.776,20.888" transform="translate(0 0)" fill="#fff"/>
  <path id="Path_74" data-name="Path 74" d="M112.688,72.772a2.686,2.686,0,0,1-1.9-4.586l6.484-6.484a4.592,4.592,0,0,0,0-6.487l-6.484-6.484a2.686,2.686,0,1,1,3.8-3.8l6.484,6.484a9.971,9.971,0,0,1,0,14.084l-6.484,6.484A2.678,2.678,0,0,1,112.688,72.772Z" transform="translate(-96.105 -37.571)" fill="#5cb08a"/>
</svg>
