<svg xmlns="http://www.w3.org/2000/svg" xmlns:xlink="http://www.w3.org/1999/xlink" width="46" height="50.895" viewBox="0 0 46 50.895"><defs><clipPath id="a"><rect width="46" height="50.895" fill="#efefef"/></clipPath></defs><g transform="translate(0 0)"><g transform="translate(0 0)" clip-path="url(#a)"><path d="M.069,42.324,3.538,8.357C4.282,2.409,7.754-.815,13.209.179S21.142,5.135,19.9,10.59l-5.95,33.469c-1.239,4.959-4.216,7.189-8.181,6.694-3.968-.741-6.2-3.717-5.7-8.429m25.784,0L29.074,8.357c.5-5.948,4.216-8.924,9.918-7.933,5.455.743,7.933,4.711,6.694,10.662l-5.95,33.224c-1.239,4.957-4.213,7.189-8.429,6.444-3.968-.5-5.95-3.47-5.455-8.429" transform="translate(0 0.002)" fill="#efefef"/></g></g></svg>