<svg id="skip_btn" xmlns="http://www.w3.org/2000/svg" xmlns:xlink="http://www.w3.org/1999/xlink" width="41.776" height="41.776" viewBox="0 0 41.776 41.776">
  <defs>
    <clipPath id="clip-path">
      <rect id="Rectangle_37" data-name="Rectangle 37" width="31" height="34.574" transform="translate(0 0)" fill="none"/>
    </clipPath>
  </defs>
  <path id="Path_73" data-name="Path 73" d="M41.776,20.888A20.888,20.888,0,1,1,20.888,0,20.888,20.888,0,0,1,41.776,20.888" transform="translate(0 0)" fill="#fff"/>
  <g id="Group_76" data-name="Group 76" transform="translate(5.388 2.53)">
    <g id="Group_75" data-name="Group 75" clip-path="url(#clip-path)">
      <path id="Path_121" data-name="Path 121" d="M28.5,19.074a13,13,0,1,1-13-13" fill="none" stroke="#54a276" stroke-linecap="round" stroke-width="5"/>
      <path id="Path_122" data-name="Path 122" d="M22.514,3.138,17.884.465a3.434,3.434,0,0,0-5.151,2.974V8.785a3.435,3.435,0,0,0,5.151,2.975l4.63-2.673a3.434,3.434,0,0,0,0-5.949" fill="#54a276"/>
    </g>
  </g>
  <path id="Path_123" data-name="Path 123" d="M-.041-9.258a1.872,1.872,0,0,0-1.443.5v-1.764H1.354a.68.68,0,0,0,.754-.738A.68.68,0,0,0,1.354-12H-2.51a.76.76,0,0,0-.77.77v3.608c0,.5.337.738,1.042.738.561,0,.77-.192.9-.481A.787.787,0,0,1-.6-7.847c.5,0,.738.192.738,1.026v2.052c0,.786-.241,1.026-.738,1.026-.545,0-.77-.241-.77-1.026v-.016a.885.885,0,0,0-.946-.978.89.89,0,0,0-.962.978v.1c0,1.667.85,2.405,2.678,2.405,1.812,0,2.662-.738,2.662-2.405v-2.2C2.059-8.569,1.306-9.258-.041-9.258Z" transform="translate(21.474 30.53)" fill="#54a276"/>
</svg>
