<svg xmlns="http://www.w3.org/2000/svg" width="91.844" height="91.844" viewBox="0 0 91.844 91.844"><g transform="translate(-1202.078 -1325.5)"><path d="M86.844,43.422A43.422,43.422,0,1,1,43.422,0,43.422,43.422,0,0,1,86.844,43.422" transform="translate(1291.422 1414.844) rotate(180)" fill="#fff" stroke="#4494d0" stroke-width="5"/><g transform="translate(1226.127 1350.071)"><path d="M57.024,22.248l-9.229-9.229a10.382,10.382,0,0,0-14.639,0l-9.229,9.229" transform="translate(-18.602 -9.999)" fill="none" stroke="#4494d0" stroke-linecap="round" stroke-miterlimit="10" stroke-width="7"/><path d="M13.73,49.26,10.352,61.867a10.382,10.382,0,0,0,7.319,12.678l12.607,3.378" transform="translate(-10 -34.249)" fill="none" stroke="#4494d0" stroke-linecap="round" stroke-miterlimit="10" stroke-width="7"/><path d="M71.381,77.923l12.607-3.378a10.382,10.382,0,0,0,7.319-12.678L87.93,49.26" transform="translate(-47.913 -34.249)" fill="none" stroke="#4494d0" stroke-linecap="round" stroke-miterlimit="10" stroke-width="7"/><path d="M75.11,77.128a5.485,5.485,0,1,1,6.718,3.878,5.485,5.485,0,0,1-6.718-3.878" transform="translate(-58.535 -51.927)" fill="#4494d0"/></g></g></svg>