<svg id="volumeIconMuted_btn" xmlns="http://www.w3.org/2000/svg" width="41.776" height="41.776" viewBox="0 0 41.776 41.776">
  <path id="Path_73" data-name="Path 73" d="M41.776,20.888A20.888,20.888,0,1,1,20.888,0,20.888,20.888,0,0,1,41.776,20.888" transform="translate(0 0)" fill="#fff"/>
  <path id="Union_4" data-name="Union 4" d="M.468,9.266A1.8,1.8,0,0,1,.6,6.737L2.139,5.2l.04-.06.281-.281L.594,3A1.993,1.993,0,0,1,0,1.7,1.6,1.6,0,0,1,.458.469,1.8,1.8,0,0,1,2.985.606L4.516,2.136l.065.043.281.281L6.727.595A1.988,1.988,0,0,1,8.019,0,1.6,1.6,0,0,1,9.255.458a1.8,1.8,0,0,1-.137,2.527L7.585,4.519l-.041.062-.281.281L9.129,6.727a1.991,1.991,0,0,1,.592,1.292,1.6,1.6,0,0,1-.455,1.236,1.8,1.8,0,0,1-2.528-.136L5.2,7.585l-.061-.04-.281-.281L3,9.129A1.993,1.993,0,0,1,1.7,9.721l-.1,0A1.593,1.593,0,0,1,.468,9.266Z" transform="translate(5.145 16.026)" fill="#5cb08a"/>
  <path id="Icon_awesome-volume-down" data-name="Icon awesome-volume-down" d="M15.119,5.065,8.864,11.32H1.688A1.687,1.687,0,0,0,0,13.008V23.133A1.687,1.687,0,0,0,1.688,24.82H8.864l6.256,6.254A1.688,1.688,0,0,0,18,29.881V6.259A1.689,1.689,0,0,0,15.119,5.065Z" transform="translate(34.745 39.1) rotate(180)" fill="#5cb08a"/>
</svg>
