<svg id="volumeIcon_btn" xmlns="http://www.w3.org/2000/svg" width="41.776" height="41.776" viewBox="0 0 41.776 41.776">
  <path id="Path_73" data-name="Path 73" d="M41.776,20.888A20.888,20.888,0,1,1,20.888,0,20.888,20.888,0,0,1,41.776,20.888" transform="translate(0 0)" fill="#fff"/>
  <path id="Icon_awesome-volume-down" data-name="Icon awesome-volume-down" d="M15.119,5.065,8.864,11.32H1.688A1.687,1.687,0,0,0,0,13.008V23.133A1.687,1.687,0,0,0,1.688,24.82H8.864l6.256,6.254A1.688,1.688,0,0,0,18,29.881V6.259A1.689,1.689,0,0,0,15.119,5.065Zm8.663,7.6a1.688,1.688,0,0,0-1.628,2.957,2.772,2.772,0,0,1,0,4.9,1.688,1.688,0,0,0,1.628,2.957,6.148,6.148,0,0,0,0-10.811Z" transform="translate(34.777 39.1) rotate(180)" fill="#5cb08a"/>
</svg>
